<svg version="1.1" id="Layer_1" xmlns="http://www.w3.org/2000/svg" xmlns:xlink="http://www.w3.org/1999/xlink" x="0px" y="0px"
	 width="100%" viewBox="0 0 704 230" enable-background="new 0 0 704 230" xml:space="preserve">
<path fill="#F9FBFF" opacity="1.000000" stroke="none" 
	d="
M503.000000,231.000000 
	C335.333344,231.000000 168.166672,231.000000 1.000000,231.000000 
	C1.000000,154.333328 1.000000,77.666664 1.000000,1.000000 
	C235.666672,1.000000 470.333344,1.000000 705.000000,1.000000 
	C705.000000,77.666664 705.000000,154.333328 705.000000,231.000000 
	C637.833313,231.000000 570.666687,231.000000 503.000000,231.000000 
M408.946747,169.300980 
	C406.639191,169.949600 403.865204,170.036789 402.181213,171.435928 
	C400.973785,172.439117 400.509888,175.427109 401.047821,177.101089 
	C401.489685,178.476212 403.843414,179.977768 405.440338,180.085861 
	C408.709412,180.307144 412.039307,179.630051 415.653992,179.294098 
	C415.396729,176.089966 415.215637,172.532440 414.804230,169.001770 
	C414.109772,163.041412 407.870697,160.245789 402.943085,163.718491 
	C402.226593,164.223434 402.071838,165.525421 401.530212,166.744247 
	C405.197937,166.936615 408.906342,162.929993 410.064331,168.942932 
	C410.064331,168.942932 409.726105,169.285599 408.946747,169.300980 
M129.894409,127.378990 
	C113.984406,145.297867 94.599251,158.613922 73.368446,169.277359 
	C67.985306,171.981125 61.855194,173.709106 55.877129,174.594376 
	C47.397045,175.850143 42.366360,170.563034 42.634941,161.960373 
	C42.692524,160.115875 42.811264,158.273300 42.901833,156.429840 
	C41.225838,158.572998 40.419388,160.848083 39.960274,163.191208 
	C36.800854,179.315704 43.903515,186.334167 59.751053,182.093430 
	C67.862694,179.922791 75.622795,176.438431 83.750671,173.471558 
	C88.482887,179.359253 93.509392,185.613098 98.619469,191.970917 
	C112.414635,174.947937 126.204323,158.311447 139.553833,141.328918 
	C148.880356,129.464203 158.117218,117.464973 166.432205,104.889763 
	C172.846848,95.188507 177.513901,84.403442 177.002060,72.234917 
	C176.635880,63.528885 172.080902,58.410526 164.188965,57.905949 
	C152.139832,57.135590 141.800385,62.093300 131.633255,67.667969 
	C134.021103,68.071152 136.331161,67.940254 138.622269,68.093193 
	C150.196106,68.865761 155.306427,75.326874 153.355072,86.696815 
	C153.047562,88.488625 152.577866,90.267921 152.014343,91.998016 
	C147.654678,105.382698 139.472656,116.408791 129.894409,127.378990 
M84.362289,83.623924 
	C93.267723,79.324738 102.474274,78.896446 111.386650,82.935005 
	C126.615501,89.835838 132.365540,102.521774 131.563370,119.052193 
	C136.416061,112.386124 140.650879,105.836838 144.555389,99.096191 
	C145.290192,97.827621 145.196350,95.614845 144.651932,94.146629 
	C141.648483,86.046692 136.607239,79.336647 130.142639,73.614731 
	C115.480209,60.636776 91.590637,58.357029 74.599312,68.406998 
	C56.051155,79.377792 45.696545,101.655014 49.678131,120.916336 
	C53.268250,138.283875 65.232635,150.195801 76.031456,163.773743 
	C85.488014,157.716919 94.591408,151.886307 104.656471,145.439743 
	C82.215889,143.998657 70.637589,135.936371 67.016541,120.125168 
	C63.691875,105.608116 70.085732,91.727745 84.362289,83.623924 
M238.921112,86.427345 
	C234.987000,94.396935 231.052872,102.366531 226.807892,110.965843 
	C225.774155,109.395859 225.231583,108.764603 224.899353,108.037270 
	C221.732483,101.104576 218.535828,94.184265 215.477234,87.203659 
	C212.074829,79.438332 205.597183,78.406693 199.579208,78.663567 
	C196.681137,78.787277 194.826172,80.074219 196.720627,83.585182 
	C198.042740,86.035408 199.717743,88.826767 199.633865,91.413834 
	C199.230026,103.868576 201.504639,116.699341 195.014420,128.962952 
	C197.073044,129.317886 198.964264,129.858795 200.873718,129.933441 
	C206.947540,130.170837 207.655930,129.200546 207.263611,123.206306 
	C206.850586,116.895256 206.674545,110.564018 206.580917,104.238853 
	C206.538788,101.393005 206.948456,98.540474 207.153122,95.690971 
	C208.663864,96.453476 209.280731,97.214851 209.643188,98.082497 
	C213.287903,106.807419 216.791245,115.593552 220.594742,124.248039 
	C221.304199,125.862328 223.222260,128.088928 224.491348,128.031097 
	C226.165863,127.954803 228.369370,126.241653 229.251862,124.632431 
	C231.473953,120.580490 233.147751,116.219086 234.920853,111.931900 
	C237.139023,106.568550 239.236755,101.155403 241.386490,95.763748 
	C241.850189,95.882370 242.313904,96.000984 242.777618,96.119606 
	C242.777618,105.463806 242.747833,114.808220 242.811554,124.151985 
	C242.820511,125.466599 242.837830,127.243614 243.625763,128.003311 
	C245.944366,130.238815 255.890823,129.904724 258.785156,127.956642 
	C257.492218,125.705147 254.996460,123.399330 255.125717,121.251495 
	C255.936676,107.775902 250.073898,93.823753 257.959900,80.939377 
	C251.011108,76.787926 243.330429,78.816330 238.921112,86.427345 
M108.774651,122.025627 
	C109.431419,121.934746 110.086395,121.780960 110.745216,121.762306 
	C123.348328,121.405319 123.189445,121.408875 123.167999,108.788002 
	C123.160980,104.660973 121.524521,103.542900 117.802208,103.791153 
	C114.711952,103.997261 111.597015,103.833351 108.462105,103.833351 
	C108.272354,102.509193 108.123032,101.872528 108.097763,101.230988 
	C107.594673,88.456169 107.600082,88.574799 94.733673,88.846733 
	C91.131790,88.922874 90.038544,90.444550 90.126610,93.679565 
	C90.215408,96.941193 90.146172,100.207123 90.146172,103.518059 
	C85.144737,103.799141 79.473442,102.493599 76.990059,104.729248 
	C74.659599,106.827225 75.652382,112.664986 75.270866,116.865143 
	C74.932884,120.585930 76.894432,121.920853 80.412178,121.771484 
	C83.513435,121.639793 86.624710,121.743919 90.149162,121.743919 
	C90.149162,125.667702 89.886528,128.996765 90.266418,132.250839 
	C90.441071,133.746872 91.791382,136.245621 92.752937,136.315948 
	C97.348228,136.652069 102.248474,137.110809 106.475906,135.759857 
	C107.876862,135.312164 107.623390,129.592957 108.060516,126.275215 
	C108.211998,125.125519 108.164474,123.949600 108.774651,122.025627 
M318.163116,131.573608 
	C320.780457,131.300369 323.512726,131.405365 325.984894,130.654282 
	C328.820007,129.792923 330.987854,129.254364 334.179932,130.603455 
	C336.975220,131.784866 340.922089,130.448975 344.296143,129.858765 
	C344.889893,129.754913 345.747345,127.064644 345.506897,126.886551 
	C340.085907,122.870949 341.559814,116.971397 341.397308,111.686005 
	C341.079956,101.364525 341.125397,91.030922 341.098236,80.702133 
	C341.090851,77.900177 340.470093,75.321709 337.227051,75.530762 
	C333.444519,75.774590 329.713898,76.823608 324.947784,77.712074 
	C326.709503,79.835480 327.796417,80.591629 328.070404,81.574425 
	C329.103149,85.278786 329.871399,89.056885 330.738678,92.807365 
	C328.336212,93.311646 325.955231,94.069839 323.527466,94.275604 
	C313.776520,95.102058 307.577118,100.469719 306.073914,109.626633 
	C304.332520,120.234978 308.147247,127.529716 318.163116,131.573608 
M462.509613,102.620995 
	C462.759796,108.249107 463.263275,113.883438 463.125519,119.502045 
	C463.075897,121.524933 461.892975,123.871902 460.508942,125.434937 
	C457.849609,128.438202 458.742889,129.924530 462.153839,130.399887 
	C465.095642,130.809845 468.122284,130.808655 471.101807,130.707214 
	C476.528259,130.522446 476.358002,129.987991 475.458344,124.808891 
	C474.419525,118.828827 474.101654,112.649170 474.218597,106.570564 
	C474.288818,102.921265 477.176849,100.214005 480.889862,100.620796 
	C482.970093,100.848686 486.304840,103.124344 486.487183,104.764885 
	C487.160797,110.825577 487.558350,117.141212 486.553162,123.107162 
	C485.312775,130.468643 485.162079,131.041733 492.879089,130.921890 
	C495.022003,130.888626 497.183990,130.621918 499.293427,130.227814 
	C502.650635,129.600616 502.978149,128.214966 500.685852,125.529861 
	C499.244476,123.841507 498.068146,121.492271 497.809204,119.316231 
	C497.201782,114.210564 497.418030,109.011749 496.932220,103.885574 
	C496.247772,96.662781 492.028656,93.124969 484.856842,93.842033 
	C482.302277,94.097443 479.881622,95.498077 477.333710,96.092293 
	C475.946411,96.415840 474.032990,96.720802 473.023895,96.042221 
	C468.608643,93.073006 463.395996,93.438278 458.852173,97.559387 
	C459.919586,99.005928 460.996765,100.465683 462.509613,102.620995 
M508.175964,98.878517 
	C513.458740,103.816025 511.580322,110.300232 511.887238,116.290848 
	C512.074219,119.940292 512.320496,123.620354 508.578094,126.128708 
	C508.134491,126.426048 508.993469,129.948547 509.351227,129.966812 
	C514.487183,130.228943 519.640747,130.145981 525.317566,130.145981 
	C524.594543,127.642807 523.971680,126.266533 523.824829,124.841240 
	C523.234253,119.107368 522.395630,113.356422 522.423157,107.615517 
	C522.443787,103.325745 525.373657,100.459877 529.759766,100.362312 
	C533.975281,100.268539 535.365051,103.610634 535.520569,107.139969 
	C535.739014,112.097549 536.184875,117.202965 535.297180,122.017181 
	C533.660461,130.893417 533.606628,131.226974 542.826660,130.842499 
	C544.478088,130.773636 546.157776,130.610046 547.751343,130.203598 
	C548.770996,129.943527 550.110901,129.349518 550.451965,128.543381 
	C550.705322,127.944450 549.510620,126.796867 549.091187,125.836746 
	C548.026978,123.401131 546.464050,121.007698 546.134094,118.463371 
	C545.431885,113.049171 545.699707,107.508194 544.981384,102.097305 
	C544.271790,96.751801 540.823792,93.630379 535.485229,93.935532 
	C531.191467,94.180962 526.974487,95.768997 521.916931,96.949577 
	C521.851318,96.862587 521.386902,95.911385 520.639709,95.313622 
	C517.214233,92.573143 509.524078,94.316040 508.175964,98.878517 
M418.535828,123.810112 
	C421.812836,128.741837 426.564209,131.011276 432.322906,131.615646 
	C442.523041,132.686111 451.602386,125.378815 452.942413,114.931084 
	C454.342072,104.018539 447.988434,95.151154 437.540222,93.601845 
	C430.245056,92.520103 423.746216,94.467026 419.403351,100.501511 
	C414.312866,107.574883 414.465942,115.381912 418.535828,123.810112 
M555.560608,110.004639 
	C555.676453,112.806412 555.373962,115.702332 555.979797,118.393845 
	C558.787659,130.869812 576.545898,136.304337 586.061279,127.635300 
	C586.971497,126.806053 587.158936,125.183456 587.681885,123.929176 
	C586.636719,123.766777 585.552612,123.345451 584.554443,123.495514 
	C582.432678,123.814491 580.379456,124.615067 578.255615,124.889236 
	C572.653992,125.612358 568.125183,122.878403 566.838989,118.362854 
	C565.954346,115.257370 566.796143,113.484184 570.180237,113.341362 
	C573.831970,113.187241 577.493835,113.189407 581.136658,112.923355 
	C589.115723,112.340622 591.366394,108.357132 587.627625,101.290047 
	C586.727295,99.588211 585.345520,98.009911 583.854858,96.772774 
	C573.826904,88.450394 558.125488,95.387428 555.560608,110.004639 
M276.756500,116.247330 
	C277.721130,115.329948 278.595093,113.764709 279.667114,113.614655 
	C283.109009,113.132904 286.696228,113.551376 290.089539,112.902046 
	C293.160370,112.314415 298.370178,111.077179 298.557617,109.606522 
	C299.006378,106.084999 297.781708,101.800140 295.832916,98.704536 
	C294.383972,96.402954 290.908508,94.680038 288.046631,94.081696 
	C272.996826,90.935135 262.002563,103.739883 266.372437,118.994881 
	C269.873657,131.217484 287.088654,136.156006 296.492462,127.560532 
	C297.324860,126.799683 297.508698,125.329308 297.993774,124.188484 
	C296.839996,123.952942 295.650787,123.418381 294.540558,123.550026 
	C292.751404,123.762199 291.036774,124.540062 289.251251,124.856651 
	C283.053314,125.955620 278.412689,123.008224 276.756500,116.247330 
M636.948975,93.358986 
	C635.469849,94.560036 633.990723,95.761078 632.511658,96.962120 
	C633.023499,97.024498 633.535339,97.086876 634.047180,97.149254 
	C635.077942,101.148216 636.403015,105.099899 637.055054,109.159668 
	C637.683716,113.073250 637.627686,117.097870 637.853455,121.074791 
	C638.096008,125.347855 639.598450,128.975510 643.872742,130.473511 
	C648.378540,132.052658 652.732422,131.029434 656.587158,128.340378 
	C657.362854,127.799278 657.857178,126.427422 657.878906,125.425568 
	C657.888733,124.972054 656.473755,124.209869 655.621765,124.059090 
	C648.266907,122.757423 648.221680,122.791870 647.790771,115.642242 
	C647.641479,113.164108 647.870911,110.662094 647.701294,108.186478 
	C647.373840,103.406914 649.069519,100.206978 653.995239,98.998337 
	C654.929993,98.768982 655.649597,97.662575 656.468445,96.960838 
	C655.632324,96.043930 654.955933,94.627480 653.931396,94.299706 
	C650.205017,93.107628 648.137024,90.894463 647.552917,86.930504 
	C647.386902,85.803368 645.732605,84.139061 644.691406,84.086098 
	C643.347534,84.017738 641.466064,84.982689 640.653687,86.107605 
	C639.230591,88.078232 638.445007,90.509277 636.948975,93.358986 
M388.067963,109.754372 
	C388.240692,105.568329 389.151001,100.978218 393.434357,100.042961 
	C396.119141,99.456741 399.519318,102.010345 402.556335,103.257874 
	C403.454346,103.626755 404.252197,104.854660 405.019135,104.789177 
	C406.302185,104.679642 408.277222,104.150368 408.634552,103.263382 
	C409.887146,100.154160 410.089844,96.647408 406.118927,95.414742 
	C402.692078,94.350952 398.965027,93.776154 395.377380,93.805443 
	C387.280304,93.871552 380.338623,99.321434 378.262573,106.635086 
	C375.920044,114.887505 378.638824,124.023331 384.690552,128.234634 
	C390.955811,132.594528 401.006744,132.539810 407.170380,127.911545 
	C408.424225,126.970024 409.158966,125.337158 410.131531,124.024971 
	C404.488861,124.024971 399.226715,125.076805 394.642151,123.763451 
	C388.672974,122.053452 387.902954,116.193817 388.067963,109.754372 
M621.804199,129.364944 
	C624.168457,127.965355 627.730774,127.534431 626.707581,122.577728 
	C623.997253,123.269226 621.513977,123.931534 619.016357,124.534058 
	C613.749573,125.804596 609.124756,123.952637 607.157227,118.923866 
	C606.002014,115.971390 605.401367,112.337502 605.994629,109.291275 
	C606.633606,106.011032 608.254395,102.199745 610.722473,100.175484 
	C614.027222,97.464951 616.968933,101.069962 619.865356,102.874214 
	C621.422485,103.844223 623.392517,104.668571 625.127258,104.581535 
	C625.819519,104.546799 627.115723,101.707977 626.825256,100.448013 
	C626.401611,98.610359 625.157410,96.249008 623.609680,95.542862 
	C620.990662,94.347992 617.877441,93.935799 614.942566,93.790596 
	C606.245605,93.360291 599.877747,97.322205 596.645752,104.795677 
	C593.564697,111.920235 594.959656,121.200272 599.875916,126.284477 
	C604.976074,131.558807 613.163879,132.888992 621.804199,129.364944 
M367.085938,104.546455 
	C367.062225,102.057175 367.227814,99.544685 366.926666,97.089447 
	C366.796448,96.028008 365.643921,94.191742 365.055359,94.230217 
	C360.642822,94.518730 356.255127,95.187828 351.070251,95.836571 
	C360.492706,107.923767 358.326172,118.783669 351.801971,130.224823 
	C358.916321,130.224823 365.464844,130.224823 370.913483,130.224823 
	C369.565979,124.306763 368.157043,118.931480 367.181671,113.478653 
	C366.721191,110.904366 367.091888,108.181404 367.085938,104.546455 
M160.229721,31.343603 
	C151.415970,32.196857 146.873215,39.325882 150.963943,46.035736 
	C153.365082,49.974220 156.992996,51.663307 161.564865,50.671520 
	C165.913773,49.728104 168.963196,45.780266 169.065720,41.322723 
	C169.178055,36.438877 166.684143,33.405766 160.229721,31.343603 
M212.370163,170.799728 
	C213.769638,158.341751 205.758087,154.525314 194.865295,156.708511 
	C194.865295,164.341293 194.865295,172.047806 194.865295,179.722534 
	C206.311356,180.976303 209.696304,179.352112 212.370163,170.799728 
M364.887695,171.269333 
	C364.886475,167.114838 365.069672,162.946777 364.766083,158.814514 
	C364.680511,157.649506 363.168549,156.589294 362.310822,155.481033 
	C361.849152,155.775970 361.387482,156.070923 360.925812,156.365860 
	C360.925812,158.958694 360.925812,161.551544 360.925812,164.416931 
	C360.096008,164.148163 359.590729,164.110794 359.250763,163.854294 
	C356.651306,161.893051 353.940948,161.835602 351.566620,163.941666 
	C348.188263,166.938324 347.594971,171.164047 349.262451,174.894943 
	C350.287659,177.188751 353.153076,179.552353 355.591125,180.096207 
	C358.628876,180.773804 362.077515,179.609268 365.664673,179.204544 
	C365.423218,177.028534 365.155548,174.616226 364.887695,171.269333 
M279.012848,158.507736 
	C278.071533,157.513504 277.130249,156.519257 276.188934,155.525024 
	C275.873627,155.866241 275.558289,156.207458 275.242981,156.548676 
	C275.242981,164.287216 275.242981,172.025757 275.242981,179.078430 
	C278.211456,179.526321 280.717529,180.091476 283.244720,180.211456 
	C284.629486,180.277206 286.250000,179.912766 287.417664,179.185730 
	C291.306122,176.764694 292.371735,169.914658 289.710419,165.708755 
	C287.367523,162.006073 284.143097,161.583176 279.016296,164.436325 
	C279.016296,162.685776 279.016296,161.037292 279.012848,158.507736 
M254.512741,159.860458 
	C254.512741,166.471390 254.512741,173.082306 254.512741,179.693237 
	C255.044250,179.974030 255.575775,180.254837 256.107300,180.535645 
	C256.998474,179.404266 258.430328,178.374176 258.665314,177.119858 
	C259.118042,174.702988 258.520905,172.067627 259.101501,169.705338 
	C259.411346,168.444656 261.270599,167.564789 262.430542,166.513046 
	C263.293335,167.725082 264.661133,168.843811 264.906158,170.169983 
	C265.322418,172.422928 264.749756,174.856506 265.150482,177.115219 
	C265.366852,178.334824 266.739105,179.349350 267.589905,180.456390 
	C268.061615,180.175049 268.533295,179.893692 269.005005,179.612350 
	C269.005005,175.488861 269.242188,171.347839 268.939148,167.246750 
	C268.628113,163.037643 265.979858,161.570053 261.960541,162.972946 
	C260.996216,163.309555 260.095673,163.829041 258.780731,164.444687 
	C258.780731,162.268204 259.047211,160.555389 258.691620,158.983292 
	C258.433533,157.842270 257.352051,156.887497 256.637695,155.849686 
	C255.930511,156.884872 255.223328,157.920074 254.512741,159.860458 
M387.654785,172.191177 
	C393.993164,171.779877 397.183594,168.691040 396.549377,163.579910 
	C395.739838,157.055969 390.796906,154.871750 381.191833,156.917313 
	C381.191833,164.445557 381.191833,172.013596 381.191833,179.581650 
	C381.600525,179.866974 382.009186,180.152298 382.417877,180.437607 
	C383.307800,179.385208 384.422058,178.447266 385.032013,177.252014 
	C385.829895,175.688339 386.229218,173.921280 387.654785,172.191177 
M230.272644,165.425980 
	C227.598145,161.413681 223.867065,161.884872 220.100937,163.231033 
	C219.297226,163.518295 218.851639,164.807526 218.241089,165.635178 
	C219.157196,165.860077 220.141586,166.418671 220.976715,166.247787 
	C223.561462,165.718918 226.045959,165.011780 227.142593,168.676392 
	C224.425812,169.222656 221.706223,169.036484 220.134094,170.289719 
	C218.529694,171.568680 217.090637,174.407532 217.376266,176.290924 
	C217.618912,177.890945 220.692352,180.480698 222.036270,180.215500 
	C225.404282,179.550812 228.580582,178.565796 232.602036,180.933929 
	C231.866409,175.161682 231.287506,170.619186 230.272644,165.425980 
M451.519043,179.949478 
	C452.828766,178.885376 454.138519,177.821274 455.448273,176.757172 
	C455.190125,176.220734 454.932007,175.684296 454.673889,175.147858 
	C452.973145,175.717316 451.249756,176.789307 449.578094,176.713867 
	C447.929871,176.639511 446.334076,175.403427 444.715271,174.677048 
	C444.893158,174.061050 445.071075,173.445053 445.248962,172.829056 
	C449.059296,172.829056 452.869598,172.829056 456.712616,172.829056 
	C455.812042,164.715424 452.426361,161.400421 446.997467,162.652908 
	C442.540222,163.681229 439.771271,167.709427 440.385529,172.271759 
	C441.169037,178.091049 444.299316,180.452499 451.519043,179.949478 
M431.106598,168.835266 
	C431.143372,171.488556 431.289490,174.146027 431.187958,176.794006 
	C431.072937,179.793304 432.215607,180.780045 435.181580,179.604904 
	C435.181580,175.337402 435.661987,170.970932 434.951172,166.807877 
	C434.656250,165.080521 431.979218,162.848099 430.093384,162.518936 
	C427.300232,162.031387 424.246948,163.034256 421.206635,163.414856 
	C421.206635,168.703613 421.206635,174.266449 421.206635,179.829285 
	C421.652008,180.084412 422.097382,180.339539 422.542755,180.594681 
	C423.348846,179.517746 424.650818,178.526489 424.854919,177.345520 
	C425.245331,175.086639 424.696075,172.661865 425.109955,170.411362 
	C425.730347,167.038086 427.514008,165.354584 431.106598,168.835266 
M305.128326,180.087143 
	C309.672302,179.196167 311.888519,175.741943 311.464264,171.836136 
	C311.135986,168.813431 309.166534,165.016586 306.722290,163.481583 
	C304.814667,162.283539 299.768829,163.015869 298.427307,164.714539 
	C296.501526,167.153091 295.796204,171.353775 296.178314,174.613678 
	C296.651306,178.648819 300.073700,180.531738 305.128326,180.087143 
M318.636047,166.850540 
	C321.446136,165.864395 324.422394,164.311096 326.109833,168.745117 
	C323.240936,169.338455 320.370148,169.169464 318.692810,170.502365 
	C317.141602,171.735001 315.810669,174.900406 316.336578,176.615540 
	C316.840271,178.258255 319.756287,179.885971 321.793640,180.157303 
	C324.579742,180.528412 327.537506,179.610611 330.799469,179.197433 
	C330.583527,176.194183 330.696228,172.412094 329.908447,168.827957 
	C329.441925,166.705399 327.898987,163.709778 326.223724,163.221512 
	C323.683380,162.481125 320.600708,163.545715 317.777679,164.018204 
	C317.654327,164.038834 317.822113,165.798904 318.636047,166.850540 
M247.634796,179.175156 
	C250.857697,174.550003 250.166565,171.934860 245.219788,170.093781 
	C244.289520,169.747543 243.196136,169.653397 242.436188,169.092880 
	C241.793823,168.619095 241.525375,167.638306 241.091446,166.881912 
	C241.762527,166.521530 242.449814,165.839676 243.101074,165.872498 
	C244.211884,165.928497 245.287262,166.598907 246.402725,166.685104 
	C247.036896,166.734100 247.886887,166.278915 248.321075,165.775803 
	C248.585022,165.469971 248.362289,164.171417 248.152847,164.117569 
	C245.843994,163.524033 243.288635,162.305710 241.220566,162.851105 
	C239.509781,163.302292 237.363373,165.824036 237.256210,167.543442 
	C237.157196,169.132309 239.310593,171.095871 240.845612,172.480057 
	C242.134460,173.642258 243.961472,174.207657 245.550201,175.037292 
	C245.355255,175.677719 245.160294,176.318146 244.965332,176.958572 
	C243.122849,176.623459 241.290497,176.187195 239.433075,176.000977 
	C238.645325,175.921997 237.804947,176.367737 236.988495,176.574997 
	C237.349731,177.354202 237.621185,178.744766 238.086807,178.813156 
	C241.051788,179.248596 244.059570,179.392548 247.634796,179.175156 
M465.752411,170.344269 
	C465.750610,166.354477 465.876923,162.357483 465.653259,158.380173 
	C465.600037,157.433624 464.376099,156.552933 463.690613,155.641968 
	C462.881622,156.425491 461.393738,157.190323 461.371552,157.995529 
	C461.202271,164.139297 461.274170,170.291824 461.394836,176.439194 
	C461.412964,177.360153 461.902588,178.910553 462.473694,179.065491 
	C464.398407,179.587677 466.458282,179.611694 468.466461,179.826218 
	C467.891541,178.524612 467.196533,177.260620 466.773865,175.911316 
	C466.303864,174.410934 466.082031,172.832809 465.752411,170.344269 
M360.062714,87.276192 
	C363.797638,87.911743 367.056793,86.821495 367.607941,82.945778 
	C367.863739,81.147186 366.133118,78.127838 364.453461,77.200363 
	C361.542389,75.592934 357.918518,76.243736 356.371185,79.560066 
	C354.963013,82.578110 355.421509,85.776367 360.062714,87.276192 
M341.445831,168.120041 
	C343.398499,166.795578 347.357056,166.771637 345.218689,162.642609 
	C343.333557,163.005371 341.324310,164.071274 340.067932,163.495224 
	C337.280273,162.217056 336.260376,162.331879 336.145203,165.378876 
	C335.995239,169.346588 335.989105,173.330688 336.198761,177.293045 
	C336.248962,178.241684 337.396667,179.132278 338.039581,180.049545 
	C338.756622,179.055099 339.903809,178.140442 340.105988,177.050491 
	C340.610443,174.330734 340.685394,171.531311 341.445831,168.120041 
z"/>
<path fill="#091629" opacity="1.000000" stroke="none" 
	d="
M130.146667,127.128494 
	C139.472656,116.408791 147.654678,105.382698 152.014343,91.998016 
	C152.577866,90.267921 153.047562,88.488625 153.355072,86.696815 
	C155.306427,75.326874 150.196106,68.865761 138.622269,68.093193 
	C136.331161,67.940254 134.021103,68.071152 131.633255,67.667969 
	C141.800385,62.093300 152.139832,57.135590 164.188965,57.905949 
	C172.080902,58.410526 176.635880,63.528885 177.002060,72.234917 
	C177.513901,84.403442 172.846848,95.188507 166.432205,104.889763 
	C158.117218,117.464973 148.880356,129.464203 139.553833,141.328918 
	C126.204323,158.311447 112.414635,174.947937 98.619469,191.970917 
	C93.509392,185.613098 88.482887,179.359253 83.750671,173.471558 
	C75.622795,176.438431 67.862694,179.922791 59.751053,182.093430 
	C43.903515,186.334167 36.800854,179.315704 39.960274,163.191208 
	C40.419388,160.848083 41.225838,158.572998 42.901833,156.429840 
	C42.811264,158.273300 42.692524,160.115875 42.634941,161.960373 
	C42.366360,170.563034 47.397045,175.850143 55.877129,174.594376 
	C61.855194,173.709106 67.985306,171.981125 73.368446,169.277359 
	C94.599251,158.613922 113.984406,145.297867 130.146667,127.128494 
z"/>
<path fill="#1CC091" opacity="1.000000" stroke="none" 
	d="
M84.020081,83.789581 
	C70.085732,91.727745 63.691875,105.608116 67.016541,120.125168 
	C70.637589,135.936371 82.215889,143.998657 104.656471,145.439743 
	C94.591408,151.886307 85.488014,157.716919 76.031456,163.773743 
	C65.232635,150.195801 53.268250,138.283875 49.678131,120.916336 
	C45.696545,101.655014 56.051155,79.377792 74.599312,68.406998 
	C91.590637,58.357029 115.480209,60.636776 130.142639,73.614731 
	C136.607239,79.336647 141.648483,86.046692 144.651932,94.146629 
	C145.196350,95.614845 145.290192,97.827621 144.555389,99.096191 
	C140.650879,105.836838 136.416061,112.386124 131.563370,119.052193 
	C132.365540,102.521774 126.615501,89.835838 111.386650,82.935005 
	C102.474274,78.896446 93.267723,79.324738 84.020081,83.789581 
z"/>
<path fill="#0C192C" opacity="1.000000" stroke="none" 
	d="
M239.053253,86.083618 
	C243.330429,78.816330 251.011108,76.787926 257.959900,80.939377 
	C250.073898,93.823753 255.936676,107.775902 255.125717,121.251495 
	C254.996460,123.399330 257.492218,125.705147 258.785156,127.956642 
	C255.890823,129.904724 245.944366,130.238815 243.625763,128.003311 
	C242.837830,127.243614 242.820511,125.466599 242.811554,124.151985 
	C242.747833,114.808220 242.777618,105.463806 242.777618,96.119606 
	C242.313904,96.000984 241.850189,95.882370 241.386490,95.763748 
	C239.236755,101.155403 237.139023,106.568550 234.920853,111.931900 
	C233.147751,116.219086 231.473953,120.580490 229.251862,124.632431 
	C228.369370,126.241653 226.165863,127.954803 224.491348,128.031097 
	C223.222260,128.088928 221.304199,125.862328 220.594742,124.248039 
	C216.791245,115.593552 213.287903,106.807419 209.643188,98.082497 
	C209.280731,97.214851 208.663864,96.453476 207.153122,95.690971 
	C206.948456,98.540474 206.538788,101.393005 206.580917,104.238853 
	C206.674545,110.564018 206.850586,116.895256 207.263611,123.206306 
	C207.655930,129.200546 206.947540,130.170837 200.873718,129.933441 
	C198.964264,129.858795 197.073044,129.317886 195.014420,128.962952 
	C201.504639,116.699341 199.230026,103.868576 199.633865,91.413834 
	C199.717743,88.826767 198.042740,86.035408 196.720627,83.585182 
	C194.826172,80.074219 196.681137,78.787277 199.579208,78.663567 
	C205.597183,78.406693 212.074829,79.438332 215.477234,87.203659 
	C218.535828,94.184265 221.732483,101.104576 224.899353,108.037270 
	C225.231583,108.764603 225.774155,109.395859 226.807892,110.965843 
	C231.052872,102.366531 234.987000,94.396935 239.053253,86.083618 
z"/>
<path fill="#1CC091" opacity="1.000000" stroke="none" 
	d="
M108.491249,122.405640 
	C108.164474,123.949600 108.211998,125.125519 108.060516,126.275215 
	C107.623390,129.592957 107.876862,135.312164 106.475906,135.759857 
	C102.248474,137.110809 97.348228,136.652069 92.752937,136.315948 
	C91.791382,136.245621 90.441071,133.746872 90.266418,132.250839 
	C89.886528,128.996765 90.149162,125.667702 90.149162,121.743919 
	C86.624710,121.743919 83.513435,121.639793 80.412178,121.771484 
	C76.894432,121.920853 74.932884,120.585930 75.270866,116.865143 
	C75.652382,112.664986 74.659599,106.827225 76.990059,104.729248 
	C79.473442,102.493599 85.144737,103.799141 90.146172,103.518059 
	C90.146172,100.207123 90.215408,96.941193 90.126610,93.679565 
	C90.038544,90.444550 91.131790,88.922874 94.733673,88.846733 
	C107.600082,88.574799 107.594673,88.456169 108.097763,101.230988 
	C108.123032,101.872528 108.272354,102.509193 108.462105,103.833351 
	C111.597015,103.833351 114.711952,103.997261 117.802208,103.791153 
	C121.524521,103.542900 123.160980,104.660973 123.167999,108.788002 
	C123.189445,121.408875 123.348328,121.405319 110.745216,121.762306 
	C110.086395,121.780960 109.431419,121.934746 108.491249,122.405640 
z"/>
<path fill="#0B182B" opacity="1.000000" stroke="none" 
	d="
M317.787659,131.440964 
	C308.147247,127.529716 304.332520,120.234978 306.073914,109.626633 
	C307.577118,100.469719 313.776520,95.102058 323.527466,94.275604 
	C325.955231,94.069839 328.336212,93.311646 330.738678,92.807365 
	C329.871399,89.056885 329.103149,85.278786 328.070404,81.574425 
	C327.796417,80.591629 326.709503,79.835480 324.947784,77.712074 
	C329.713898,76.823608 333.444519,75.774590 337.227051,75.530762 
	C340.470093,75.321709 341.090851,77.900177 341.098236,80.702133 
	C341.125397,91.030922 341.079956,101.364525 341.397308,111.686005 
	C341.559814,116.971397 340.085907,122.870949 345.506897,126.886551 
	C345.747345,127.064644 344.889893,129.754913 344.296143,129.858765 
	C340.922089,130.448975 336.975220,131.784866 334.179932,130.603455 
	C330.987854,129.254364 328.820007,129.792923 325.984894,130.654282 
	C323.512726,131.405365 320.780457,131.300369 317.787659,131.440964 
M330.160095,104.610336 
	C328.567780,102.772476 327.204529,99.780258 325.321686,99.406685 
	C323.250977,98.995857 320.068054,100.392105 318.484955,102.059776 
	C314.321869,106.445267 314.290527,118.807861 318.506165,123.039055 
	C320.192108,124.731247 323.619171,125.930504 325.845551,125.452599 
	C327.651337,125.064980 329.836731,121.961555 330.111023,119.837593 
	C330.720551,115.117493 330.237335,110.256287 330.160095,104.610336 
z"/>
<path fill="#101C30" opacity="1.000000" stroke="none" 
	d="
M462.291779,102.273216 
	C460.996765,100.465683 459.919586,99.005928 458.852173,97.559387 
	C463.395996,93.438278 468.608643,93.073006 473.023895,96.042221 
	C474.032990,96.720802 475.946411,96.415840 477.333710,96.092293 
	C479.881622,95.498077 482.302277,94.097443 484.856842,93.842033 
	C492.028656,93.124969 496.247772,96.662781 496.932220,103.885574 
	C497.418030,109.011749 497.201782,114.210564 497.809204,119.316231 
	C498.068146,121.492271 499.244476,123.841507 500.685852,125.529861 
	C502.978149,128.214966 502.650635,129.600616 499.293427,130.227814 
	C497.183990,130.621918 495.022003,130.888626 492.879089,130.921890 
	C485.162079,131.041733 485.312775,130.468643 486.553162,123.107162 
	C487.558350,117.141212 487.160797,110.825577 486.487183,104.764885 
	C486.304840,103.124344 482.970093,100.848686 480.889862,100.620796 
	C477.176849,100.214005 474.288818,102.921265 474.218597,106.570564 
	C474.101654,112.649170 474.419525,118.828827 475.458344,124.808891 
	C476.358002,129.987991 476.528259,130.522446 471.101807,130.707214 
	C468.122284,130.808655 465.095642,130.809845 462.153839,130.399887 
	C458.742889,129.924530 457.849609,128.438202 460.508942,125.434937 
	C461.892975,123.871902 463.075897,121.524933 463.125519,119.502045 
	C463.263275,113.883438 462.759796,108.249107 462.291779,102.273216 
z"/>
<path fill="#0C192C" opacity="1.000000" stroke="none" 
	d="
M507.977051,98.517693 
	C509.524078,94.316040 517.214233,92.573143 520.639709,95.313622 
	C521.386902,95.911385 521.851318,96.862587 521.916931,96.949577 
	C526.974487,95.768997 531.191467,94.180962 535.485229,93.935532 
	C540.823792,93.630379 544.271790,96.751801 544.981384,102.097305 
	C545.699707,107.508194 545.431885,113.049171 546.134094,118.463371 
	C546.464050,121.007698 548.026978,123.401131 549.091187,125.836746 
	C549.510620,126.796867 550.705322,127.944450 550.451965,128.543381 
	C550.110901,129.349518 548.770996,129.943527 547.751343,130.203598 
	C546.157776,130.610046 544.478088,130.773636 542.826660,130.842499 
	C533.606628,131.226974 533.660461,130.893417 535.297180,122.017181 
	C536.184875,117.202965 535.739014,112.097549 535.520569,107.139969 
	C535.365051,103.610634 533.975281,100.268539 529.759766,100.362312 
	C525.373657,100.459877 522.443787,103.325745 522.423157,107.615517 
	C522.395630,113.356422 523.234253,119.107368 523.824829,124.841240 
	C523.971680,126.266533 524.594543,127.642807 525.317566,130.145981 
	C519.640747,130.145981 514.487183,130.228943 509.351227,129.966812 
	C508.993469,129.948547 508.134491,126.426048 508.578094,126.128708 
	C512.320496,123.620354 512.074219,119.940292 511.887238,116.290848 
	C511.580322,110.300232 513.458740,103.816025 507.977051,98.517693 
z"/>
<path fill="#0D1A2D" opacity="1.000000" stroke="none" 
	d="
M418.339661,123.489357 
	C414.465942,115.381912 414.312866,107.574883 419.403351,100.501511 
	C423.746216,94.467026 430.245056,92.520103 437.540222,93.601845 
	C447.988434,95.151154 454.342072,104.018539 452.942413,114.931084 
	C451.602386,125.378815 442.523041,132.686111 432.322906,131.615646 
	C426.564209,131.011276 421.812836,128.741837 418.339661,123.489357 
M430.528015,125.471481 
	C435.655182,127.219078 438.734955,126.157066 440.411255,121.474319 
	C442.668488,115.168793 442.548218,108.672768 439.450562,102.739304 
	C438.424164,100.773285 435.430603,98.693375 433.371613,98.728462 
	C431.316467,98.763466 428.195526,100.974174 427.471588,102.941254 
	C424.691589,110.494675 424.358643,118.131096 430.528015,125.471481 
z"/>
<path fill="#0D1A2D" opacity="1.000000" stroke="none" 
	d="
M555.611450,109.584816 
	C558.125488,95.387428 573.826904,88.450394 583.854858,96.772774 
	C585.345520,98.009911 586.727295,99.588211 587.627625,101.290047 
	C591.366394,108.357132 589.115723,112.340622 581.136658,112.923355 
	C577.493835,113.189407 573.831970,113.187241 570.180237,113.341362 
	C566.796143,113.484184 565.954346,115.257370 566.838989,118.362854 
	C568.125183,122.878403 572.653992,125.612358 578.255615,124.889236 
	C580.379456,124.615067 582.432678,123.814491 584.554443,123.495514 
	C585.552612,123.345451 586.636719,123.766777 587.681885,123.929176 
	C587.158936,125.183456 586.971497,126.806053 586.061279,127.635300 
	C576.545898,136.304337 558.787659,130.869812 555.979797,118.393845 
	C555.373962,115.702332 555.676453,112.806412 555.611450,109.584816 
M577.489258,108.480072 
	C581.405090,106.844856 579.874084,103.581665 578.401367,101.992096 
	C576.808228,100.272644 573.534424,98.688927 571.448242,99.141510 
	C567.004333,100.105598 565.615540,103.883011 566.241272,108.662491 
	C569.829895,108.662491 573.252686,108.662491 577.489258,108.480072 
z"/>
<path fill="#0D192D" opacity="1.000000" stroke="none" 
	d="
M276.816345,116.675461 
	C278.412689,123.008224 283.053314,125.955620 289.251251,124.856651 
	C291.036774,124.540062 292.751404,123.762199 294.540558,123.550026 
	C295.650787,123.418381 296.839996,123.952942 297.993774,124.188477 
	C297.508698,125.329308 297.324860,126.799683 296.492462,127.560532 
	C287.088654,136.156006 269.873657,131.217484 266.372437,118.994881 
	C262.002563,103.739883 272.996826,90.935135 288.046631,94.081696 
	C290.908508,94.680038 294.383972,96.402954 295.832916,98.704536 
	C297.781708,101.800140 299.006378,106.084999 298.557617,109.606522 
	C298.370178,111.077179 293.160370,112.314415 290.089539,112.902046 
	C286.696228,113.551376 283.109009,113.132904 279.667114,113.614655 
	C278.595093,113.764709 277.721130,115.329948 276.816345,116.675461 
M282.028015,98.743111 
	C277.933380,99.947304 276.057434,103.199608 276.507477,106.901344 
	C276.622955,107.851173 281.321472,108.265945 283.927582,108.870010 
	C284.384003,108.975807 284.906158,108.805000 285.397125,108.753944 
	C290.061707,108.268784 291.540924,105.701080 288.744995,101.949295 
	C287.480194,100.252113 284.772064,99.630531 282.028015,98.743111 
z"/>
<path fill="#0E1B2E" opacity="1.000000" stroke="none" 
	d="
M637.170654,93.053207 
	C638.445007,90.509277 639.230591,88.078232 640.653687,86.107605 
	C641.466064,84.982689 643.347534,84.017738 644.691406,84.086098 
	C645.732605,84.139061 647.386902,85.803368 647.552917,86.930504 
	C648.137024,90.894463 650.205017,93.107628 653.931396,94.299706 
	C654.955933,94.627480 655.632324,96.043930 656.468445,96.960838 
	C655.649597,97.662575 654.929993,98.768982 653.995239,98.998337 
	C649.069519,100.206978 647.373840,103.406914 647.701294,108.186478 
	C647.870911,110.662094 647.641479,113.164108 647.790771,115.642242 
	C648.221680,122.791870 648.266907,122.757423 655.621765,124.059090 
	C656.473755,124.209869 657.888733,124.972054 657.878906,125.425568 
	C657.857178,126.427422 657.362854,127.799278 656.587158,128.340378 
	C652.732422,131.029434 648.378540,132.052658 643.872742,130.473511 
	C639.598450,128.975510 638.096008,125.347855 637.853455,121.074791 
	C637.627686,117.097870 637.683716,113.073250 637.055054,109.159668 
	C636.403015,105.099899 635.077942,101.148216 634.047180,97.149254 
	C633.535339,97.086876 633.023499,97.024498 632.511658,96.962120 
	C633.990723,95.761078 635.469849,94.560036 637.170654,93.053207 
z"/>
<path fill="#0D192D" opacity="1.000000" stroke="none" 
	d="
M388.044373,110.175369 
	C387.902954,116.193817 388.672974,122.053452 394.642151,123.763451 
	C399.226715,125.076805 404.488861,124.024971 410.131531,124.024971 
	C409.158966,125.337158 408.424225,126.970024 407.170380,127.911545 
	C401.006744,132.539810 390.955811,132.594528 384.690552,128.234634 
	C378.638824,124.023331 375.920044,114.887505 378.262573,106.635086 
	C380.338623,99.321434 387.280304,93.871552 395.377380,93.805443 
	C398.965027,93.776154 402.692078,94.350952 406.118927,95.414742 
	C410.089844,96.647408 409.887146,100.154160 408.634552,103.263382 
	C408.277222,104.150368 406.302185,104.679642 405.019135,104.789177 
	C404.252197,104.854660 403.454346,103.626755 402.556335,103.257874 
	C399.519318,102.010345 396.119141,99.456741 393.434357,100.042961 
	C389.151001,100.978218 388.240692,105.568329 388.044373,110.175369 
z"/>
<path fill="#0E1B2E" opacity="1.000000" stroke="none" 
	d="
M621.460571,129.550110 
	C613.163879,132.888992 604.976074,131.558807 599.875916,126.284477 
	C594.959656,121.200272 593.564697,111.920235 596.645752,104.795677 
	C599.877747,97.322205 606.245605,93.360291 614.942566,93.790596 
	C617.877441,93.935799 620.990662,94.347992 623.609680,95.542862 
	C625.157410,96.249008 626.401611,98.610359 626.825256,100.448013 
	C627.115723,101.707977 625.819519,104.546799 625.127258,104.581535 
	C623.392517,104.668571 621.422485,103.844223 619.865356,102.874214 
	C616.968933,101.069962 614.027222,97.464951 610.722473,100.175484 
	C608.254395,102.199745 606.633606,106.011032 605.994629,109.291275 
	C605.401367,112.337502 606.002014,115.971390 607.157227,118.923866 
	C609.124756,123.952637 613.749573,125.804596 619.016357,124.534058 
	C621.513977,123.931534 623.997253,123.269226 626.707581,122.577728 
	C627.730774,127.534431 624.168457,127.965355 621.460571,129.550110 
z"/>
<path fill="#0B172B" opacity="1.000000" stroke="none" 
	d="
M367.085968,105.036133 
	C367.091888,108.181404 366.721191,110.904366 367.181671,113.478653 
	C368.157043,118.931480 369.565979,124.306763 370.913483,130.224823 
	C365.464844,130.224823 358.916321,130.224823 351.801971,130.224823 
	C358.326172,118.783669 360.492706,107.923767 351.070251,95.836571 
	C356.255127,95.187828 360.642822,94.518730 365.055359,94.230217 
	C365.643921,94.191742 366.796448,96.028008 366.926666,97.089447 
	C367.227814,99.544685 367.062225,102.057175 367.085968,105.036133 
z"/>
<path fill="#0A172B" opacity="1.000000" stroke="none" 
	d="
M160.605774,31.417311 
	C166.684143,33.405766 169.178055,36.438877 169.065720,41.322723 
	C168.963196,45.780266 165.913773,49.728104 161.564865,50.671520 
	C156.992996,51.663307 153.365082,49.974220 150.963943,46.035736 
	C146.873215,39.325882 151.415970,32.196857 160.605774,31.417311 
z"/>
<path fill="#627491" opacity="1.000000" stroke="none" 
	d="
M212.294739,171.187027 
	C209.696304,179.352112 206.311356,180.976303 194.865295,179.722534 
	C194.865295,172.047806 194.865295,164.341293 194.865295,156.708511 
	C205.758087,154.525314 213.769638,158.341751 212.294739,171.187027 
M205.532516,161.623047 
	C203.542480,161.177902 201.552429,160.732758 199.145599,160.194366 
	C199.145599,165.857574 199.145599,170.728775 199.145599,177.122849 
	C202.320847,175.555862 205.559937,174.966644 206.969040,173.039398 
	C209.449188,169.647324 208.965866,165.585526 205.532516,161.623047 
z"/>
<path fill="#617491" opacity="1.000000" stroke="none" 
	d="
M364.887787,171.736633 
	C365.155548,174.616226 365.423218,177.028534 365.664673,179.204544 
	C362.077515,179.609268 358.628876,180.773804 355.591125,180.096207 
	C353.153076,179.552353 350.287659,177.188751 349.262451,174.894943 
	C347.594971,171.164047 348.188263,166.938324 351.566620,163.941666 
	C353.940948,161.835602 356.651306,161.893051 359.250763,163.854294 
	C359.590729,164.110794 360.096008,164.148163 360.925812,164.416931 
	C360.925812,161.551544 360.925812,158.958694 360.925812,156.365860 
	C361.387482,156.070923 361.849152,155.775970 362.310822,155.481033 
	C363.168549,156.589294 364.680511,157.649506 364.766083,158.814514 
	C365.069672,162.946777 364.886475,167.114838 364.887787,171.736633 
M360.596161,169.212067 
	C359.021393,168.266693 357.526245,166.889740 355.834625,166.577667 
	C355.106781,166.443375 353.238739,168.480515 353.183502,169.595337 
	C353.086670,171.549072 353.704987,173.697983 354.612640,175.462128 
	C354.969116,176.154968 357.756256,176.561630 357.985413,176.194000 
	C359.181274,174.275665 359.910309,172.066315 360.596161,169.212067 
z"/>
<path fill="#5C708E" opacity="1.000000" stroke="none" 
	d="
M279.014587,158.948273 
	C279.016296,161.037292 279.016296,162.685776 279.016296,164.436325 
	C284.143097,161.583176 287.367523,162.006073 289.710419,165.708755 
	C292.371735,169.914658 291.306122,176.764694 287.417664,179.185730 
	C286.250000,179.912766 284.629486,180.277206 283.244720,180.211456 
	C280.717529,180.091476 278.211456,179.526321 275.242981,179.078430 
	C275.242981,172.025757 275.242981,164.287216 275.242981,156.548676 
	C275.558289,156.207458 275.873627,155.866241 276.188934,155.525024 
	C277.130249,156.519257 278.071533,157.513504 279.014587,158.948273 
M279.302246,169.209183 
	C279.199219,169.852325 278.808167,170.638565 279.044067,171.113297 
	C279.962585,172.961960 281.079956,174.711807 282.123352,176.498413 
	C283.629913,175.515656 286.240234,174.685394 286.401672,173.516785 
	C286.692444,171.412567 285.515839,169.105606 284.952209,166.883347 
	C283.216583,167.440582 281.480957,167.997833 279.302246,169.209183 
z"/>
<path fill="#617491" opacity="1.000000" stroke="none" 
	d="
M254.514435,159.407867 
	C255.223328,157.920074 255.930511,156.884872 256.637695,155.849686 
	C257.352051,156.887497 258.433533,157.842270 258.691620,158.983292 
	C259.047211,160.555389 258.780731,162.268204 258.780731,164.444687 
	C260.095673,163.829041 260.996216,163.309555 261.960541,162.972946 
	C265.979858,161.570053 268.628113,163.037643 268.939148,167.246750 
	C269.242188,171.347839 269.005005,175.488861 269.005005,179.612350 
	C268.533295,179.893692 268.061615,180.175049 267.589905,180.456390 
	C266.739105,179.349350 265.366852,178.334824 265.150482,177.115219 
	C264.749756,174.856506 265.322418,172.422928 264.906158,170.169983 
	C264.661133,168.843811 263.293335,167.725082 262.430542,166.513046 
	C261.270599,167.564789 259.411346,168.444656 259.101501,169.705338 
	C258.520905,172.067627 259.118042,174.702988 258.665314,177.119858 
	C258.430328,178.374176 256.998474,179.404266 256.107300,180.535645 
	C255.575775,180.254837 255.044250,179.974030 254.512741,179.693237 
	C254.512741,173.082306 254.512741,166.471390 254.514435,159.407867 
z"/>
<path fill="#5E718F" opacity="1.000000" stroke="none" 
	d="
M387.227386,172.216461 
	C386.229218,173.921280 385.829895,175.688339 385.032013,177.252014 
	C384.422058,178.447266 383.307800,179.385208 382.417877,180.437607 
	C382.009186,180.152298 381.600525,179.866974 381.191833,179.581650 
	C381.191833,172.013596 381.191833,164.445557 381.191833,156.917313 
	C390.796906,154.871750 395.739838,157.055969 396.549377,163.579910 
	C397.183594,168.691040 393.993164,171.779877 387.227386,172.216461 
M386.643219,160.297256 
	C385.966339,162.698608 385.289459,165.099976 384.518127,167.836533 
	C388.376099,167.950729 391.658325,169.236465 392.250671,164.911057 
	C392.726471,161.436417 390.713623,160.108398 386.643219,160.297256 
z"/>
<path fill="#667895" opacity="1.000000" stroke="none" 
	d="
M230.490631,165.751343 
	C231.287506,170.619186 231.866409,175.161682 232.602036,180.933929 
	C228.580582,178.565796 225.404282,179.550812 222.036270,180.215500 
	C220.692352,180.480698 217.618912,177.890945 217.376266,176.290924 
	C217.090637,174.407532 218.529694,171.568680 220.134094,170.289719 
	C221.706223,169.036484 224.425812,169.222656 227.142593,168.676392 
	C226.045959,165.011780 223.561462,165.718918 220.976715,166.247787 
	C220.141586,166.418671 219.157196,165.860077 218.241089,165.635162 
	C218.851639,164.807526 219.297226,163.518295 220.100937,163.231033 
	C223.867065,161.884872 227.598145,161.413681 230.490631,165.751343 
M225.395523,172.024445 
	C223.937012,173.052139 222.478516,174.079849 221.020020,175.107559 
	C222.184097,175.695587 223.513077,176.967758 224.479263,176.734848 
	C226.770279,176.182556 228.275009,174.694824 225.395523,172.024445 
z"/>
<path fill="#637692" opacity="1.000000" stroke="none" 
	d="
M451.161011,180.039993 
	C444.299316,180.452499 441.169037,178.091049 440.385529,172.271759 
	C439.771271,167.709427 442.540222,163.681229 446.997467,162.652908 
	C452.426361,161.400421 455.812042,164.715424 456.712616,172.829056 
	C452.869598,172.829056 449.059296,172.829056 445.248962,172.829056 
	C445.071075,173.445053 444.893158,174.061050 444.715271,174.677048 
	C446.334076,175.403427 447.929871,176.639511 449.578094,176.713867 
	C451.249756,176.789307 452.973145,175.717316 454.673889,175.147858 
	C454.932007,175.684296 455.190125,176.220734 455.448273,176.757172 
	C454.138519,177.821274 452.828766,178.885376 451.161011,180.039993 
M449.361481,165.880447 
	C447.791870,166.707397 446.222260,167.534348 444.652618,168.361313 
	C444.906586,168.766937 445.160553,169.172562 445.414520,169.578186 
	C447.594330,169.578186 449.774109,169.578186 453.035034,169.578186 
	C451.674530,167.913589 450.925873,166.997635 449.361481,165.880447 
z"/>
<path fill="#617491" opacity="1.000000" stroke="none" 
	d="
M430.999786,168.391052 
	C427.514008,165.354584 425.730347,167.038086 425.109955,170.411362 
	C424.696075,172.661865 425.245331,175.086639 424.854919,177.345520 
	C424.650818,178.526489 423.348846,179.517746 422.542755,180.594681 
	C422.097382,180.339539 421.652008,180.084412 421.206635,179.829285 
	C421.206635,174.266449 421.206635,168.703613 421.206635,163.414856 
	C424.246948,163.034256 427.300232,162.031387 430.093384,162.518936 
	C431.979218,162.848099 434.656250,165.080521 434.951172,166.807877 
	C435.661987,170.970932 435.181580,175.337402 435.181580,179.604904 
	C432.215607,180.780045 431.072937,179.793304 431.187958,176.794006 
	C431.289490,174.146027 431.143372,171.488556 430.999786,168.391052 
z"/>
<path fill="#637692" opacity="1.000000" stroke="none" 
	d="
M304.720825,180.143951 
	C300.073700,180.531738 296.651306,178.648819 296.178314,174.613678 
	C295.796204,171.353775 296.501526,167.153091 298.427307,164.714539 
	C299.768829,163.015869 304.814667,162.283539 306.722290,163.481583 
	C309.166534,165.016586 311.135986,168.813431 311.464264,171.836136 
	C311.888519,175.741943 309.672302,179.196167 304.720825,180.143951 
M299.730377,170.753616 
	C300.883728,172.621933 302.037079,174.490250 303.190460,176.358536 
	C304.523834,175.204926 306.943848,174.060059 306.953217,172.895798 
	C306.970184,170.791733 305.547180,168.676086 304.725464,166.565262 
	C303.081848,167.682999 301.438263,168.800735 299.730377,170.753616 
z"/>
<path fill="#637592" opacity="1.000000" stroke="none" 
	d="
M410.409851,168.607651 
	C408.906342,162.929993 405.197937,166.936615 401.530212,166.744247 
	C402.071838,165.525421 402.226593,164.223434 402.943085,163.718491 
	C407.870697,160.245789 414.109772,163.041412 414.804230,169.001770 
	C415.215637,172.532440 415.396729,176.089966 415.653992,179.294098 
	C412.039307,179.630051 408.709412,180.307144 405.440338,180.085861 
	C403.843414,179.977768 401.489685,178.476212 401.047821,177.101089 
	C400.509888,175.427109 400.973785,172.439117 402.181213,171.435928 
	C403.865204,170.036789 406.639191,169.949600 409.473877,169.443665 
	C410.137268,169.260132 410.273560,168.933884 410.409851,168.607651 
M407.591797,171.939575 
	C406.487701,172.874481 405.383606,173.809402 404.279541,174.744324 
	C405.207275,175.499481 406.207275,176.936630 407.045593,176.847794 
	C408.261993,176.718918 409.361633,175.488052 410.511078,174.727188 
	C409.796570,173.797592 409.082092,172.867981 407.591797,171.939575 
z"/>
<path fill="#637692" opacity="1.000000" stroke="none" 
	d="
M318.245178,166.799622 
	C317.822113,165.798904 317.654327,164.038834 317.777679,164.018204 
	C320.600708,163.545715 323.683380,162.481125 326.223724,163.221512 
	C327.898987,163.709778 329.441925,166.705399 329.908447,168.827957 
	C330.696228,172.412094 330.583527,176.194183 330.799469,179.197433 
	C327.537506,179.610611 324.579742,180.528412 321.793640,180.157303 
	C319.756287,179.885971 316.840271,178.258255 316.336578,176.615540 
	C315.810669,174.900406 317.141602,171.735001 318.692810,170.502365 
	C320.370148,169.169464 323.240936,169.338455 326.109833,168.745117 
	C324.422394,164.311096 321.446136,165.864395 318.245178,166.799622 
M320.371979,172.971481 
	C319.268768,175.307709 319.773956,177.157532 322.539398,176.815430 
	C323.806061,176.658737 324.854340,174.736603 326.001648,173.615097 
	C324.348389,173.231400 322.695099,172.847717 320.371979,172.971481 
z"/>
<path fill="#657794" opacity="1.000000" stroke="none" 
	d="
M247.344025,179.403839 
	C244.059570,179.392548 241.051788,179.248596 238.086807,178.813156 
	C237.621185,178.744766 237.349731,177.354202 236.988495,176.574997 
	C237.804947,176.367737 238.645325,175.921997 239.433075,176.000977 
	C241.290497,176.187195 243.122849,176.623459 244.965332,176.958572 
	C245.160294,176.318146 245.355255,175.677719 245.550201,175.037292 
	C243.961472,174.207657 242.134460,173.642258 240.845612,172.480057 
	C239.310593,171.095871 237.157196,169.132309 237.256210,167.543442 
	C237.363373,165.824036 239.509781,163.302292 241.220566,162.851105 
	C243.288635,162.305710 245.843994,163.524033 248.152847,164.117569 
	C248.362289,164.171417 248.585022,165.469971 248.321075,165.775803 
	C247.886887,166.278915 247.036896,166.734100 246.402725,166.685104 
	C245.287262,166.598907 244.211884,165.928497 243.101074,165.872498 
	C242.449814,165.839676 241.762527,166.521530 241.091446,166.881912 
	C241.525375,167.638306 241.793823,168.619095 242.436188,169.092880 
	C243.196136,169.653397 244.289520,169.747543 245.219788,170.093781 
	C250.166565,171.934860 250.857697,174.550003 247.344025,179.403839 
z"/>
<path fill="#72839D" opacity="1.000000" stroke="none" 
	d="
M465.752289,170.816406 
	C466.082031,172.832809 466.303864,174.410934 466.773865,175.911316 
	C467.196533,177.260620 467.891541,178.524612 468.466461,179.826233 
	C466.458282,179.611694 464.398407,179.587677 462.473694,179.065491 
	C461.902588,178.910553 461.412964,177.360153 461.394836,176.439194 
	C461.274170,170.291824 461.202271,164.139297 461.371552,157.995529 
	C461.393738,157.190323 462.881622,156.425491 463.690613,155.641968 
	C464.376099,156.552933 465.600037,157.433624 465.653259,158.380173 
	C465.876923,162.357483 465.750610,166.354477 465.752289,170.816406 
z"/>
<path fill="#0F1C2F" opacity="1.000000" stroke="none" 
	d="
M359.700684,87.221565 
	C355.421509,85.776367 354.963013,82.578110 356.371185,79.560066 
	C357.918518,76.243736 361.542389,75.592934 364.453461,77.200363 
	C366.133118,78.127838 367.863739,81.147186 367.607941,82.945778 
	C367.056793,86.821495 363.797638,87.911743 359.700684,87.221565 
z"/>
<path fill="#637692" opacity="1.000000" stroke="none" 
	d="
M341.189270,168.441956 
	C340.685394,171.531311 340.610443,174.330734 340.105988,177.050491 
	C339.903809,178.140442 338.756622,179.055099 338.039612,180.049561 
	C337.396667,179.132278 336.248962,178.241684 336.198761,177.293045 
	C335.989105,173.330688 335.995239,169.346588 336.145203,165.378876 
	C336.260376,162.331879 337.280273,162.217056 340.067932,163.495224 
	C341.324310,164.071274 343.333557,163.005371 345.218689,162.642609 
	C347.357056,166.771637 343.398499,166.795578 341.189270,168.441956 
z"/>
<path fill="#F1F3F7" opacity="1.000000" stroke="none" 
	d="
M330.179810,105.031464 
	C330.237335,110.256287 330.720551,115.117493 330.111023,119.837593 
	C329.836731,121.961555 327.651337,125.064980 325.845551,125.452599 
	C323.619171,125.930504 320.192108,124.731247 318.506165,123.039055 
	C314.290527,118.807861 314.321869,106.445267 318.484955,102.059776 
	C320.068054,100.392105 323.250977,98.995857 325.321686,99.406685 
	C327.204529,99.780258 328.567780,102.772476 330.179810,105.031464 
z"/>
<path fill="#F6F8FB" opacity="1.000000" stroke="none" 
	d="
M430.233704,125.191414 
	C424.358643,118.131096 424.691589,110.494675 427.471588,102.941254 
	C428.195526,100.974174 431.316467,98.763466 433.371613,98.728462 
	C435.430603,98.693375 438.424164,100.773285 439.450562,102.739304 
	C442.548218,108.672768 442.668488,115.168793 440.411255,121.474319 
	C438.734955,126.157066 435.655182,127.219078 430.233704,125.191414 
z"/>
<path fill="#EBEEF2" opacity="1.000000" stroke="none" 
	d="
M577.082336,108.571281 
	C573.252686,108.662491 569.829895,108.662491 566.241272,108.662491 
	C565.615540,103.883011 567.004333,100.105598 571.448242,99.141510 
	C573.534424,98.688927 576.808228,100.272644 578.401367,101.992096 
	C579.874084,103.581665 581.405090,106.844856 577.082336,108.571281 
z"/>
<path fill="#ECEFF3" opacity="1.000000" stroke="none" 
	d="
M282.373383,98.632050 
	C284.772064,99.630531 287.480194,100.252113 288.744995,101.949295 
	C291.540924,105.701080 290.061707,108.268784 285.397125,108.753944 
	C284.906158,108.805000 284.384003,108.975807 283.927582,108.870010 
	C281.321472,108.265945 276.622955,107.851173 276.507477,106.901344 
	C276.057434,103.199608 277.933380,99.947304 282.373383,98.632050 
z"/>
<path fill="#F6F9FC" opacity="1.000000" stroke="none" 
	d="
M205.897339,161.852264 
	C208.965866,165.585526 209.449188,169.647324 206.969040,173.039398 
	C205.559937,174.966644 202.320847,175.555862 199.145599,177.122849 
	C199.145599,170.728775 199.145599,165.857574 199.145599,160.194366 
	C201.552429,160.732758 203.542480,161.177902 205.897339,161.852264 
z"/>
<path fill="#ECF0F5" opacity="1.000000" stroke="none" 
	d="
M360.698975,169.585144 
	C359.910309,172.066315 359.181274,174.275665 357.985413,176.194000 
	C357.756256,176.561630 354.969116,176.154968 354.612640,175.462128 
	C353.704987,173.697983 353.086670,171.549072 353.183502,169.595337 
	C353.238739,168.480515 355.106781,166.443375 355.834625,166.577667 
	C357.526245,166.889740 359.021393,168.266693 360.698975,169.585144 
z"/>
<path fill="#EEF1F7" opacity="1.000000" stroke="none" 
	d="
M279.523804,168.882141 
	C281.480957,167.997833 283.216583,167.440582 284.952209,166.883347 
	C285.515839,169.105606 286.692444,171.412567 286.401672,173.516785 
	C286.240234,174.685394 283.629913,175.515656 282.123352,176.498413 
	C281.079956,174.711807 279.962585,172.961960 279.044067,171.113297 
	C278.808167,170.638565 279.199219,169.852325 279.523804,168.882141 
z"/>
<path fill="#EEF1F7" opacity="1.000000" stroke="none" 
	d="
M387.053345,160.274261 
	C390.713623,160.108398 392.726471,161.436417 392.250671,164.911057 
	C391.658325,169.236465 388.376099,167.950729 384.518127,167.836533 
	C385.289459,165.099976 385.966339,162.698608 387.053345,160.274261 
z"/>
<path fill="#F1F3F7" opacity="1.000000" stroke="none" 
	d="
M225.800262,172.102509 
	C228.275009,174.694824 226.770279,176.182556 224.479263,176.734848 
	C223.513077,176.967758 222.184097,175.695587 221.020020,175.107559 
	C222.478516,174.079849 223.937012,173.052139 225.800262,172.102509 
z"/>
<path fill="#ECF0F5" opacity="1.000000" stroke="none" 
	d="
M449.769348,165.981079 
	C450.925873,166.997635 451.674530,167.913589 453.035034,169.578186 
	C449.774109,169.578186 447.594330,169.578186 445.414520,169.578186 
	C445.160553,169.172562 444.906586,168.766937 444.652618,168.361313 
	C446.222260,167.534348 447.791870,166.707397 449.769348,165.981079 
z"/>
<path fill="#EFF2F7" opacity="1.000000" stroke="none" 
	d="
M299.762512,170.336044 
	C301.438263,168.800735 303.081848,167.682999 304.725464,166.565277 
	C305.547180,168.676086 306.970184,170.791733 306.953217,172.895798 
	C306.943848,174.060059 304.523834,175.204926 303.190430,176.358551 
	C302.037079,174.490250 300.883728,172.621933 299.762512,170.336044 
z"/>
<path fill="#E7EBF1" opacity="1.000000" stroke="none" 
	d="
M407.979675,171.938980 
	C409.082092,172.867981 409.796570,173.797592 410.511078,174.727188 
	C409.361633,175.488052 408.261993,176.718918 407.045593,176.847794 
	C406.207275,176.936630 405.207275,175.499481 404.279541,174.744324 
	C405.383606,173.809402 406.487701,172.874481 407.979675,171.938980 
z"/>
<path fill="#F9FBFF" opacity="1.000000" stroke="none" 
	d="
M410.237091,168.775299 
	C410.273560,168.933884 410.137268,169.260132 409.863556,169.435974 
	C409.726105,169.285599 410.064331,168.942932 410.237091,168.775299 
z"/>
<path fill="#ECEFF3" opacity="1.000000" stroke="none" 
	d="
M320.706909,172.717743 
	C322.695099,172.847717 324.348389,173.231400 326.001648,173.615112 
	C324.854340,174.736603 323.806061,176.658737 322.539398,176.815430 
	C319.773956,177.157532 319.268768,175.307709 320.706909,172.717743 
z"/>
</svg>