<svg version="1.1" id="Layer_1" xmlns="http://www.w3.org/2000/svg" xmlns:xlink="http://www.w3.org/1999/xlink" x="0px" y="0px"
	 width="100%" viewBox="0 0 657 264" enable-background="new 0 0 657 264" xml:space="preserve">
<path fill="#FAFCFF" opacity="1.000000" stroke="none" 
	d="
M457.000000,265.000000 
	C304.666656,265.000000 152.833328,265.000000 1.000000,265.000000 
	C1.000000,177.000000 1.000000,89.000000 1.000000,1.000000 
	C220.000000,1.000000 439.000000,1.000000 658.000000,1.000000 
	C658.000000,89.000000 658.000000,177.000000 658.000000,265.000000 
	C591.166687,265.000000 524.333313,265.000000 457.000000,265.000000 
M118.500862,81.051018 
	C113.800743,83.075935 109.100632,85.100861 104.400513,87.125778 
	C106.776855,88.033478 108.773804,87.968193 110.765366,88.044144 
	C123.167984,88.517120 129.199982,95.302605 125.948349,107.244057 
	C123.640854,115.718231 119.838882,124.142891 115.055855,131.521255 
	C97.930367,157.939301 73.193871,175.708679 45.590981,189.738358 
	C40.519215,192.316177 34.645073,193.795212 28.973595,194.600876 
	C20.453281,195.811188 15.384937,190.624252 15.624028,182.055267 
	C15.676228,180.184448 15.819223,178.316162 15.920404,176.446701 
	C14.898203,176.776031 14.503934,177.257141 14.350858,177.805573 
	C13.816867,179.718719 13.274310,181.637421 12.898548,183.585556 
	C9.865235,199.311691 17.034353,206.293243 32.649448,202.121613 
	C40.770298,199.952087 48.539452,196.466064 56.747402,193.472641 
	C61.439766,199.311081 66.480812,205.583374 71.652336,212.018005 
	C73.055809,210.326111 74.340858,208.813477 75.586853,207.269318 
	C88.009064,191.874832 100.603691,176.614944 112.783905,161.031189 
	C121.974510,149.272415 131.129532,137.426834 139.366745,125.000969 
	C145.698944,115.448837 150.308350,104.834068 150.024933,92.868370 
	C149.788071,82.866722 144.693207,77.539703 134.838120,77.956429 
	C129.610199,78.177490 124.441727,79.804428 118.500862,81.051018 
M40.930241,143.255890 
	C35.379967,124.458160 45.171219,106.060982 63.386517,101.397224 
	C74.878227,98.454941 85.239418,101.130348 93.917061,109.094719 
	C102.509605,116.981003 105.075172,127.342308 104.547806,138.968063 
	C109.399155,132.405548 113.629951,125.866486 117.534042,119.137856 
	C118.272896,117.864471 118.213509,115.653526 117.671791,114.190071 
	C114.611588,105.922836 109.448456,99.095016 102.805305,93.317513 
	C88.202171,80.617279 64.485855,78.461761 47.643677,88.375015 
	C29.114723,99.281097 18.698616,121.621704 22.663712,140.858490 
	C26.244047,158.228577 38.188171,170.168335 49.027996,183.771667 
	C58.453308,177.739166 67.568184,171.905350 77.541939,165.521805 
	C55.375229,163.648254 48.548874,159.498322 40.930241,143.255890 
M177.788834,149.919983 
	C178.541809,148.591644 179.962097,147.253189 179.942123,145.936584 
	C179.783417,135.479477 179.331390,125.027100 179.035156,114.571404 
	C179.007614,113.599152 179.435394,112.614006 179.933258,110.361076 
	C181.631516,113.749603 182.825882,115.904602 183.816269,118.149597 
	C187.496155,126.491219 191.027420,134.899719 194.816193,143.190918 
	C195.567764,144.835617 197.210617,146.073029 198.442459,147.498245 
	C199.895370,146.011810 201.888046,144.774063 202.707336,142.995712 
	C206.173004,135.473251 209.248779,127.772217 212.554810,120.174644 
	C213.803696,117.304581 215.289917,114.537781 216.667953,111.723915 
	C217.558624,123.030197 217.507401,133.900558 217.615982,144.769287 
	C217.631577,146.329987 218.105392,149.032761 218.899429,149.248550 
	C223.280975,150.439331 227.818756,150.934113 231.121140,149.092728 
	C225.618774,131.882538 224.860443,115.509857 230.176208,98.746399 
	C223.708832,96.032562 218.145721,97.693245 214.884674,104.064262 
	C211.408157,110.856239 208.260300,117.815849 204.920593,124.678734 
	C203.450241,127.700226 201.860291,130.663513 199.911896,134.456772 
	C198.304169,131.259979 197.117950,129.104645 196.113785,126.867584 
	C192.720810,119.308754 189.653244,111.591011 185.962524,104.182480 
	C182.591354,97.415405 176.461349,95.820618 170.445297,98.639206 
	C176.095047,115.960899 175.126053,132.583740 168.570282,149.987823 
	C171.120270,149.987823 174.036240,149.987823 177.788834,149.919983 
M81.078186,146.568970 
	C81.160538,145.112564 81.242897,143.656158 81.351089,141.742783 
	C85.086189,141.742783 88.548592,141.647415 92.003433,141.768051 
	C95.910919,141.904480 96.792336,139.337326 95.960777,136.556915 
	C94.701111,132.345078 99.808472,126.279404 92.517601,123.923836 
	C90.857170,123.387390 88.878242,123.834999 87.045906,123.832886 
	C85.138229,123.830696 83.230553,123.832397 81.075966,123.832397 
	C81.075966,119.621384 80.962639,116.292656 81.109291,112.975418 
	C81.243683,109.935539 79.834908,108.235245 76.995605,109.016731 
	C72.409927,110.278893 66.118301,105.200928 63.255733,112.474777 
	C62.630409,114.063736 63.148560,116.103745 63.144966,117.936035 
	C63.141460,119.721809 63.144203,121.507607 63.144203,123.834297 
	C59.334576,123.834297 56.033443,124.012367 52.759621,123.789436 
	C48.623074,123.507751 47.523403,126.090668 48.386478,129.088516 
	C49.612328,133.346420 44.214031,140.157013 52.685440,141.644165 
	C55.993595,142.224915 59.488972,141.739166 62.944759,141.739166 
	C63.042980,143.386261 63.126556,144.205948 63.135597,145.026459 
	C63.273140,157.509308 61.168972,156.605881 74.965889,156.834991 
	C79.777733,156.914886 81.848885,155.380264 81.099846,150.516541 
	C80.949486,149.540207 81.078148,148.520920 81.078186,146.568970 
M279.611420,136.867416 
	C281.896515,150.793564 290.901245,154.849442 304.537506,148.094543 
	C309.787537,151.932693 313.083130,152.061661 318.200867,148.354706 
	C313.051819,145.117096 313.783325,139.947678 313.749664,135.024689 
	C313.673401,123.871262 313.753571,112.714180 313.456940,101.566925 
	C313.394989,99.239090 312.518951,95.456108 311.082550,94.938148 
	C307.724121,93.727142 303.766388,93.977280 300.740082,97.024796 
	C305.558350,102.426483 306.437347,106.995583 304.256012,113.838379 
	C284.908447,115.129578 278.612061,120.764320 279.611420,136.867416 
M436.778198,150.538376 
	C439.982117,150.378738 443.186066,150.219116 447.036865,150.027252 
	C442.343445,141.693481 443.920624,133.653793 444.266083,125.800598 
	C444.456482,121.472336 448.357178,118.736412 453.045074,118.741241 
	C457.665588,118.746010 459.090637,121.761589 459.161560,125.600014 
	C459.309296,133.597382 459.206299,141.599396 459.206299,150.679108 
	C463.032257,150.456116 467.878784,150.173630 472.725311,149.891144 
	C472.998932,149.400711 473.272522,148.910294 473.546112,148.419876 
	C466.840515,145.923828 468.137756,140.587341 468.014679,135.732971 
	C467.913696,131.749451 468.075958,127.717598 467.508270,123.795952 
	C466.187653,114.673347 458.708435,110.910889 450.264130,114.877953 
	C448.227875,115.834564 446.249084,116.913483 444.330841,117.891792 
	C440.322845,112.892021 436.277679,112.644409 431.932617,116.201744 
	C436.479340,127.604401 437.776917,138.390350 430.865936,149.783966 
	C432.516663,149.994934 434.216461,150.212158 436.778198,150.538376 
M516.024109,138.227890 
	C515.749329,132.751526 515.838989,127.225372 515.099487,121.812492 
	C514.326538,116.154930 509.047760,112.477814 503.456818,113.609467 
	C499.637085,114.382614 496.010651,116.110947 492.145416,117.465637 
	C488.126312,113.013084 485.067383,112.704300 479.767395,116.056465 
	C484.615692,127.419029 485.897888,138.381027 478.910828,149.692169 
	C484.134705,149.692169 489.274048,149.692169 494.836761,149.692169 
	C490.325226,141.141174 491.835052,132.926788 492.421448,124.894386 
	C492.700012,121.078415 497.176483,118.507034 501.492096,118.739983 
	C505.516998,118.957222 507.032227,121.592278 507.096863,125.072563 
	C507.248779,133.251663 507.145477,141.435516 507.145477,150.690735 
	C511.050964,150.453430 515.902893,150.158630 519.808044,149.921356 
	C518.332703,145.720245 517.178528,142.433655 516.024109,138.227890 
M387.941406,126.631386 
	C386.183228,134.569626 386.914368,141.961395 393.506622,147.554642 
	C399.622528,152.743744 408.709167,152.877594 415.810547,148.311401 
	C422.534851,143.987732 425.377380,134.829285 422.851746,125.625305 
	C420.890869,118.479416 414.685089,113.488388 407.211578,113.046654 
	C398.285553,112.519066 391.688049,116.947250 387.941406,126.631386 
M262.064392,145.934860 
	C256.426361,146.605820 251.752167,145.024750 249.128860,139.703308 
	C247.072403,135.531738 248.500259,133.051575 253.153503,132.446442 
	C257.923309,131.826157 262.735107,131.536087 267.519470,131.018066 
	C271.190613,130.620590 272.695526,128.511597 272.137512,124.858452 
	C271.341705,119.649178 268.508423,115.982124 263.623932,114.139236 
	C255.499557,111.073959 246.575699,114.444679 242.147430,122.052368 
	C237.382050,130.239227 239.003448,142.120605 245.642303,147.662186 
	C251.564941,152.605896 263.401703,152.704941 269.334137,147.729935 
	C270.290100,146.928253 270.757050,145.543488 271.450073,144.428268 
	C271.162659,144.058670 270.875275,143.689056 270.587860,143.319443 
	C268.019928,144.164307 265.451996,145.009171 262.064392,145.934860 
M533.423950,116.811821 
	C525.868164,123.195648 524.526489,131.386124 527.261108,140.300461 
	C529.094788,146.277679 533.557129,150.183502 539.851501,151.044891 
	C546.595398,151.967789 553.174683,151.462601 557.923950,145.504593 
	C558.067993,145.323944 557.880005,144.878677 557.740234,143.523819 
	C555.439209,144.103561 553.241516,144.560486 551.103943,145.214111 
	C544.823059,147.134674 539.322510,145.582840 536.520813,141.010406 
	C533.368347,135.865494 534.835999,132.818893 540.794434,132.221619 
	C545.261108,131.773865 549.731140,131.353989 554.205017,130.986801 
	C558.150879,130.662964 559.422363,128.163574 558.812256,124.771996 
	C557.945435,119.953201 555.462402,116.202080 550.597290,114.350937 
	C544.677368,112.098434 539.195618,113.011566 533.423950,116.811821 
M374.531006,122.060326 
	C376.281067,123.368500 378.138336,125.991585 380.076416,122.639641 
	C381.870178,119.537354 380.736542,116.808632 377.626190,115.114548 
	C370.970306,111.489334 360.310272,113.218613 354.863281,118.717682 
	C349.027069,124.609642 347.740204,135.131760 351.910980,142.857773 
	C355.531982,149.565247 363.141632,152.928833 371.603394,150.902664 
	C375.274811,150.023529 379.680542,149.234039 381.024170,143.234894 
	C378.408203,144.090714 376.585510,144.603241 374.824768,145.277542 
	C367.246185,148.179947 360.483795,144.878296 358.818939,137.007614 
	C358.148956,133.840363 358.191895,130.399841 358.562592,127.158272 
	C359.597839,118.105972 368.009857,114.475922 374.531006,122.060326 
M578.482666,119.860336 
	C583.320679,115.825455 586.859619,118.520988 590.625061,121.847076 
	C591.857361,122.935562 594.176453,122.793640 595.998535,123.214409 
	C595.795105,120.929977 596.435059,117.775002 595.188538,116.567329 
	C593.367004,114.802643 590.263794,114.000732 587.579468,113.553787 
	C579.226868,112.163116 571.334167,116.163582 567.916077,123.126205 
	C564.159241,130.778885 565.344177,141.141388 570.579956,146.423035 
	C575.929382,151.819321 585.147034,153.073868 592.775757,149.122482 
	C594.586304,148.184692 595.877686,146.244492 597.407837,144.765396 
	C597.031311,144.319168 596.654785,143.872955 596.278320,143.426743 
	C594.312256,144.119797 592.362610,144.864243 590.377136,145.496338 
	C584.256409,147.444855 578.552246,145.763916 576.240845,140.581360 
	C573.178894,133.715927 572.928467,126.744293 578.482666,119.860336 
M611.595093,149.094604 
	C618.091675,152.966553 625.508850,151.100388 626.728271,145.143921 
	C625.890808,145.103790 624.993713,144.819626 624.277344,145.064438 
	C618.295593,147.108749 616.250000,143.700668 616.076660,138.044037 
	C615.964905,134.395126 616.136780,130.736572 615.991882,127.089882 
	C615.798767,122.227020 617.063782,118.609474 622.605835,117.814560 
	C623.537231,117.680969 624.342773,116.669464 625.950317,115.541801 
	C624.077332,114.682449 623.015076,113.941711 621.851013,113.708183 
	C618.268677,112.989494 616.615295,110.805382 616.041687,107.304276 
	C615.835938,106.048553 614.701355,104.945023 613.990723,103.772041 
	C612.739014,104.677132 611.134827,105.337593 610.304016,106.534782 
	C608.114624,109.689636 606.261108,113.077599 604.733887,115.609848 
	C605.796265,120.071167 607.117126,124.208801 607.692688,128.447647 
	C608.225220,132.369980 607.614441,136.448944 608.162292,140.367340 
	C608.554993,143.175720 610.027954,145.833023 611.595093,149.094604 
M330.006104,139.148819 
	C328.763794,142.801620 327.521484,146.454422 326.325623,149.970581 
	C331.509399,149.970581 337.257294,149.970581 341.893646,149.970581 
	C340.638123,145.805893 338.932617,142.327667 338.645996,138.736206 
	C338.080139,131.645203 338.379547,124.488564 338.116913,117.366600 
	C338.072815,116.170998 337.076447,114.050049 336.392914,113.997055 
	C332.462311,113.692368 328.335388,113.282166 324.667847,116.860321 
	C329.811859,119.168121 330.354340,123.245247 330.112976,127.784103 
	C329.928345,131.256638 330.057770,134.745880 330.006104,139.148819 
M122.720886,62.122551 
	C124.324081,68.963120 129.533325,72.393387 135.332474,70.427246 
	C140.137299,68.798225 142.946304,63.948452 141.939377,59.020397 
	C141.051178,54.673363 136.670898,51.205833 132.183411,51.297352 
	C126.935768,51.404373 123.405731,55.143211 122.720886,62.122551 
M333.674591,95.996330 
	C330.349121,96.675735 327.753143,98.479607 329.068268,102.027985 
	C329.708252,103.754723 332.479614,105.632599 334.330261,105.678902 
	C335.877686,105.717606 338.368774,103.454681 338.882233,101.743095 
	C339.836884,98.560669 337.932373,96.415749 333.674591,95.996330 
z"/>
<path fill="#091629" opacity="1.000000" stroke="none" 
	d="
M118.873642,80.923874 
	C124.441727,79.804428 129.610199,78.177490 134.838120,77.956429 
	C144.693207,77.539703 149.788071,82.866722 150.024933,92.868370 
	C150.308350,104.834068 145.698944,115.448837 139.366745,125.000969 
	C131.129532,137.426834 121.974510,149.272415 112.783905,161.031189 
	C100.603691,176.614944 88.009064,191.874832 75.586853,207.269318 
	C74.340858,208.813477 73.055809,210.326111 71.652336,212.018005 
	C66.480812,205.583374 61.439766,199.311081 56.747402,193.472641 
	C48.539452,196.466064 40.770298,199.952087 32.649448,202.121613 
	C17.034353,206.293243 9.865235,199.311691 12.898548,183.585556 
	C13.274310,181.637421 13.816867,179.718719 14.350858,177.805573 
	C14.503934,177.257141 14.898203,176.776031 15.920404,176.446701 
	C15.819223,178.316162 15.676228,180.184448 15.624028,182.055267 
	C15.384937,190.624252 20.453281,195.811188 28.973595,194.600876 
	C34.645073,193.795212 40.519215,192.316177 45.590981,189.738358 
	C73.193871,175.708679 97.930367,157.939301 115.055855,131.521255 
	C119.838882,124.142891 123.640854,115.718231 125.948349,107.244057 
	C129.199982,95.302605 123.167984,88.517120 110.765366,88.044144 
	C108.773804,87.968193 106.776855,88.033478 104.400513,87.125778 
	C109.100632,85.100861 113.800743,83.075935 118.873642,80.923874 
z"/>
<path fill="#1CC091" opacity="1.000000" stroke="none" 
	d="
M41.012371,143.645248 
	C48.548874,159.498322 55.375229,163.648254 77.541939,165.521805 
	C67.568184,171.905350 58.453308,177.739166 49.027996,183.771667 
	C38.188171,170.168335 26.244047,158.228577 22.663712,140.858490 
	C18.698616,121.621704 29.114723,99.281097 47.643677,88.375015 
	C64.485855,78.461761 88.202171,80.617279 102.805305,93.317513 
	C109.448456,99.095016 114.611588,105.922836 117.671791,114.190071 
	C118.213509,115.653526 118.272896,117.864471 117.534042,119.137856 
	C113.629951,125.866486 109.399155,132.405548 104.547806,138.968063 
	C105.075172,127.342308 102.509605,116.981003 93.917061,109.094719 
	C85.239418,101.130348 74.878227,98.454941 63.386517,101.397224 
	C45.171219,106.060982 35.379967,124.458160 41.012371,143.645248 
z"/>
<path fill="#0D1A2D" opacity="1.000000" stroke="none" 
	d="
M177.370514,149.953903 
	C174.036240,149.987823 171.120270,149.987823 168.570282,149.987823 
	C175.126053,132.583740 176.095047,115.960899 170.445297,98.639206 
	C176.461349,95.820618 182.591354,97.415405 185.962524,104.182480 
	C189.653244,111.591011 192.720810,119.308754 196.113785,126.867584 
	C197.117950,129.104645 198.304169,131.259979 199.911896,134.456772 
	C201.860291,130.663513 203.450241,127.700226 204.920593,124.678734 
	C208.260300,117.815849 211.408157,110.856239 214.884674,104.064262 
	C218.145721,97.693245 223.708832,96.032562 230.176208,98.746399 
	C224.860443,115.509857 225.618774,131.882538 231.121140,149.092728 
	C227.818756,150.934113 223.280975,150.439331 218.899429,149.248550 
	C218.105392,149.032761 217.631577,146.329987 217.615982,144.769287 
	C217.507401,133.900558 217.558624,123.030197 216.667953,111.723915 
	C215.289917,114.537781 213.803696,117.304581 212.554810,120.174644 
	C209.248779,127.772217 206.173004,135.473251 202.707336,142.995712 
	C201.888046,144.774063 199.895370,146.011810 198.442459,147.498245 
	C197.210617,146.073029 195.567764,144.835617 194.816193,143.190918 
	C191.027420,134.899719 187.496155,126.491219 183.816269,118.149597 
	C182.825882,115.904602 181.631516,113.749603 179.933258,110.361076 
	C179.435394,112.614006 179.007614,113.599152 179.035156,114.571404 
	C179.331390,125.027100 179.783417,135.479477 179.942123,145.936584 
	C179.962097,147.253189 178.541809,148.591644 177.370514,149.953903 
z"/>
<path fill="#1CC091" opacity="1.000000" stroke="none" 
	d="
M81.078178,147.045197 
	C81.078148,148.520920 80.949486,149.540207 81.099846,150.516541 
	C81.848885,155.380264 79.777733,156.914886 74.965889,156.834991 
	C61.168972,156.605881 63.273140,157.509308 63.135597,145.026459 
	C63.126556,144.205948 63.042980,143.386261 62.944759,141.739166 
	C59.488972,141.739166 55.993595,142.224915 52.685440,141.644165 
	C44.214031,140.157013 49.612328,133.346420 48.386478,129.088516 
	C47.523403,126.090668 48.623074,123.507751 52.759621,123.789436 
	C56.033443,124.012367 59.334576,123.834297 63.144203,123.834297 
	C63.144203,121.507607 63.141460,119.721809 63.144966,117.936035 
	C63.148560,116.103745 62.630409,114.063736 63.255733,112.474777 
	C66.118301,105.200928 72.409927,110.278893 76.995605,109.016731 
	C79.834908,108.235245 81.243683,109.935539 81.109291,112.975418 
	C80.962639,116.292656 81.075966,119.621384 81.075966,123.832397 
	C83.230553,123.832397 85.138229,123.830696 87.045906,123.832886 
	C88.878242,123.834999 90.857170,123.387390 92.517601,123.923836 
	C99.808472,126.279404 94.701111,132.345078 95.960777,136.556915 
	C96.792336,139.337326 95.910919,141.904480 92.003433,141.768051 
	C88.548592,141.647415 85.086189,141.742783 81.351089,141.742783 
	C81.242897,143.656158 81.160538,145.112564 81.078178,147.045197 
z"/>
<path fill="#121E31" opacity="1.000000" stroke="none" 
	d="
M279.531555,136.451843 
	C278.612061,120.764320 284.908447,115.129578 304.256012,113.838379 
	C306.437347,106.995583 305.558350,102.426483 300.740082,97.024796 
	C303.766388,93.977280 307.724121,93.727142 311.082550,94.938148 
	C312.518951,95.456108 313.394989,99.239090 313.456940,101.566925 
	C313.753571,112.714180 313.673401,123.871262 313.749664,135.024689 
	C313.783325,139.947678 313.051819,145.117096 318.200867,148.354706 
	C313.083130,152.061661 309.787537,151.932693 304.537506,148.094543 
	C290.901245,154.849442 281.896515,150.793564 279.531555,136.451843 
M304.978455,131.480835 
	C304.953339,129.485687 305.423920,127.312286 304.785767,125.537567 
	C303.851562,122.939552 302.523010,119.038002 300.639252,118.563530 
	C297.772064,117.841362 293.481018,118.600990 291.220642,120.462654 
	C285.585358,125.104004 285.820068,139.271454 291.372528,144.128708 
	C293.219269,145.744232 296.748688,147.015823 298.841003,146.349014 
	C301.166595,145.607880 303.367371,142.752563 304.438354,140.300491 
	C305.430817,138.028198 304.860596,135.073395 304.978455,131.480835 
z"/>
<path fill="#101D30" opacity="1.000000" stroke="none" 
	d="
M436.347229,150.483887 
	C434.216461,150.212158 432.516663,149.994934 430.865936,149.783966 
	C437.776917,138.390350 436.479340,127.604401 431.932617,116.201744 
	C436.277679,112.644409 440.322845,112.892021 444.330841,117.891792 
	C446.249084,116.913483 448.227875,115.834564 450.264130,114.877953 
	C458.708435,110.910889 466.187653,114.673347 467.508270,123.795952 
	C468.075958,127.717598 467.913696,131.749451 468.014679,135.732971 
	C468.137756,140.587341 466.840515,145.923828 473.546112,148.419876 
	C473.272522,148.910294 472.998932,149.400711 472.725311,149.891144 
	C467.878784,150.173630 463.032257,150.456116 459.206299,150.679108 
	C459.206299,141.599396 459.309296,133.597382 459.161560,125.600014 
	C459.090637,121.761589 457.665588,118.746010 453.045074,118.741241 
	C448.357178,118.736412 444.456482,121.472336 444.266083,125.800598 
	C443.920624,133.653793 442.343445,141.693481 447.036865,150.027252 
	C443.186066,150.219116 439.982117,150.378738 436.347229,150.483887 
z"/>
<path fill="#101D30" opacity="1.000000" stroke="none" 
	d="
M516.024231,138.687469 
	C517.178528,142.433655 518.332703,145.720245 519.808044,149.921356 
	C515.902893,150.158630 511.050964,150.453430 507.145477,150.690735 
	C507.145477,141.435516 507.248779,133.251663 507.096863,125.072563 
	C507.032227,121.592278 505.516998,118.957222 501.492096,118.739983 
	C497.176483,118.507034 492.700012,121.078415 492.421448,124.894386 
	C491.835052,132.926788 490.325226,141.141174 494.836761,149.692169 
	C489.274048,149.692169 484.134705,149.692169 478.910828,149.692169 
	C485.897888,138.381027 484.615692,127.419029 479.767395,116.056465 
	C485.067383,112.704300 488.126312,113.013084 492.145416,117.465637 
	C496.010651,116.110947 499.637085,114.382614 503.456818,113.609467 
	C509.047760,112.477814 514.326538,116.154930 515.099487,121.812492 
	C515.838989,127.225372 515.749329,132.751526 516.024231,138.687469 
z"/>
<path fill="#111E31" opacity="1.000000" stroke="none" 
	d="
M388.040405,126.239563 
	C391.688049,116.947250 398.285553,112.519066 407.211578,113.046654 
	C414.685089,113.488388 420.890869,118.479416 422.851746,125.625305 
	C425.377380,134.829285 422.534851,143.987732 415.810547,148.311401 
	C408.709167,152.877594 399.622528,152.743744 393.506622,147.554642 
	C386.914368,141.961395 386.183228,134.569626 388.040405,126.239563 
M414.053558,137.047821 
	C413.326080,131.869125 413.202850,126.490417 411.586243,121.605995 
	C410.899139,119.530029 407.052246,117.263657 404.699005,117.324181 
	C402.361267,117.384300 399.123505,119.759651 397.979736,121.990837 
	C394.436768,128.902069 394.956848,136.305023 398.482208,143.070557 
	C399.577179,145.171890 402.881042,147.368668 405.105743,147.300659 
	C407.560425,147.225601 410.213593,144.889389 412.240234,142.968353 
	C413.390625,141.877914 413.459259,139.646194 414.053558,137.047821 
z"/>
<path fill="#101D30" opacity="1.000000" stroke="none" 
	d="
M262.474243,145.894440 
	C265.451996,145.009171 268.019928,144.164307 270.587860,143.319443 
	C270.875275,143.689056 271.162659,144.058670 271.450073,144.428268 
	C270.757050,145.543488 270.290100,146.928253 269.334137,147.729935 
	C263.401703,152.704941 251.564941,152.605896 245.642303,147.662186 
	C239.003448,142.120605 237.382050,130.239227 242.147430,122.052368 
	C246.575699,114.444679 255.499557,111.073959 263.623932,114.139236 
	C268.508423,115.982124 271.341705,119.649178 272.137512,124.858452 
	C272.695526,128.511597 271.190613,130.620590 267.519470,131.018066 
	C262.735107,131.536087 257.923309,131.826157 253.153503,132.446442 
	C248.500259,133.051575 247.072403,135.531738 249.128860,139.703308 
	C251.752167,145.024750 256.426361,146.605820 262.474243,145.894440 
M264.044922,123.788620 
	C263.580353,119.693367 260.862122,116.928444 257.225494,117.365883 
	C254.473541,117.696899 251.199631,120.059608 249.627213,122.474731 
	C246.531403,127.229607 247.939743,129.050949 253.521561,128.673859 
	C256.002686,128.506241 258.579742,128.596848 260.915863,127.904358 
	C262.206757,127.521706 263.089417,125.761917 264.044922,123.788620 
z"/>
<path fill="#101C2F" opacity="1.000000" stroke="none" 
	d="
M533.692261,116.558334 
	C539.195618,113.011566 544.677368,112.098434 550.597290,114.350937 
	C555.462402,116.202080 557.945435,119.953201 558.812256,124.771996 
	C559.422363,128.163574 558.150879,130.662964 554.205017,130.986801 
	C549.731140,131.353989 545.261108,131.773865 540.794434,132.221619 
	C534.835999,132.818893 533.368347,135.865494 536.520813,141.010406 
	C539.322510,145.582840 544.823059,147.134674 551.103943,145.214111 
	C553.241516,144.560486 555.439209,144.103561 557.740234,143.523819 
	C557.880005,144.878677 558.067993,145.323944 557.923950,145.504593 
	C553.174683,151.462601 546.595398,151.967789 539.851501,151.044891 
	C533.557129,150.183502 529.094788,146.277679 527.261108,140.300461 
	C524.526489,131.386124 525.868164,123.195648 533.692261,116.558334 
M536.724670,121.393837 
	C536.038330,123.580544 535.351990,125.767242 534.616333,128.111008 
	C536.153625,128.470291 536.794006,128.774216 537.415344,128.739365 
	C540.702332,128.555038 543.981995,128.141739 547.269043,128.083908 
	C550.914429,128.019745 551.741455,125.651390 550.559509,123.189850 
	C549.459167,120.898224 547.213379,117.860420 545.192871,117.633354 
	C542.639099,117.346367 539.802856,119.572647 536.724670,121.393837 
z"/>
<path fill="#111E31" opacity="1.000000" stroke="none" 
	d="
M374.257324,121.795914 
	C368.009857,114.475922 359.597839,118.105972 358.562592,127.158272 
	C358.191895,130.399841 358.148956,133.840363 358.818939,137.007614 
	C360.483795,144.878296 367.246185,148.179947 374.824768,145.277542 
	C376.585510,144.603241 378.408203,144.090714 381.024170,143.234894 
	C379.680542,149.234039 375.274811,150.023529 371.603394,150.902664 
	C363.141632,152.928833 355.531982,149.565247 351.910980,142.857773 
	C347.740204,135.131760 349.027069,124.609642 354.863281,118.717682 
	C360.310272,113.218613 370.970306,111.489334 377.626190,115.114548 
	C380.736542,116.808632 381.870178,119.537354 380.076416,122.639641 
	C378.138336,125.991585 376.281067,123.368500 374.257324,121.795914 
z"/>
<path fill="#101D30" opacity="1.000000" stroke="none" 
	d="
M578.174438,120.110252 
	C572.928467,126.744293 573.178894,133.715927 576.240845,140.581360 
	C578.552246,145.763916 584.256409,147.444855 590.377136,145.496338 
	C592.362610,144.864243 594.312256,144.119797 596.278320,143.426743 
	C596.654785,143.872955 597.031311,144.319168 597.407837,144.765396 
	C595.877686,146.244492 594.586304,148.184692 592.775757,149.122482 
	C585.147034,153.073868 575.929382,151.819321 570.579956,146.423035 
	C565.344177,141.141388 564.159241,130.778885 567.916077,123.126205 
	C571.334167,116.163582 579.226868,112.163116 587.579468,113.553787 
	C590.263794,114.000732 593.367004,114.802643 595.188538,116.567329 
	C596.435059,117.775002 595.795105,120.929977 595.998535,123.214409 
	C594.176453,122.793640 591.857361,122.935562 590.625061,121.847076 
	C586.859619,118.520988 583.320679,115.825455 578.174438,120.110252 
z"/>
<path fill="#0C192C" opacity="1.000000" stroke="none" 
	d="
M611.307007,148.826172 
	C610.027954,145.833023 608.554993,143.175720 608.162292,140.367340 
	C607.614441,136.448944 608.225220,132.369980 607.692688,128.447647 
	C607.117126,124.208801 605.796265,120.071167 604.733887,115.609848 
	C606.261108,113.077599 608.114624,109.689636 610.304016,106.534782 
	C611.134827,105.337593 612.739014,104.677132 613.990723,103.772034 
	C614.701355,104.945023 615.835938,106.048553 616.041687,107.304276 
	C616.615295,110.805382 618.268677,112.989494 621.851013,113.708183 
	C623.015076,113.941711 624.077332,114.682449 625.950317,115.541801 
	C624.342773,116.669464 623.537231,117.680969 622.605835,117.814560 
	C617.063782,118.609474 615.798767,122.227020 615.991882,127.089882 
	C616.136780,130.736572 615.964905,134.395126 616.076660,138.044037 
	C616.250000,143.700668 618.295593,147.108749 624.277344,145.064438 
	C624.993713,144.819626 625.890808,145.103790 626.728271,145.143921 
	C625.508850,151.100388 618.091675,152.966553 611.307007,148.826172 
z"/>
<path fill="#0D1A2D" opacity="1.000000" stroke="none" 
	d="
M330.026794,138.688263 
	C330.057770,134.745880 329.928345,131.256638 330.112976,127.784103 
	C330.354340,123.245247 329.811859,119.168121 324.667847,116.860321 
	C328.335388,113.282166 332.462311,113.692368 336.392914,113.997055 
	C337.076447,114.050049 338.072815,116.170998 338.116913,117.366600 
	C338.379547,124.488564 338.080139,131.645203 338.645996,138.736206 
	C338.932617,142.327667 340.638123,145.805893 341.893646,149.970581 
	C337.257294,149.970581 331.509399,149.970581 326.325623,149.970581 
	C327.521484,146.454422 328.763794,142.801620 330.026794,138.688263 
z"/>
<path fill="#0A172B" opacity="1.000000" stroke="none" 
	d="
M122.693100,61.750496 
	C123.405731,55.143211 126.935768,51.404373 132.183411,51.297352 
	C136.670898,51.205833 141.051178,54.673363 141.939377,59.020397 
	C142.946304,63.948452 140.137299,68.798225 135.332474,70.427246 
	C129.533325,72.393387 124.324081,68.963120 122.693100,61.750496 
z"/>
<path fill="#121E31" opacity="1.000000" stroke="none" 
	d="
M334.069916,96.018814 
	C337.932373,96.415749 339.836884,98.560669 338.882233,101.743095 
	C338.368774,103.454681 335.877686,105.717606 334.330261,105.678902 
	C332.479614,105.632599 329.708252,103.754723 329.068268,102.027985 
	C327.753143,98.479607 330.349121,96.675735 334.069916,96.018814 
z"/>
<path fill="#F7F9FC" opacity="1.000000" stroke="none" 
	d="
M304.978485,131.949982 
	C304.860596,135.073395 305.430817,138.028198 304.438354,140.300491 
	C303.367371,142.752563 301.166595,145.607880 298.841003,146.349014 
	C296.748688,147.015823 293.219269,145.744232 291.372528,144.128708 
	C285.820068,139.271454 285.585358,125.104004 291.220642,120.462654 
	C293.481018,118.600990 297.772064,117.841362 300.639252,118.563530 
	C302.523010,119.038002 303.851562,122.939552 304.785767,125.537567 
	C305.423920,127.312286 304.953339,129.485687 304.978485,131.949982 
z"/>
<path fill="#F6F8FC" opacity="1.000000" stroke="none" 
	d="
M414.034302,137.488129 
	C413.459259,139.646194 413.390625,141.877914 412.240234,142.968353 
	C410.213593,144.889389 407.560425,147.225601 405.105743,147.300659 
	C402.881042,147.368668 399.577179,145.171890 398.482208,143.070557 
	C394.956848,136.305023 394.436768,128.902069 397.979736,121.990837 
	C399.123505,119.759651 402.361267,117.384300 404.699005,117.324181 
	C407.052246,117.263657 410.899139,119.530029 411.586243,121.605995 
	C413.202850,126.490417 413.326080,131.869125 414.034302,137.488129 
z"/>
<path fill="#ECEFF3" opacity="1.000000" stroke="none" 
	d="
M264.100494,124.205772 
	C263.089417,125.761917 262.206757,127.521706 260.915863,127.904358 
	C258.579742,128.596848 256.002686,128.506241 253.521561,128.673859 
	C247.939743,129.050949 246.531403,127.229607 249.627213,122.474731 
	C251.199631,120.059608 254.473541,117.696899 257.225494,117.365883 
	C260.862122,116.928444 263.580353,119.693367 264.100494,124.205772 
z"/>
<path fill="#ECEFF3" opacity="1.000000" stroke="none" 
	d="
M536.906616,121.054344 
	C539.802856,119.572647 542.639099,117.346367 545.192871,117.633354 
	C547.213379,117.860420 549.459167,120.898224 550.559509,123.189850 
	C551.741455,125.651390 550.914429,128.019745 547.269043,128.083908 
	C543.981995,128.141739 540.702332,128.555038 537.415344,128.739365 
	C536.794006,128.774216 536.153625,128.470291 534.616333,128.111008 
	C535.351990,125.767242 536.038330,123.580544 536.906616,121.054344 
z"/>
</svg>