<svg version="1.0" xmlns="http://www.w3.org/2000/svg" width="783px" height="227px" viewBox="0 0 783 227" preserveAspectRatio="xMidYMid meet">
 <g fill="#f9fbff">
  <path d="M0 113.50 l0 -113.50 391.50 0 391.50 0 0 113.50 0 113.50 -391.50 0 -391.50 0 0 -113.50z m111.50 90.15 c0.95 -1.35 1.95 -2.60 2.30 -2.90 0.30 -0.25 1.20 -1.40 1.95 -2.50 0.80 -1.10 1.70 -2.20 2 -2.50 0.30 -0.25 1.20 -1.40 2 -2.50 0.80 -1.10 1.70 -2.20 2 -2.50 0.25 -0.25 1.30 -1.50 2.25 -2.75 0.95 -1.25 1.85 -2.35 2 -2.50 0.15 -0.15 0.95 -1.15 1.75 -2.25 0.80 -1.10 1.70 -2.20 2 -2.50 0.30 -0.25 1.20 -1.40 2 -2.50 0.85 -1.10 1.65 -2.10 1.80 -2.25 0.20 -0.15 3.20 -3.85 6.70 -8.25 3.50 -4.40 6.55 -8.10 6.70 -8.25 0.20 -0.15 1 -1.15 1.80 -2.25 0.85 -1.10 1.60 -2.10 1.75 -2.25 0.15 -0.15 1.25 -1.50 2.50 -3 1.20 -1.50 4.15 -5 6.50 -7.75 2.40 -2.75 6.25 -7.45 8.65 -10.50 2.40 -3 4.80 -5.95 5.30 -6.50 0.50 -0.55 1.50 -1.90 2.20 -3 0.75 -1.10 2.50 -3.55 3.85 -5.50 2.55 -3.55 3.40 -4.75 7.35 -10.90 2.75 -4.30 3.55 -5.70 6.60 -11.75 4.20 -8.35 5.15 -10.75 6.75 -16.80 2.65 -9.95 2.50 -16.25 -0.50 -22.30 -2.70 -5.55 -10.70 -8.75 -18.60 -7.50 -7.35 1.20 -17.50 4.50 -24.35 8 l-1.95 1 2.45 0 c3 0 8.25 1.10 11 2.25 3.85 1.65 7 5.20 8.20 9.20 2.35 8 0.10 20 -6.10 32.30 -2.45 4.85 -11.65 19.25 -13.95 21.75 -0.65 0.70 -1.75 2.10 -2.55 3.10 -4.70 6.30 -19.85 21.25 -27.35 27 -1.25 0.95 -4.15 3.20 -6.50 5 -10.90 8.40 -29.20 19.75 -40 24.75 -9.70 4.55 -14 5.80 -21.50 6.40 -9.95 0.70 -15.95 -2.65 -17.65 -9.85 -0.35 -1.30 -0.75 -2.40 -0.90 -2.40 -0.20 0 -0.50 1.35 -0.70 2.95 -0.40 3.60 0.70 8.45 2.60 11.15 5.30 7.70 19.35 6.35 40.55 -3.90 7.05 -3.40 10.10 -4.40 10.10 -3.25 0 0.25 0.30 0.80 0.65 1.15 0.35 0.35 0.90 1 1.15 1.45 0.40 0.75 2.40 3.25 5 6.20 0.55 0.70 1.45 1.80 2 2.55 3.50 4.80 7.65 9.70 8.20 9.70 0.20 0 1.10 -1.05 2 -2.35z m-20.30 -36.25 c4.70 -2.80 10.15 -6.25 12.15 -7.65 1.95 -1.35 4.30 -2.95 5.15 -3.55 l1.55 -1.05 -5.25 -0.60 c-2.90 -0.30 -7.10 -1.20 -9.40 -1.95 -4.60 -1.55 -11.10 -5.15 -12.05 -6.65 -0.30 -0.50 -0.75 -0.95 -0.95 -0.95 -0.55 0 -4.40 -3.90 -4.40 -4.50 0 -0.25 -0.45 -0.70 -1 -1 -0.55 -0.30 -1.50 -1.60 -2.10 -2.90 -0.60 -1.30 -1.60 -3 -2.20 -3.85 -0.55 -0.80 -1.20 -1.95 -1.30 -2.50 -0.15 -0.55 -0.75 -2.70 -1.30 -4.75 -2.80 -10.30 -1.50 -22.45 3.30 -31.45 4.55 -8.55 13.45 -16.15 21.60 -18.50 1.25 -0.35 2.70 -0.85 3.25 -1.10 0.55 -0.25 3.30 -0.65 6.05 -0.95 8.70 -0.90 18.10 0.75 24.70 4.40 2.85 1.55 7.50 4.95 9.35 6.75 1.60 1.60 3.15 3.45 3.15 3.70 0 0.20 0.45 0.80 0.95 1.35 1.75 1.90 4.50 7.25 5.80 11.35 0.85 2.80 1.35 5.75 1.60 9.75 0.30 5.45 0.35 5.70 1.15 4.85 1.20 -1.25 6.80 -9.60 9.35 -13.90 3.35 -5.65 3.90 -7.05 3.30 -8.35 -2.65 -5.70 -4.40 -9.05 -5.40 -10.45 -0.70 -0.90 -1.25 -1.90 -1.25 -2.20 0 -0.30 -0.40 -0.90 -0.85 -1.30 -0.50 -0.45 -1.45 -1.55 -2.15 -2.45 -2.55 -3.35 -9.40 -9.80 -12.65 -11.95 -1.85 -1.20 -3.35 -2.35 -3.35 -2.60 0 -0.25 -0.30 -0.45 -0.70 -0.45 -0.40 0 -2.60 -0.90 -4.90 -2 -14.95 -7.10 -31.70 -7.10 -46.75 0.05 -8.90 4.25 -18.25 12.35 -23.65 20.50 -1.15 1.75 -2.50 3.75 -2.95 4.45 -1.45 2.15 -5.65 12.55 -6.70 16.75 -1.55 6 -1.50 17.35 0.10 23.50 1.40 5.35 4.95 14.10 7.15 17.50 0.35 0.55 1.60 2.45 2.70 4.25 1.15 1.80 2.55 3.80 3.15 4.45 0.60 0.65 1.05 1.35 1.05 1.50 0 0.15 0.70 1.05 1.50 2 0.85 0.90 1.50 1.80 1.50 2 0 0.15 0.75 1.10 1.65 2.05 0.90 0.95 2.30 2.65 3.10 3.75 0.80 1.10 2.15 2.80 3 3.80 0.80 1 2.30 2.75 3.25 3.85 0.95 1.15 1.80 2.10 1.90 2.10 0.10 0 4.05 -2.30 8.80 -5.10z m27.10 -27.10 c0.85 -0.65 0.95 -1.40 1 -8.40 0.05 -4.20 0.10 -7.95 0.10 -8.25 0.10 -0.50 2.05 -0.65 8 -0.65 6.05 0 8.15 -0.15 8.90 -0.70 0.85 -0.65 0.95 -1.45 1.10 -8.15 0.20 -9.85 0.75 -9.35 -9.90 -9.55 l-7.95 -0.15 -0.15 -7.95 c-0.20 -10.25 0.30 -9.70 -8.60 -9.90 -5.40 -0.15 -7 0 -8.25 0.60 -1.75 0.90 -1.80 1.35 -1.80 12.05 l0 5 -7.75 0.25 c-4.75 0.15 -8.15 0.50 -8.80 0.85 -0.90 0.50 -1.15 1.30 -1.45 4.40 -0.35 4.05 0.10 10.95 0.80 12.35 0.40 0.75 1.50 0.90 8.85 1 l8.35 0.15 0.25 8.25 c0.15 4.55 0.45 8.55 0.65 8.90 0.60 0.95 15.30 0.85 16.65 -0.10z m209.85 -6.65 c2.10 -0.65 6.85 -3 6.85 -3.40 0 -0.05 -1.30 0.35 -2.85 0.85 -3.40 1.20 -9.35 1.40 -12.60 0.45 -1.55 -0.45 -3.05 -1.50 -5.05 -3.50 -2.65 -2.60 -2.90 -3.05 -3.20 -5.70 -0.20 -1.60 -0.25 -3.80 -0.05 -4.85 0.30 -1.70 0.55 -2.05 2.40 -2.70 1.15 -0.40 5.35 -1 9.30 -1.30 8.05 -0.60 11.05 -1.15 12.90 -2.35 1.15 -0.75 1.25 -1.10 1 -3.10 -0.55 -4.80 -4.30 -9.20 -9.15 -10.85 -3.40 -1.15 -9.20 -0.75 -12.15 0.85 -5.40 2.90 -10.05 9.50 -10.85 15.30 -0.70 5.65 1.60 12.70 5.45 16.30 5 4.75 11.25 6.15 18 4z m39.35 0.05 c1.15 -0.60 1.05 -0.65 -1.85 -0.70 -5.05 0 -7.65 -1.60 -9.90 -6 -2.70 -5.40 -2.75 -16.85 -0.05 -22.75 2.30 -5 5.20 -6.55 11.55 -6.10 4.15 0.25 5.75 0.90 7.30 3.05 1.20 1.55 1.20 1.75 1.20 13.55 0 11.55 -0.05 12.05 -1.10 13.90 -0.65 1.05 -1.15 2 -1.15 2.15 0 0.10 0.50 0.20 1.15 0.20 0.60 0 2.10 0.80 3.30 1.75 1.40 1.10 2.55 1.65 3.25 1.50 0.55 -0.10 1.90 -0.35 2.95 -0.50 2.05 -0.35 2.35 -0.95 0.85 -1.75 -2.20 -1.20 -2.25 -1.50 -2.50 -28.55 -0.20 -21.70 -0.35 -25.95 -1 -26.70 -0.60 -0.70 -1.30 -0.85 -4.05 -0.65 -1.80 0.15 -3.55 0.40 -3.85 0.60 -0.35 0.20 0 1.10 1 2.55 1.55 2.15 1.60 2.35 1.75 8.85 0.30 9.45 0.50 9.15 -7.40 9.15 -6.20 0 -6.25 0 -10.05 1.90 -5.85 2.85 -9.20 7.45 -10.40 14.15 -1.65 9.55 3.95 19.35 12.25 21.40 1.50 0.35 5.30 -0.20 6.75 -1z m80.40 0 c2.15 -0.70 6.10 -2.55 6.10 -2.90 0 -0.05 -1.30 0.30 -2.85 0.85 -3.75 1.25 -9.95 1 -13 -0.55 -4.65 -2.40 -6.70 -6.55 -7.05 -14.45 -0.55 -12.60 3 -18.65 10.90 -18.65 2.45 0 6.70 1.35 7.50 2.40 0.15 0.20 1.20 1.25 2.35 2.30 1.80 1.65 2.25 1.85 2.90 1.30 2.20 -1.85 -0.35 -5.40 -4.85 -6.70 -12.35 -3.60 -25.05 5.80 -25 18.50 0.05 5.75 1.85 10 5.85 13.85 3.05 3 4.50 3.75 8.45 4.60 3.30 0.65 5.30 0.55 8.70 -0.55z m42.60 -0.50 c4.20 -1.90 6.30 -3.55 8.30 -6.60 3.60 -5.35 4.55 -11.30 2.75 -17.05 -2.25 -7.30 -7 -11.60 -14.35 -13.05 -5.25 -1.05 -11.35 1.10 -15.70 5.45 -7.35 7.35 -7.30 19.95 0.10 27.70 4.95 5.15 12.25 6.55 18.90 3.55z m150 0.70 c1.90 -0.60 7.50 -3.30 7.50 -3.65 0 -0.10 -1.20 0.20 -2.60 0.70 -5.75 1.95 -11.50 1.70 -15.65 -0.75 -4.20 -2.40 -6.50 -7.85 -5.55 -12.90 0.30 -1.45 0.65 -1.85 2.45 -2.50 1.15 -0.40 5.35 -1 9.30 -1.30 8.05 -0.60 11.05 -1.15 12.90 -2.35 1.15 -0.75 1.25 -1.05 1 -3.25 -0.35 -2.75 -3.05 -7.25 -5.25 -8.75 -4.60 -3.10 -10.50 -3.55 -15.50 -1.15 -5.75 2.70 -10.60 9.25 -11.40 15.35 -0.60 4.75 1.35 11.80 4.20 15.20 1.90 2.25 5.90 4.70 9.10 5.55 3.30 0.85 6.10 0.80 9.50 -0.20z m43.40 -0.20 c2.15 -0.70 6.10 -2.55 6.10 -2.90 0 -0.05 -1.30 0.30 -2.85 0.85 -4.05 1.35 -10.20 1 -13.25 -0.80 -2.70 -1.55 -3.50 -2.45 -5.25 -5.85 -1.35 -2.65 -1.40 -3 -1.40 -10.25 0 -6.75 0.10 -7.75 1.15 -10 2.20 -4.80 5.05 -6.75 9.70 -6.75 2.35 0 6.60 1.40 7.40 2.40 0.15 0.20 1.20 1.25 2.35 2.30 1.80 1.65 2.25 1.85 2.90 1.30 2.20 -1.85 -0.35 -5.40 -4.85 -6.70 -4.95 -1.40 -9.85 -0.90 -14.75 1.65 -9.30 4.75 -12.95 16.70 -8 26.20 1.20 2.30 5.30 6.50 7.55 7.70 2 1.05 7.25 2.05 9.30 1.80 0.95 -0.15 2.70 -0.55 3.90 -0.95z m-273.70 0.30 l3.05 -0.05 -1.30 -1.10 c-2.25 -2 -2.45 -3.50 -2.45 -18.95 0 -14.25 -0.20 -16 -1.70 -17 -0.95 -0.65 -8.30 0.75 -8.30 1.55 0 0.20 0.55 0.65 1.30 0.95 2.40 1.10 2.70 2.95 2.70 15.95 0 6.55 -0.25 12.80 -0.50 13.90 -0.25 1.20 -1.05 2.55 -1.95 3.35 -1.85 1.65 -1.25 1.95 3.15 1.60 1.60 -0.10 4.30 -0.20 6 -0.20z m309.55 -0.45 c4.20 -1.95 4.15 -2.30 -0.30 -2.30 -3.45 0 -4.15 -0.15 -4.75 -1 -1.65 -2.25 -2.20 -5.80 -2.20 -14.45 0 -9.55 0.55 -14.10 1.85 -15.35 0.50 -0.50 2.35 -1.30 4.15 -1.85 1.95 -0.55 2.95 -1.10 2.50 -1.25 -0.40 -0.20 -2.05 -0.80 -3.65 -1.40 -3.25 -1.15 -4.10 -2.35 -4.70 -6.70 -0.45 -3.40 -1.30 -3.75 -2.80 -1.15 -0.70 1.20 -1.75 3.30 -2.40 4.65 -0.60 1.40 -1.80 3.10 -2.65 3.80 l-1.50 1.30 1.05 1.45 c1.65 2.30 2.15 5 2.15 11.45 0 8.55 0.85 16.45 1.95 18.65 2.30 4.50 6.90 6.20 11.30 4.15z m-193.60 -0.05 c0.15 -0.15 -0.15 -1.50 -0.65 -3 -0.80 -2.30 -0.95 -4.25 -1 -11.50 0 -9.90 0.50 -14.10 2 -16.10 l1.05 -1.40 -1.55 0 c-1.30 0 -1.65 -0.30 -2.25 -1.70 -0.40 -0.95 -1 -1.90 -1.35 -2.10 -0.75 -0.50 -4.05 -0.30 -5.65 0.30 l-1.25 0.45 1.20 1.80 c1.60 2.30 2 7.10 1.70 20.05 l-0.20 9.85 -1.95 1.65 -1.95 1.65 1.95 0.20 c2.55 0.30 9.60 0.20 9.90 -0.15z m25.80 0.15 l2.70 -0.30 -1.70 -1.40 -1.65 -1.35 -0.35 -11.55 c-0.35 -11.60 -0.95 -16 -2.25 -17.10 -0.40 -0.30 -0.70 -0.85 -0.70 -1.15 0 -1.35 -5.45 -4.30 -7.95 -4.30 -1.65 0 -5.80 1.25 -7 2.10 -0.80 0.55 -0.25 0.65 3.50 0.65 4.30 0 4.50 0.05 5.70 1.45 2.05 2.40 2.40 4.45 2.60 16.40 0.20 9.55 0.10 11.80 -0.55 13.75 -0.65 1.85 -0.65 2.40 -0.20 2.75 0.80 0.45 4.20 0.50 7.85 0.05z m25.40 0.05 l1.50 -0.30 -0.90 -3 c-0.80 -2.45 -0.95 -4.60 -0.95 -12.30 0.05 -9.95 0.45 -13 2.05 -15.20 l1 -1.40 -1.50 0 c-1.15 0 -1.70 -0.35 -2.30 -1.45 -1.55 -3.05 -3.25 -3.50 -7.40 -1.95 -1.20 0.45 -1.30 0.65 -0.65 1 0.45 0.25 1.20 1.30 1.65 2.30 0.70 1.55 0.85 3.75 0.85 13.85 0.05 6.60 -0.10 12.80 -0.35 13.80 -0.25 1.30 -0.90 2.20 -2.10 3 l-1.75 1.20 1.90 0.30 c2.60 0.45 7.20 0.50 8.95 0.15z m26.55 0 l3.05 -0.35 -1.75 -1.60 -1.70 -1.60 0 -6.45 c0 -3.55 -0.25 -9.30 -0.50 -12.80 -0.40 -5.30 -0.65 -6.75 -1.80 -8.85 -1.10 -2.15 -1.75 -2.75 -4.50 -4.10 -3.70 -1.85 -6.10 -1.80 -9.95 0.20 l-2.30 1.15 3.55 -0.20 c6.45 -0.40 8.20 1.35 9.05 9 0.65 5.65 0.30 21.10 -0.50 23.10 -0.35 0.80 -0.50 1.75 -0.35 2.15 0.30 0.70 2.85 0.85 7.70 0.35z m-367.80 -1.10 c0.40 -0.40 0.35 -1.50 -0.15 -3.70 -0.75 -3.45 -1.05 -34.45 -0.30 -37 0.30 -1.15 0.65 -1.40 2.05 -1.40 0.95 0 2 0.35 2.45 0.90 0.80 0.90 3.65 7.05 7.30 15.85 1.15 2.75 2.45 5.70 2.85 6.60 0.40 0.85 0.70 1.70 0.70 1.90 0 0.20 1.60 3.60 3.50 7.60 l3.50 7.20 1.20 -1.40 c1.75 -2.10 2.40 -3.50 12.30 -26.90 1.15 -2.75 2.75 -6.40 3.55 -8.10 1.40 -3.10 1.45 -3.15 3.40 -3.15 1.40 0 2.05 0.25 2.30 0.90 0.50 1.30 1.25 14 1.25 21.95 0 4 -0.35 9.45 -0.80 12.50 -0.75 4.95 -0.75 5.40 0 5.95 1.15 0.85 5.90 1.35 8.85 0.95 l2.45 -0.35 -1.25 -1.60 c-2.35 -3.05 -2.70 -5.05 -3.15 -18.40 -0.25 -6.95 -0.40 -15.85 -0.30 -19.75 0.10 -6.60 0.20 -7.30 1.50 -10 0.75 -1.60 1.50 -3.10 1.60 -3.35 0.15 -0.25 -1.55 -0.35 -3.85 -0.20 -5.85 0.35 -6.80 1.20 -11.55 10.70 -2.05 4.10 -5.20 10.60 -7 14.45 -6.40 13.70 -6.55 14 -8.65 14.15 l-1.85 0.15 -2.45 -5.15 c-1.35 -2.85 -3.70 -8.20 -5.30 -11.90 -6.75 -15.90 -9 -19.85 -12.30 -21.55 -1.95 -1 -8.95 -1.40 -8.95 -0.55 0 0.25 0.45 0.85 1 1.35 3 2.70 3.45 7.75 2.55 27.65 -0.85 18.25 -1.10 19.85 -3.35 22.15 -1.60 1.65 -1.70 1.90 -0.90 2.10 1.50 0.45 7.25 0 7.80 -0.55z m172.50 -48.95 c2.15 -2.05 1.70 -4.60 -0.95 -5.55 -1.70 -0.55 -3 -0.10 -4.55 1.55 -1.35 1.45 -1.20 2.75 0.55 4.35 1.45 1.40 3.30 1.25 4.95 -0.35z m-222.05 -47.20 c3.85 -1.90 6.35 -6.30 5.75 -10.05 -0.75 -4.75 -6.45 -9.40 -10.60 -8.75 -7.20 1.20 -11.35 9.40 -7.45 14.90 1.80 2.55 3.40 3.75 6.05 4.70 2.15 0.75 3.50 0.60 6.25 -0.80z"/>
  <path d="M311.55 112.60 c-1.20 -0.85 -0.45 -6.95 1.15 -9.90 2.15 -3.85 3.75 -4.85 8.30 -5.10 4.55 -0.25 6.80 0.55 8.85 3.25 1.15 1.45 1.35 2.35 1.55 5.90 0.30 5.70 0.30 5.70 -10.70 6.05 -5.10 0.15 -8.75 0.10 -9.15 -0.20z"/>
  <path d="M480 133.20 c-2.85 -0.95 -4.75 -3.25 -6.40 -7.60 -1.15 -3.05 -1.30 -4.05 -1.30 -10.85 0 -7.05 0.10 -7.70 1.35 -10.70 2.30 -5.55 4.05 -6.70 10.20 -6.75 3.80 -0.05 4.20 0.05 5.90 1.45 1.95 1.60 2.55 2.50 4.35 6.50 1 2.25 1.10 3.30 1.15 11 0 7.85 -0.10 8.70 -1.15 11 -2.10 4.50 -4.30 6.10 -8.95 6.50 -1.90 0.15 -3.70 -0.05 -5.15 -0.55z"/>
  <path d="M624.55 112.30 c-0.50 -0.60 -0.60 -1.75 -0.40 -4.35 0.30 -3.85 1.20 -5.65 4.10 -8.45 1.80 -1.75 1.85 -1.75 6.40 -1.75 4.05 0 4.80 0.15 6.30 1.20 2.35 1.70 3.55 4.55 3.55 8.65 0 4.70 -0.15 4.80 -10.75 5.20 -7.60 0.30 -8.60 0.25 -9.20 -0.50z"/>
 </g>
 <g fill="#041125">
  <path d="M108.50 208.65 c-1.05 -1.15 -7.55 -9.30 -8.70 -10.85 -0.55 -0.75 -1.45 -1.85 -2 -2.55 -2.60 -2.95 -4.60 -5.45 -5 -6.20 -0.25 -0.45 -0.80 -1.10 -1.15 -1.45 -0.35 -0.35 -0.65 -0.80 -0.65 -1 0 -0.20 -3.25 1.25 -7.20 3.15 -21.40 10.45 -37.90 11.90 -43.45 3.85 -1.60 -2.25 -2.85 -6.90 -2.85 -10.40 0 -1.40 0.35 -4.45 0.75 -6.75 0.75 -4.05 3.45 -13.15 4.20 -14.20 0.20 -0.25 0.90 -1.90 1.55 -3.60 0.70 -1.75 1.40 -3.15 1.65 -3.15 0.20 0 0.05 0.65 -0.40 1.45 -1.25 2.50 -3.20 10.80 -3.45 15 -0.55 8.75 2.70 14.20 9.70 16.30 2.05 0.65 9.30 0.35 12.65 -0.50 5.95 -1.55 6.70 -1.80 14.35 -5.40 4.65 -2.15 6.80 -3.30 16.50 -8.95 6.05 -3.50 18 -11.55 23.50 -15.80 2.35 -1.80 5.25 -4.05 6.50 -5 7.50 -5.75 22.65 -20.70 27.35 -27 0.80 -1 1.90 -2.40 2.55 -3.10 2.30 -2.50 11.50 -16.90 13.95 -21.75 7.10 -14 8.75 -26.65 4.40 -33.05 -3.70 -5.45 -9.90 -7.75 -20.35 -7.50 -6.80 0.10 -6.80 0.10 1.20 -3.65 12.25 -5.80 21.45 -8.55 29.40 -8.85 6.90 -0.25 11.75 1.20 15.35 4.65 6.70 6.35 6.45 22.60 -0.70 38.65 -2.55 5.80 -6.70 13.55 -9.80 18.35 -3.95 6.15 -4.80 7.35 -7.35 10.90 -1.35 1.95 -3.10 4.40 -3.85 5.50 -0.70 1.10 -1.70 2.45 -2.20 3 -0.50 0.55 -2.90 3.50 -5.30 6.50 -2.40 3.05 -6.25 7.75 -8.65 10.50 -2.35 2.75 -5.30 6.25 -6.50 7.75 -1.25 1.50 -2.35 2.85 -2.50 3 -0.15 0.15 -0.90 1.15 -1.75 2.25 -0.80 1.10 -1.60 2.10 -1.80 2.25 -0.15 0.15 -3.20 3.85 -6.70 8.25 -3.50 4.40 -6.50 8.10 -6.70 8.25 -0.15 0.15 -0.95 1.15 -1.80 2.25 -0.80 1.10 -1.70 2.25 -2 2.50 -0.30 0.30 -1.20 1.40 -2 2.50 -0.80 1.10 -1.60 2.10 -1.75 2.25 -0.15 0.15 -1.05 1.25 -2 2.50 -0.95 1.25 -2 2.50 -2.25 2.75 -0.30 0.30 -1.20 1.40 -2 2.50 -0.80 1.10 -1.70 2.25 -2 2.50 -0.30 0.30 -1.20 1.40 -2 2.50 -0.75 1.10 -1.65 2.25 -1.95 2.50 -0.35 0.30 -1.35 1.55 -2.30 2.90 -0.90 1.30 -1.85 2.35 -2.05 2.35 -0.20 0 -0.55 0.45 -0.70 1 -0.40 1.20 -0.75 1.25 -1.75 0.15z"/>
  <path d="M648.40 186.90 c-2.05 -0.40 -3.90 -1.75 -3.90 -2.75 0 -0.95 0.85 -0.80 2.45 0.40 1.40 1.05 4 1.35 5.95 0.75 1.25 -0.40 2.60 -3.15 2.60 -5.35 l0 -1.65 -1.35 1.30 c-4.15 3.85 -10.20 0.75 -10.25 -5.30 -0.05 -3.05 1.25 -5.20 3.90 -6.40 2.65 -1.15 4.40 -0.90 6.30 0.85 l1.35 1.25 0.15 -1.35 c0.10 -0.75 0.45 -1.40 0.80 -1.55 0.75 -0.25 0.90 14.60 0.10 16.60 -0.90 2.45 -4.70 3.95 -8.10 3.20z m4.85 -7.90 c1.75 -1.10 2.25 -2.20 2.25 -5.10 0 -2.60 -2.30 -5.10 -4.70 -5.05 -2.40 0.05 -3.75 0.95 -4.65 3 -0.95 2.30 -0.50 4.65 1.15 6.30 1.10 1.10 1.85 1.45 3.90 1.80 0.25 0 1.15 -0.40 2.05 -0.95z"/>
  <path d="M249.10 177.15 c0.10 -7.30 0.30 -9.85 0.80 -10.05 0.40 -0.10 0.60 0.40 0.60 1.50 l0.05 1.65 1.20 -1.40 c1 -1.10 1.75 -1.45 3.45 -1.50 4.20 -0.15 7 2.80 6.90 7.25 -0.10 5.90 -5.95 8.85 -9.95 5.10 l-1.40 -1.30 -0.15 4.30 c-0.10 3.40 -0.30 4.30 -0.90 4.30 -0.60 0 -0.70 -1.40 -0.60 -9.85z m9.30 1.70 c1.25 -1 2.15 -3.75 1.85 -5.55 -0.85 -4.35 -5.50 -5.90 -8.35 -2.75 -2.50 2.65 -1.50 7.60 1.80 9 1.25 0.50 3.65 0.20 4.70 -0.70z"/>
  <path d="M270.10 177.15 c0.10 -7.30 0.30 -9.85 0.80 -10.05 0.40 -0.10 0.60 0.35 0.60 1.50 l0 1.65 1.15 -1.30 c2.05 -2.40 5.90 -2.30 8.35 0.15 5 4.95 0.50 14.25 -5.75 11.90 -0.85 -0.30 -2 -1.05 -2.60 -1.60 l-1.15 -1.05 0 4.30 c0 3.55 -0.15 4.35 -0.75 4.35 -0.65 0 -0.75 -1.30 -0.65 -9.85z m9.45 1.55 c3.55 -3.20 1.25 -9.80 -3.35 -9.80 -5.30 0 -6.50 8.50 -1.50 10.65 1.35 0.55 3.75 0.15 4.85 -0.85z"/>
  <path d="M723.50 177 c0 -7.85 0.15 -10.05 0.65 -9.90 0.30 0.15 0.65 0.70 0.75 1.30 0.20 1.35 0.50 1.35 1.95 0 1.40 -1.35 5 -1.45 6.85 -0.25 2.80 1.85 3.85 6.90 2.15 10.20 -1.65 3.20 -6.70 3.95 -9.10 1.35 -0.60 -0.65 -1.25 -1.20 -1.45 -1.20 -0.15 0 -0.25 1.85 -0.20 4.10 0.15 3.60 0.05 4.15 -0.70 4.30 -0.85 0.15 -0.90 -0.55 -0.90 -9.90z m8.20 2.50 c1.60 -0.60 3.30 -3.25 3.30 -5.15 0 -2.15 -1.40 -4.35 -3.30 -5.15 -1.45 -0.60 -1.95 -0.60 -3.40 0 -2.15 0.90 -3 2.40 -2.95 5.25 0.05 3.10 1.70 5.05 4.75 5.50 0.20 0.05 0.90 -0.15 1.60 -0.45z"/>
  <path d="M225.25 180.10 c0.30 -1.25 4.50 -11.55 6.05 -14.80 0.40 -0.80 0.70 -1.75 0.70 -2.05 0 -0.80 1.15 -1.25 1.90 -0.80 0.30 0.20 1.35 2.25 2.30 4.55 0.95 2.35 2.60 6.45 3.70 9.10 1.85 4.45 2 6 0.55 5.15 -0.25 -0.20 -1.05 -1.55 -1.70 -3.05 l-1.20 -2.75 -4.40 0.15 -4.35 0.15 -1 2.60 c-0.60 1.55 -1.40 2.70 -1.95 2.85 -0.80 0.20 -0.90 0.05 -0.60 -1.10z m11.75 -6.30 c0 -0.10 -0.75 -2.15 -1.65 -4.50 -2 -5.15 -2.30 -5 -5.10 2.85 l-0.70 1.85 3.70 0 c2.05 0 3.75 -0.10 3.75 -0.20z"/>
  <path d="M293.85 180.65 c-2.30 -0.95 -3.85 -3.65 -3.85 -6.70 0 -4.10 4.30 -7.45 8.45 -6.65 0.90 0.20 2.25 1.15 3.30 2.25 1.50 1.70 1.75 2.30 1.75 4.50 0 3.15 -1.30 5.50 -3.70 6.65 -2.10 1 -3.50 1 -5.95 -0.05z m5.50 -1.65 c3.45 -2.10 3 -8.25 -0.70 -9.80 -1.40 -0.60 -1.90 -0.60 -3.35 0 -4.40 1.85 -4.65 8.25 -0.40 10 2.40 1 2.55 0.95 4.45 -0.20z"/>
  <path d="M311.50 174.25 c0 -5.65 0.15 -7.30 0.65 -7.10 0.45 0.15 0.60 2 0.60 7.10 0 5.10 -0.15 6.95 -0.60 7.15 -0.50 0.15 -0.65 -1.50 -0.65 -7.15z"/>
  <path d="M321.50 174.20 c0 -6.65 0.05 -7.25 0.90 -7.10 0.60 0.15 0.80 0.60 0.70 1.55 -0.15 1.55 0.40 1.75 1.60 0.45 0.45 -0.55 1.70 -1.20 2.75 -1.55 2.35 -0.70 4.20 -0.10 5.10 1.55 0.80 1.55 1.15 10.85 0.40 11.70 -1.15 1.40 -1.45 0.60 -1.45 -4 0 -2.60 -0.20 -5.30 -0.50 -6.05 -0.95 -2.50 -4.45 -2.45 -6.50 0.10 -0.85 1.10 -1 2.05 -1 5.95 0 4.35 -0.05 4.70 -1 4.70 -0.95 0 -1 -0.35 -1 -7.30z"/>
  <path d="M343 180.40 c-0.85 -0.95 -1 -1.75 -1 -6.20 0 -4.65 -0.10 -5.10 -1 -5.35 -1.25 -0.35 -1.30 -1.20 -0.05 -1.60 0.75 -0.20 1.05 -0.85 1.15 -2.40 0.20 -2.95 1.60 -2.90 1.80 0.05 0.15 1.95 0.25 2.10 1.55 2.10 1.65 0 2.10 0.35 1.70 1.30 -0.15 0.40 -0.90 0.70 -1.70 0.70 l-1.50 0 0.15 5.15 0.15 5.10 1.90 0.15 c2.05 0.20 2.55 1.30 0.75 1.80 -1.95 0.50 -2.85 0.35 -3.90 -0.80z"/>
  <path d="M355.25 180.95 c-0.15 -0.40 -0.20 -3.65 -0.15 -7.20 0.10 -4.60 0.35 -6.50 0.80 -6.65 0.40 -0.10 0.60 0.35 0.60 1.35 0 1.75 0.50 2 1.30 0.65 0.35 -0.50 1.50 -1.20 2.60 -1.50 2.50 -0.75 4.25 -0.20 5.25 1.70 l0.70 1.30 1.05 -1.45 c0.70 -1 1.65 -1.60 2.80 -1.80 4.25 -0.70 5.45 0.95 5.55 7.90 0.10 4.75 -0.30 6.60 -1.30 5.95 -0.25 -0.15 -0.45 -2.30 -0.45 -4.75 0 -4.50 -0.70 -7.05 -2.10 -7.55 -1.25 -0.45 -3.80 0.60 -4.65 1.95 -0.65 1 -0.90 2.35 -0.85 5.45 0 3 -0.20 4.30 -0.70 4.75 -0.40 0.35 -0.80 0.50 -0.90 0.40 -0.10 -0.10 -0.30 -2.60 -0.40 -5.55 -0.20 -5.90 -0.70 -7 -3.10 -7 -2.95 0 -4.95 3.50 -4.75 8.45 0.10 3.10 -0.65 5.25 -1.30 3.60z"/>
  <path d="M388.05 181.15 c-0.65 -0.10 -1.75 -0.85 -2.45 -1.55 -3.15 -3.35 -3.25 -7.45 -0.30 -10.30 3.65 -3.55 9.40 -2.35 11.15 2.35 1.25 3.25 1.15 3.30 -5.30 3.45 -3.75 0.10 -5.90 0.35 -6 0.70 -0.10 0.35 0.55 1.40 1.50 2.40 2.15 2.25 4.50 2.45 6.75 0.55 1.20 -1 1.60 -1.10 2.05 -0.60 0.40 0.50 0.15 0.95 -1 1.80 -1.60 1.15 -4.20 1.65 -6.40 1.20z m6.95 -8.40 c0 -1.35 -2.10 -3.70 -3.60 -4 -2.05 -0.45 -4.55 0.55 -5.55 2.20 -1.45 2.45 -1.25 2.55 4.15 2.55 4.15 0 5 -0.15 5 -0.75z"/>
  <path d="M404.45 175.90 c-0.10 -7.45 -0.10 -8.40 0.20 -8.75 0.55 -0.55 1.35 0.45 1.35 1.70 l0 1.30 1.15 -1 c0.60 -0.60 2.10 -1.30 3.30 -1.65 4.35 -1.15 5.70 1.15 5.45 9 -0.10 3.80 -0.30 4.75 -0.90 4.75 -0.60 0 -0.75 -0.90 -0.85 -4.75 -0.10 -2.60 -0.25 -5.20 -0.40 -5.80 -0.55 -2.45 -5 -2.35 -6.60 0.15 -0.65 0.95 -1 2.75 -1.15 5.85 -0.15 2.95 -0.45 4.55 -0.85 4.70 -0.50 0.15 -0.65 -1.20 -0.70 -5.50z"/>
  <path d="M426.15 180.90 c-1.25 -0.60 -1.60 -2.25 -1.60 -7.15 0.05 -5.30 0.05 -5.40 -0.80 -5.05 -1.10 0.40 -0.95 -1.05 0.20 -1.65 0.65 -0.35 0.85 -0.90 0.70 -1.80 -0.25 -1.20 0.55 -2.75 1.40 -2.75 0.25 0 0.45 1 0.45 2.25 0 2.25 0 2.25 1.80 2.25 1.40 0 1.75 0.15 1.60 0.90 -0.10 0.55 -0.70 0.90 -1.80 1 l-1.60 0.15 0 4.60 c0 2.55 0.20 4.95 0.50 5.35 0.25 0.45 1.10 0.65 2.20 0.60 2.10 -0.15 2.40 0.70 0.50 1.40 -1.55 0.60 -2.15 0.60 -3.55 -0.10z"/>
  <path d="M438.65 180.65 c-1.20 -0.50 -2.15 -1.05 -2.15 -1.25 0 -0.85 1.35 -0.90 2.80 -0.15 3.10 1.60 7.25 0.25 6.50 -2.15 -0.30 -0.80 -1.25 -1.35 -3.85 -2.15 -1.90 -0.60 -3.80 -1.40 -4.20 -1.80 -2.20 -2.15 0.75 -6.15 4.50 -6.15 1.95 0 4.75 1.35 4.75 2.30 0 0.45 -0.30 0.70 -0.60 0.55 -3.70 -1.35 -4.30 -1.45 -5.70 -1 -1.10 0.35 -1.50 0.80 -1.60 2 -0.15 1.50 -0.05 1.55 3.50 2.65 2 0.60 3.95 1.35 4.30 1.60 0.90 0.75 0.75 3.60 -0.25 4.85 -1.25 1.50 -5.20 1.80 -8 0.70z"/>
  <path d="M467.40 180.75 c-2.45 -1.35 -2.55 -4.75 -0.25 -6.45 1.10 -0.80 2.15 -1.05 4.50 -1.05 3.30 0 4 -0.40 3.55 -2 -0.75 -2.45 -3.90 -3.45 -6.65 -2 -1.35 0.65 -2.05 0.55 -2.05 -0.30 0 -0.65 4.95 -2.05 6.10 -1.70 1.95 0.55 3.35 1.35 3.70 2.20 0.20 0.45 0.55 2.85 0.70 5.30 0.15 2.50 0.40 4.80 0.55 5.20 0.10 0.40 -0.15 0.80 -0.65 0.90 -0.50 0.15 -0.95 -0.20 -1.15 -0.80 l-0.30 -1.05 -1.40 1.05 c-1.85 1.35 -4.90 1.70 -6.65 0.70z m6.65 -2.20 c2.55 -2.60 1.75 -4.15 -2.20 -4.25 -3.40 -0.05 -5.10 1.15 -4.60 3.20 0.70 2.90 4.35 3.45 6.80 1.05z"/>
  <path d="M487 180.50 c-0.90 -0.90 -1 -1.65 -1 -6.45 0 -4.75 -0.10 -5.45 -0.80 -5.35 -1.25 0.10 -1.40 -1.05 -0.25 -1.45 0.75 -0.20 1.05 -0.80 1.15 -2.40 0.20 -3 1.55 -2.90 1.90 0.15 0.20 2 0.40 2.25 1.50 2.25 0.80 0 1.25 0.30 1.25 0.75 0 0.45 -0.45 0.75 -1.25 0.75 -1.25 0 -1.25 0.05 -1.40 5 -0.15 5.45 0.25 6.35 2.65 5.85 1.50 -0.25 1.65 0.65 0.30 1.40 -1.50 0.80 -2.95 0.60 -4.05 -0.50z"/>
  <path d="M515.30 181.15 c-0.15 -0.20 -0.30 -1.85 -0.30 -3.70 0 -3.60 0.05 -3.55 -4.35 -10.15 -2.25 -3.40 -2.75 -4.85 -1.80 -5.15 0.50 -0.20 4.05 4.80 5.90 8.30 0.40 0.85 1.05 1.40 1.40 1.25 0.30 -0.15 1.60 -2 2.80 -4.10 2.60 -4.55 3.45 -5.60 4.45 -5.60 1 0 0.65 0.75 -3.15 6.80 -3.20 5.05 -3.25 5.20 -3.25 8.60 0 2.55 -0.20 3.55 -0.70 3.75 -0.40 0.15 -0.85 0.15 -1 0z"/>
  <path d="M532 180.85 c-5.50 -2.60 -5.55 -10.25 -0.15 -12.90 2.50 -1.20 4.55 -0.95 7 0.85 4.70 3.55 2.45 11.85 -3.35 12.45 -1.25 0.10 -2.80 -0.05 -3.50 -0.40z m4.35 -1.40 c4.90 -1.70 3.55 -10.75 -1.55 -10.60 -2.40 0.05 -3.80 0.95 -4.65 3 -1.50 3.65 0.50 7.35 4.40 8.10 0.15 0 1 -0.20 1.80 -0.50z"/>
  <path d="M551.20 180.80 c-1.75 -1.25 -2.25 -3.25 -2.10 -8.60 0.10 -4 0.30 -4.95 0.90 -4.95 0.60 0 0.75 0.90 0.85 4.65 0 2.60 0.20 5.25 0.35 5.90 0.45 1.65 2.50 2.45 4.35 1.70 2.70 -1.15 3.20 -2.20 3.45 -7.40 0.20 -3.85 0.40 -4.85 1 -4.85 0.60 0 0.80 1.25 1.05 7 0.15 3.85 0.25 7.10 0.15 7.15 -0.30 0.40 -2.20 -2 -1.95 -2.40 0.60 -0.95 -0.45 -0.50 -1.70 0.70 -1.65 1.60 -4.90 2.15 -6.35 1.10z"/>
  <path d="M569.50 174.25 c0 -6.10 0.10 -7.25 0.75 -7.25 0.50 0 0.75 0.50 0.75 1.50 0 1.70 0.60 1.90 1.55 0.55 0.75 -1.05 3.95 -1.95 3.95 -1.10 0 0.25 -0.75 0.85 -1.70 1.30 -3.05 1.45 -3.45 2.25 -3.35 6.80 0.05 3.85 -0.40 5.45 -1.50 5.45 -0.25 0 -0.45 -3.25 -0.45 -7.25z"/>
  <path d="M594.50 171.90 l0 -9.65 6.15 0 c5.10 0 6.10 0.10 6.10 0.75 0 0.60 -0.95 0.80 -5.10 0.90 -5.80 0.15 -5.55 -0.10 -5.25 5.75 l0.10 1.35 4.25 0 c3.40 0 4.25 0.15 4.25 0.75 0 0.55 -0.95 0.75 -4.35 0.85 l-4.35 0.15 0 3.75 c-0.05 3.70 -0.40 5 -1.35 5 -0.25 0 -0.45 -3.95 -0.45 -9.60z"/>
  <path d="M614.50 174.25 c0 -5.65 0.15 -7.30 0.65 -7.10 0.45 0.15 0.60 2 0.60 7.10 0 5.10 -0.15 6.95 -0.60 7.15 -0.50 0.15 -0.65 -1.50 -0.65 -7.15z"/>
  <path d="M624.50 174.15 c0 -6.40 0.10 -7.20 0.80 -6.95 0.45 0.15 0.90 0.30 1 0.30 0.10 0 0.10 0.55 -0.10 1.25 -0.35 1.45 0.30 1.60 1.50 0.35 0.45 -0.55 1.70 -1.20 2.80 -1.55 1.65 -0.50 2.25 -0.45 3.45 0.20 0.80 0.40 1.65 1.25 1.85 1.85 0.55 1.75 0.60 10.60 0.05 11.30 -1.05 1.35 -1.35 0.40 -1.35 -4.10 0 -2.60 -0.20 -5.30 -0.50 -6.05 -0.95 -2.50 -4.45 -2.45 -6.50 0.10 -0.85 1.05 -1 2.05 -1 5.85 0 4.25 -0.10 4.60 -1 4.65 -0.95 0.10 -1 -0.20 -1 -7.20z"/>
  <path d="M669.15 180.85 c-2.20 -0.80 -3.55 -2.40 -4.10 -4.85 -0.85 -3.75 0.80 -6.85 4.35 -8.35 1.75 -0.75 5.60 -0.50 5.60 0.35 0 0.25 0.45 0.55 0.95 0.75 1 0.30 2.55 3.55 2.55 5.25 0 0.95 -0.35 1 -5.65 1 -3.15 0 -5.80 0.15 -6 0.30 -0.45 0.50 1 3.05 2.25 3.90 1.70 1.20 4.25 1 6 -0.50 1.05 -0.85 1.70 -1.10 2.05 -0.75 0.70 0.70 -0.45 2 -2.50 2.90 -1.90 0.80 -3.35 0.80 -5.50 0z m7.35 -8.25 c0 -2.55 -3.90 -4.70 -6.60 -3.65 -1.25 0.45 -3.40 3.15 -3.40 4.20 0 0.20 2.25 0.35 5 0.35 4.45 0 5 -0.10 5 -0.90z"/>
  <path d="M686.25 180.90 c-0.15 -0.40 -0.20 -3.60 -0.15 -7.15 0.10 -4.60 0.35 -6.50 0.80 -6.65 0.40 -0.10 0.60 0.40 0.60 1.75 l0 1.90 1.15 -1.35 c1.15 -1.45 4.35 -2.50 4.35 -1.45 0 0.30 -0.60 0.80 -1.35 1.10 -0.80 0.30 -2 1.10 -2.75 1.85 -1.30 1.20 -1.40 1.55 -1.40 5.65 0 4 -0.60 6.05 -1.25 4.35z"/>
  <path d="M701.30 180.70 c-0.95 -0.90 -0.90 -0.60 -1 -6.95 -0.05 -4.55 -0.15 -5 -1 -5 -1.40 0 -1.50 -0.95 -0.20 -1.50 0.80 -0.35 1.15 -0.95 1.20 -2 0.10 -2.60 0.20 -2.85 0.85 -2.65 0.30 0.15 0.70 1.20 0.85 2.45 0.20 1.85 0.40 2.20 1.25 2.10 0.55 -0.10 1.30 0.05 1.70 0.30 1.05 0.65 0.15 1.65 -1.35 1.45 l-1.35 -0.15 -0.15 4.70 c-0.15 5.15 0.20 6.05 2.45 6.05 1.75 0 2 1.25 0.35 1.70 -1.85 0.45 -2.80 0.35 -3.60 -0.50z"/>
  <path d="M713.25 180.90 c-0.15 -0.40 -0.20 -3.60 -0.15 -7.20 0.15 -5.35 0.30 -6.45 0.90 -6.45 0.65 0 0.75 1.10 0.75 6.95 0 5.15 -0.15 7 -0.60 7.15 -0.35 0.15 -0.75 -0.10 -0.90 -0.45z"/>
  <path d="M746.20 181 c-1.65 -0.50 -3.05 -1.80 -2.55 -2.30 0.15 -0.20 1.20 0.05 2.35 0.50 3.55 1.40 6.50 0.80 6.50 -1.40 0 -1.55 -0.65 -2.05 -4.10 -3.05 -3.40 -0.95 -4.40 -1.80 -4.40 -3.70 0 -2.25 2.10 -3.80 5.05 -3.75 2.65 0.05 4.95 1 4.95 2.05 0 0.80 -0.15 0.80 -2.35 -0.10 -2.35 -1 -3.80 -0.95 -5.15 0.15 -1.95 1.55 -1 2.90 2.90 4.10 4.30 1.30 4.60 1.50 4.90 3.55 0.25 1.40 0.05 1.90 -1 2.90 -1.40 1.30 -4.60 1.80 -7.10 1.05z"/>
  <path d="M311.30 163.65 c-0.20 -0.45 0 -1.15 0.40 -1.60 0.70 -0.65 0.80 -0.65 1.10 0.10 0.35 1 -0.05 2.35 -0.75 2.35 -0.25 0 -0.60 -0.40 -0.75 -0.85z"/>
  <path d="M614.35 163.50 c-0.30 -1.25 1 -2.50 1.45 -1.30 0.35 0.95 -0.05 2.30 -0.75 2.30 -0.25 0 -0.55 -0.45 -0.70 -1z"/>
  <path d="M713.20 163.80 c-0.40 -1.10 0.15 -2.45 0.95 -2.15 0.30 0.10 0.60 0.70 0.60 1.35 0 1.35 -1.10 1.95 -1.55 0.80z"/>
  <path d="M317.25 135.80 c-7.10 -1.80 -11.65 -6.40 -13.55 -13.55 -0.40 -1.50 -0.60 -4.50 -0.55 -7.50 0.15 -4.50 0.30 -5.35 1.85 -8.50 1.90 -3.95 5.55 -7.90 9 -9.65 6.05 -3 14.75 -2.35 19.60 1.50 3.30 2.60 5.50 7.85 4.95 11.90 -0.25 1.85 -0.55 2.30 -2.05 3.05 -1.90 0.95 -6.80 1.70 -14.75 2.25 -8.05 0.50 -10 1.90 -8.75 6.10 0.20 0.85 0.30 1.65 0.15 1.80 -0.15 0.15 1.05 1.60 2.70 3.25 5 4.95 8.80 5.35 18.40 1.90 2.45 -0.90 3.25 -0.65 3.25 1.15 0 4.25 -12.75 8.25 -20.25 6.30z m11.70 -25.65 c1.05 -0.70 1.15 -1 0.90 -3.50 -0.50 -4.95 -4.20 -8.05 -8.95 -7.50 -3 0.35 -4.85 1.80 -6.65 5 -1.45 2.60 -2 6.35 -1.10 7 1.05 0.75 14.45 -0.10 15.80 -1z"/>
  <path d="M359.25 136.20 c-4.60 -1.15 -9.40 -5.65 -11.30 -10.70 -1.25 -3.25 -1.70 -11 -0.90 -14.50 1.55 -6.35 4.85 -10.65 10.35 -13.35 3.75 -1.90 3.85 -1.90 10.05 -1.90 6.15 -0.05 6.30 -0.05 6.95 -1.25 0.80 -1.50 0.50 -10.85 -0.40 -12.50 -0.30 -0.60 -1.35 -1.95 -2.30 -3 -1 -1.10 -1.60 -2.20 -1.40 -2.65 0.30 -0.90 3.40 -1.75 7.80 -2.15 2.70 -0.25 3.35 -0.15 4.40 0.70 l1.25 1 0.30 26.20 c0.15 14.35 0.30 26.20 0.35 26.25 0.05 0.10 1 1.10 2.10 2.25 1.15 1.15 1.95 2.40 1.90 2.85 -0.25 1.20 -2.40 2 -6.20 2.35 -3.40 0.30 -3.50 0.25 -5.65 -1.45 l-2.25 -1.75 -3.45 1.75 c-2.80 1.40 -4.20 1.75 -7.05 1.90 -1.95 0.10 -4 0.10 -4.55 -0.05z m11.20 -6 c0.80 -0.45 2 -1.80 2.65 -2.90 1.10 -1.95 1.15 -2.45 1.15 -12.55 0 -10.25 -0.05 -10.55 -1.20 -12.05 -1.35 -1.85 -2.85 -2.60 -5.75 -3 -6.95 -0.95 -11.65 4.70 -11.85 14.30 -0.25 8.95 2.30 14.95 7.05 16.95 1.70 0.75 6.15 0.30 7.95 -0.75z"/>
  <path d="M437.70 135.80 c-4 -0.95 -5.40 -1.70 -8.50 -4.65 -4.30 -4.10 -6.30 -9.80 -5.95 -16.70 0.45 -9.35 5.70 -16 14.70 -18.75 5.05 -1.55 14.15 -0.60 17.25 1.85 2.35 1.85 2.70 6.10 0.70 8.25 -1.35 1.50 -2.70 1 -5.85 -1.95 -2.70 -2.55 -6 -4.30 -8.05 -4.35 -2.70 0 -6.10 2.50 -7.85 5.85 -1.95 3.75 -2.10 13.65 -0.25 17.75 2.30 5.20 5.85 7.60 11.35 7.60 2.70 0 4.15 -0.30 6.50 -1.35 3.80 -1.65 4.75 -1.80 5.40 -0.75 0.45 0.70 0.35 1.15 -0.45 2.25 -3.05 4.10 -12.25 6.45 -19 4.95z"/>
  <path d="M478.25 135.85 c-3.60 -0.95 -5.70 -2.15 -8.15 -4.70 -3.85 -4.05 -5.70 -9.15 -5.65 -15.75 0 -6.45 1.80 -11.20 5.65 -15.05 8.50 -8.50 24.30 -7.40 30.45 2.20 4.75 7.45 4.65 18.20 -0.25 25.55 -2 3.05 -4.05 4.65 -8.50 6.70 -3.50 1.60 -9.60 2.05 -13.55 1.05z m9.75 -4.60 c1.85 -0.95 3.30 -2.70 4.60 -5.50 1.05 -2.25 1.15 -3.20 1.10 -9.50 0 -6.10 -0.15 -7.30 -1.15 -9.50 -1.75 -4 -2.35 -4.90 -4.25 -6.45 -1.45 -1.20 -2.20 -1.45 -4.45 -1.40 -4.60 0.05 -6.55 1.50 -8.70 6.65 -1.20 2.85 -1.30 3.80 -1.30 9.20 0 5.15 0.20 6.50 1.25 9.35 1.65 4.40 3.55 6.65 6.40 7.55 2.35 0.80 4.40 0.65 6.50 -0.40z"/>
  <path d="M629.50 135.60 c-3.20 -0.85 -7.20 -3.30 -9.10 -5.55 -2.95 -3.55 -4.40 -8.70 -4.25 -15.30 0.10 -4.50 0.30 -5.35 1.75 -8.35 2.15 -4.45 5.70 -8.05 9.95 -10.05 3 -1.35 3.90 -1.55 7.65 -1.55 6.75 0.05 10.70 1.90 13.70 6.45 1.90 2.85 2.80 6.30 2.35 9.05 -0.50 3.15 -3.80 4.10 -16.80 5 -8.05 0.50 -10 1.85 -8.80 6.10 0.25 0.85 0.35 1.60 0.25 1.60 -0.85 0 3.35 4.70 5 5.70 4.10 2.35 7.75 2.45 13.75 0.35 2.35 -0.80 4.55 -1.35 4.90 -1.20 0.95 0.35 0.80 2.85 -0.25 3.80 -1.55 1.45 -7.40 3.85 -10.40 4.35 -4 0.65 -5.90 0.60 -9.70 -0.40z m12.40 -25.40 c2.25 -1.50 0.80 -7.45 -2.45 -9.75 -1.35 -0.95 -2.30 -1.20 -4.80 -1.20 -2.85 0 -3.25 0.15 -4.90 1.75 -2.45 2.35 -3.55 4.30 -4 6.90 -0.60 3.60 -0.20 3.80 8 3.40 4.75 -0.25 7.35 -0.60 8.15 -1.10z"/>
  <path d="M673.70 135.80 c-4 -0.90 -5.40 -1.70 -8.55 -4.70 -4.30 -4.15 -6.25 -9.80 -5.85 -16.75 0.65 -11.70 8.95 -19.30 21 -19.40 4.50 0 8.90 1.05 10.90 2.60 2.40 1.85 2.75 6.05 0.70 8.25 -1.35 1.50 -2.65 1.05 -6.05 -2.10 -3.30 -3.10 -6.50 -4.45 -9.10 -4 -2.45 0.45 -5.35 3.25 -6.80 6.45 -1.05 2.25 -1.20 3.35 -1.20 8.60 0 5.60 0.10 6.20 1.40 8.75 1.80 3.45 2.55 4.25 5.30 5.90 3.20 1.85 8.10 1.85 12.30 -0.05 3.80 -1.65 4.75 -1.80 5.40 -0.75 0.45 0.70 0.35 1.15 -0.45 2.25 -3.05 4.10 -12.25 6.45 -19 4.95z"/>
  <path d="M398.40 135.65 c-2.10 -0.35 -1.80 -2 0.65 -4.15 1.40 -1.20 2.15 -2.35 2.50 -3.75 0.25 -1.10 0.45 -6.70 0.40 -12.50 -0.05 -12.05 -0.25 -13 -3.40 -14.80 -2.20 -1.20 -2.50 -1.95 -1.30 -3.15 1.40 -1.40 8.85 -2.75 11.40 -2.10 2.10 0.50 2.30 1.90 2.35 17.25 0.05 8.30 0.30 15.25 0.60 16.20 0.30 1 1.20 2.15 2.35 2.85 2.90 2 3.20 2.75 1.30 3.50 -1.35 0.50 -14.65 1.05 -16.85 0.65z"/>
  <path d="M711.25 135.20 c-4.95 -2.70 -5.95 -6.10 -6.20 -21.05 -0.15 -9.40 -0.60 -11.70 -2.85 -13.95 -0.95 -0.90 -1.70 -1.95 -1.70 -2.35 0 -0.35 0.90 -1.35 2 -2.20 1.45 -1.10 2.70 -2.85 4.40 -6.20 1.85 -3.65 2.65 -4.75 3.75 -5.10 1.70 -0.55 3.35 0.65 3.35 2.40 0 0.60 0.35 2.25 0.75 3.65 0.85 2.80 1.65 3.45 5.60 4.60 2.50 0.75 4.25 2.20 3.85 3.25 -0.15 0.40 -1.90 1.20 -3.90 1.80 -1.95 0.55 -3.95 1.40 -4.45 1.90 -1.35 1.30 -2 6.75 -1.75 15.25 0.15 6.35 0.35 7.90 1.25 9.90 0.90 1.95 1.35 2.40 2.75 2.65 0.95 0.20 2.95 0.10 4.45 -0.20 4.85 -0.90 5 1.75 0.25 4.70 -2.10 1.25 -3.05 1.50 -6.25 1.65 -2.80 0.10 -4.20 -0.10 -5.30 -0.70z"/>
  <path d="M513.60 134.90 c-1.90 -0.40 -2.10 -0.60 -1.80 -1.55 0.20 -0.60 0.75 -1.40 1.30 -1.75 0.50 -0.40 1.55 -1.20 2.30 -1.85 l1.35 -1.15 0 -12.20 c0 -13.25 -0.25 -14.40 -3 -16.20 -0.70 -0.45 -1.25 -1.25 -1.25 -1.75 0 -1.20 1.65 -1.90 6.15 -2.55 4.15 -0.65 5.50 -0.15 6.55 2.35 0.40 0.95 0.95 1.75 1.15 1.75 0.20 0 1.75 -0.80 3.40 -1.80 6.70 -4.05 13.55 -4.30 18.20 -0.65 3.50 2.75 4.40 6.75 4.50 20.20 0.10 10.60 0.25 11.45 2.25 12.85 4.05 2.90 3.95 3.70 -0.50 4.40 -3.25 0.55 -9.85 0.65 -11.55 0.20 -1.65 -0.45 -1.70 -1.30 -0.35 -4.65 1.20 -2.90 1.20 -3.30 1.05 -13.15 -0.25 -10.60 -0.60 -12.85 -2.50 -15.10 -3.15 -3.65 -12.15 -1 -13.95 4.10 -0.45 1.30 -0.65 4.80 -0.65 11.65 l0 9.80 1.60 3.05 c1.40 2.75 1.45 3.15 0.80 3.70 -1 0.80 -11.85 1 -15.05 0.30z"/>
  <path d="M567.25 135.25 c-0.25 -0.10 -1.10 -0.30 -1.85 -0.45 -2.10 -0.50 -1.75 -1.95 0.85 -3.85 1.65 -1.20 2.35 -2.05 2.60 -3.40 0.25 -1 0.40 -6.50 0.35 -12.30 -0.05 -11.35 -0.45 -13.55 -2.80 -14.80 -3.50 -1.85 -1.25 -3.95 5 -4.70 3.90 -0.45 4.70 -0.15 6.05 2.30 0.65 1.10 1.30 1.95 1.45 1.85 0.20 -0.10 2.25 -1.15 4.60 -2.35 3.55 -1.85 4.85 -2.25 7.90 -2.45 3.30 -0.20 3.90 -0.10 6.80 1.35 5.70 2.80 6.60 6.05 6.75 24.70 l0.05 7.45 1.55 1.40 c0.85 0.75 2 1.75 2.50 2.20 1.25 1.05 1.20 2.10 -0.15 2.50 -0.65 0.20 -3.95 0.50 -7.40 0.60 -8.20 0.40 -8.60 0.15 -7 -4.10 1 -2.55 1.15 -4.05 1.25 -10.95 0.25 -13.30 -0.75 -17.80 -4.25 -19.25 -2.95 -1.25 -8.75 0.50 -10.90 3.25 -1.55 1.95 -2.10 5.60 -2.10 13.90 0 7.85 0.35 10.10 2.15 13.75 1.50 3.10 1.05 3.35 -6.55 3.45 -3.50 0.05 -6.55 0 -6.85 -0.10z"/>
  <path d="M226.15 134.45 c-2 -0.60 -1.80 -1.35 1.15 -4.45 2.05 -2.10 2.25 -2.55 2.65 -6 0.65 -5.10 1.30 -19.60 1.30 -29 0 -8.25 -0.40 -10.15 -2.80 -12.30 -0.55 -0.50 -1.35 -1.55 -1.75 -2.30 -0.65 -1.25 -0.60 -1.40 0.25 -1.90 0.55 -0.25 3.15 -0.50 5.80 -0.50 7.65 0 9.35 1.30 13.75 10.65 1.30 2.80 3.70 8.15 5.25 11.85 4.50 10.50 7.70 17.10 8.20 16.80 0.45 -0.30 3.25 -5.90 7.30 -14.55 10.05 -21.45 11.65 -23.90 15.95 -24.50 6.20 -0.85 9.90 -0.50 10.50 1 0.15 0.40 -0.30 1.40 -1 2.20 -0.65 0.80 -1.70 2.50 -2.25 3.80 -0.95 2.10 -1 3.25 -1 14.90 0 11.15 0.15 15.70 0.80 23.15 0.25 2.80 1.25 5.05 3.45 7.65 1.70 2.05 1.80 2.30 1.05 2.85 -1.95 1.45 -11.90 1.55 -14.95 0.15 -1.60 -0.75 -1.55 0.15 -0.05 -9.45 1 -6.50 0.70 -25.20 -0.50 -30.85 -0.60 -2.65 -1.50 -1.15 -6.25 10.10 -11.65 27.55 -11.90 28.05 -14.80 28.35 -1.35 0.15 -1.60 -0.10 -4.20 -5.25 -1.50 -2.95 -3.15 -6.45 -3.70 -7.75 -0.50 -1.30 -1.25 -3 -1.60 -3.85 -0.35 -0.80 -1.85 -4.40 -3.40 -8 -4.20 -10 -6.10 -13.95 -6.95 -14.70 -0.70 -0.55 -0.85 -0.45 -1.20 0.80 -0.85 3.25 -0.35 33.55 0.60 35.10 0.10 0.20 0.35 1.40 0.50 2.60 0.25 1.80 0.10 2.45 -0.50 2.95 -1.05 0.85 -9.25 1.20 -11.60 0.45z"/>
  <path d="M404.50 86.55 c-2.80 -0.65 -4 -2.30 -4 -5.40 0 -5.10 8.45 -7.10 10.80 -2.55 2.20 4.20 -1.95 9.10 -6.80 7.95z"/>
  <path d="M178.80 38.80 c-9.70 -3.60 -10.75 -17 -1.75 -21.50 10.45 -5.20 21.15 5.80 15.75 16.15 -2.40 4.55 -9.15 7.15 -14 5.35z"/>
 </g>
 <g fill="#17bf8f">
  <path d="M80.75 174 c-0.15 -0.55 -0.50 -1 -0.70 -1 -0.40 0 -3.45 -3.75 -7 -8.45 -0.95 -1.25 -2.50 -3.10 -3.40 -4.05 -0.90 -0.95 -1.65 -1.90 -1.65 -2.05 0 -0.20 -0.65 -1.10 -1.50 -2 -0.80 -0.95 -1.50 -1.85 -1.50 -2 0 -0.15 -0.45 -0.85 -1.05 -1.50 -0.60 -0.65 -2 -2.65 -3.15 -4.45 -1.10 -1.80 -2.35 -3.70 -2.70 -4.25 -0.60 -0.95 -2.45 -4.80 -4.60 -9.60 -1.55 -3.40 -3.45 -11.20 -3.75 -15.45 -0.20 -2.15 -0.40 -4.20 -0.50 -4.55 -0.35 -1.10 0.80 -10.70 1.70 -14.55 0.95 -3.95 5.05 -14.35 6.60 -16.60 0.45 -0.70 1.80 -2.70 2.95 -4.45 6.85 -10.30 18.75 -19.45 30.15 -23.10 14.25 -4.60 30.25 -3.65 43.25 2.55 2.30 1.10 4.50 2 4.90 2 0.40 0 0.70 0.20 0.70 0.45 0 0.25 1.50 1.40 3.35 2.60 2.90 1.90 12.25 10.55 12.55 11.60 0.10 0.45 1.10 1.65 2.25 2.75 0.45 0.45 0.85 1.05 0.85 1.35 0 0.30 0.55 1.30 1.25 2.20 1.90 2.60 6.25 11.85 6.25 13.25 0 2.35 -7.40 14.40 -15.50 25.25 -2.45 3.30 -3.20 3.75 -2.65 1.70 0.25 -0.80 0.35 -4.45 0.35 -8.15 -0.10 -5.80 -0.30 -7.35 -1.40 -10.85 -1.35 -4.20 -4.10 -9.55 -5.85 -11.45 -0.50 -0.55 -0.95 -1.15 -0.95 -1.35 0 -0.25 -1.55 -2.10 -3.15 -3.70 -3.65 -3.60 -10.85 -8.05 -15.35 -9.40 -6.55 -2 -17.95 -2.40 -21.75 -0.80 -0.55 0.25 -2 0.75 -3.25 1.10 -1.25 0.35 -3.70 1.40 -5.50 2.40 -11.65 6.25 -19.20 17.60 -20.50 30.80 -0.55 5.25 -0.25 8.55 1.10 13.75 0.55 2.05 1.15 4.20 1.30 4.75 0.10 0.55 0.75 1.70 1.30 2.50 0.60 0.85 1.60 2.55 2.20 3.85 0.60 1.30 1.55 2.60 2.10 2.90 0.55 0.30 1 0.75 1 1 0 0.60 3.85 4.50 4.40 4.50 0.20 0 0.65 0.45 0.95 0.95 0.95 1.50 7.45 5.10 12 6.60 5.15 1.75 10.85 2.40 15.65 1.90 2.05 -0.25 3.80 -0.35 3.85 -0.25 0.20 0.20 -4.65 3.80 -11.35 8.45 -3.25 2.25 -18.60 11.60 -21.85 13.30 -1.55 0.80 -2.05 0.70 -2.40 -0.45z"/>
  <path d="M100.15 141.90 c-0.20 -0.35 -0.50 -4.35 -0.65 -8.90 l-0.25 -8.25 -8.35 -0.15 c-7.40 -0.10 -8.45 -0.25 -8.85 -1 -0.75 -1.40 -1.20 -10 -0.80 -14.80 0.30 -3.70 0.50 -4.40 1.40 -4.95 0.70 -0.35 4.05 -0.70 8.75 -0.85 l7.65 -0.25 0.15 -7.25 c0.10 -4 0.20 -7.65 0.25 -8.10 0 -0.50 0.75 -1.25 1.60 -1.65 2.35 -1.25 17.50 -0.90 18.80 0.40 0.75 0.75 0.90 2 1.05 8.85 l0.15 7.95 7.95 0.15 c10.75 0.20 10.10 -0.55 9.90 11.05 -0.15 8.15 -0.25 9 -1.10 9.65 -0.75 0.55 -2.85 0.70 -8.90 0.70 -4.35 0 -7.90 0.15 -7.90 0.40 -0.05 0.20 -0.10 3.90 -0.15 8.25 -0.10 7.20 -0.20 8 -1.05 8.65 -1.35 0.95 -19.05 1.05 -19.65 0.10z"/>
 </g>
</svg>