<svg version="1.1" id="Layer_1" xmlns="http://www.w3.org/2000/svg" xmlns:xlink="http://www.w3.org/1999/xlink" x="0px" y="0px"
	 width="100%" viewBox="0 0 783 227" enable-background="new 0 0 783 227" xml:space="preserve">
<path fill="#F9FBFE" opacity="1.000000" stroke="none" 
	d="
M560.000000,228.000000 
	C373.333344,228.000000 187.166718,228.000000 1.000050,228.000000 
	C1.000033,152.333359 1.000033,76.666733 1.000017,1.000070 
	C261.999939,1.000047 522.999878,1.000047 783.999878,1.000023 
	C783.999878,76.666595 783.999878,152.333191 783.999939,227.999893 
	C709.500000,228.000000 635.000000,228.000000 560.000000,228.000000 
M535.341125,182.005814 
	C535.838257,182.020905 536.335449,182.036011 537.427246,181.918991 
	C541.185425,181.612839 542.773560,179.150024 542.977295,175.800079 
	C543.132874,173.243713 542.529846,170.809647 539.032288,170.323990 
	C538.807800,169.775284 538.583374,169.226578 538.358887,168.677856 
	C538.015808,168.991333 537.672791,169.304810 537.329712,169.618286 
	C537.863098,170.102142 538.396423,170.586014 539.048889,171.713577 
	C542.025940,176.469254 540.680237,178.941986 533.707397,180.156769 
	C529.223633,175.849380 529.677063,173.527695 535.938782,168.732056 
	C531.990845,168.373734 529.525208,170.161041 528.887634,173.843475 
	C528.106445,178.355377 530.048035,180.914902 535.007690,181.930832 
	C535.007690,181.930832 534.925659,181.952942 535.341125,182.005814 
M300.972198,170.021561 
	C300.972198,170.021561 301.067902,170.032745 300.664185,169.407257 
	C297.523804,166.489716 294.829193,168.120819 292.715637,170.601395 
	C290.113403,173.655548 289.759888,177.013062 293.111969,180.782288 
	C297.021088,183.924744 303.668671,182.313889 304.486511,177.641739 
	C304.756836,176.097549 307.082764,172.516479 302.472595,171.399689 
	C301.972687,170.908203 301.472778,170.416702 300.972198,170.021561 
M386.650879,173.984177 
	C386.650879,173.984177 386.255463,173.983383 386.108246,173.325928 
	C386.098907,172.876862 386.089539,172.427811 386.763397,171.951645 
	C387.486237,171.308105 388.209045,170.664566 388.931885,170.021027 
	C388.504913,169.592728 388.077911,169.164429 387.650940,168.736130 
	C386.765869,169.805557 385.880829,170.875000 384.593872,172.599106 
	C384.749359,175.066696 384.904816,177.534271 385.060272,180.001862 
	C385.647247,179.951080 386.234192,179.900284 386.821167,179.849503 
	C386.678284,178.666183 386.535400,177.482864 386.341003,175.872711 
	C390.294739,175.872711 394.059265,175.872711 398.453827,175.872711 
	C397.653137,173.805267 397.074310,172.310638 396.748383,171.469025 
	C395.397522,172.525528 394.542358,173.720032 393.523102,173.882019 
	C391.409821,174.217850 389.209381,174.005234 386.650879,173.984177 
M727.046875,181.883041 
	C726.856445,181.220871 726.665955,180.558716 726.424927,179.119690 
	C726.633850,175.998581 726.842712,172.877472 726.896851,169.424118 
	C726.749817,169.214523 726.552795,169.076172 725.868774,168.375885 
	C722.343018,174.789810 724.965027,181.364777 724.471863,187.858139 
	C724.963318,187.895096 725.454773,187.932068 725.946289,187.969025 
	C726.121948,185.991302 726.297607,184.013596 727.046875,181.883041 
M676.567261,171.507126 
	C676.613525,172.368927 676.659790,173.230713 676.705994,174.092514 
	C673.464172,173.729797 670.222412,173.367096 667.660889,172.892624 
	C668.222717,171.963928 668.784607,171.035248 669.346436,170.106552 
	C668.992676,169.888336 668.638855,169.670135 668.285095,169.451920 
	C667.533630,170.655304 666.782166,171.858688 665.934265,173.701721 
	C666.247253,175.811462 666.560303,177.921204 666.873291,180.030945 
	C667.343811,179.931061 667.814331,179.831177 668.284851,179.731308 
	C668.026306,178.607895 667.767822,177.484497 667.385376,175.822540 
	C671.511719,175.822540 675.477905,175.822540 681.201904,175.822540 
	C678.768188,172.985046 677.334595,171.313522 675.586731,169.198135 
	C675.178101,169.512512 674.769409,169.826889 674.360779,170.141266 
	C674.849426,170.450211 675.338135,170.759155 676.567261,171.507126 
M654.565918,169.838333 
	C654.175110,169.824020 653.784241,169.809723 653.393433,169.795410 
	C653.833923,170.201233 654.274414,170.607071 655.103455,171.793579 
	C657.675293,178.158234 656.309692,184.827728 651.958679,187.077469 
	C651.958679,186.927643 651.906067,186.749329 651.972534,186.655426 
	C652.048950,186.547592 652.276978,186.421295 652.360413,186.462463 
	C655.357056,187.941650 657.585022,186.659348 657.836304,183.793045 
	C658.286133,178.660736 657.963013,173.460693 657.963013,167.656097 
	C656.521179,168.824570 655.783569,169.422333 654.565918,169.838333 
M274.205017,169.107544 
	C273.191467,168.883133 272.177948,168.658722 271.312805,168.467178 
	C271.312805,175.073715 271.312805,181.467209 271.312805,187.860703 
	C271.686646,187.882675 272.060486,187.904648 272.434357,187.926620 
	C272.657532,185.619461 272.880737,183.312302 273.553955,181.002792 
	C273.553955,181.002792 274.003937,181.013260 274.003937,181.013260 
	C274.003937,181.013260 274.451538,180.965790 274.789093,181.649612 
	C278.065491,183.088547 281.555328,183.014725 282.875946,179.560196 
	C283.853210,177.003738 283.708344,173.338104 282.578125,170.838058 
	C281.324829,168.065811 278.199677,166.893753 274.205017,169.107544 
M253.205002,169.107544 
	C252.191467,168.883163 251.177933,168.658783 250.312805,168.467255 
	C250.312805,175.073761 250.312805,181.467255 250.312805,187.860733 
	C250.686584,187.883377 251.060379,187.906021 251.434158,187.928665 
	C251.657425,185.620819 251.880692,183.312988 252.553970,181.002792 
	C252.553970,181.002792 253.003952,181.013260 253.003952,181.013260 
	C253.003952,181.013260 253.451538,180.965790 253.789093,181.649612 
	C257.065491,183.088516 260.555328,183.014725 261.875916,179.560196 
	C262.853210,177.003738 262.708282,173.338150 261.578064,170.838104 
	C260.324799,168.065842 257.199707,166.893677 253.205002,169.107544 
M238.080795,170.241791 
	C237.414780,169.446823 236.748764,168.651871 236.082748,167.856918 
	C235.687347,168.152725 235.291946,168.448532 234.896545,168.744354 
	C235.619659,169.835541 236.342773,170.926743 237.092010,172.452011 
	C237.092010,172.452011 237.062759,172.885849 236.950058,173.482208 
	C236.946838,173.886353 236.943634,174.290497 236.130661,174.842239 
	C234.760880,174.810059 233.391098,174.777878 231.802460,174.395340 
	C231.603607,174.193909 231.367203,174.057648 230.954300,173.477356 
	C231.003006,173.308289 231.051712,173.139221 231.604630,172.753906 
	C231.621933,172.330795 231.639252,171.907700 231.656570,171.484589 
	C231.099625,171.915863 230.542679,172.347137 229.400314,173.198486 
	C228.211060,176.078171 227.021805,178.957855 225.832550,181.837555 
	C226.238968,182.127670 226.645386,182.417786 227.051788,182.707901 
	C229.023651,180.031662 229.358673,176.390259 234.234421,176.046921 
	C239.668396,175.664261 239.083405,180.968857 243.553146,182.957870 
	C241.319321,178.143326 239.657898,174.562439 238.080795,170.241791 
M153.732422,126.200668 
	C150.317612,130.063644 147.070953,134.092117 143.459564,137.761612 
	C125.691238,155.815781 105.056297,169.976456 82.786880,181.834366 
	C74.999176,185.981125 66.889786,189.415939 57.874691,189.748276 
	C48.395737,190.097717 42.854431,184.694000 42.834991,175.260498 
	C42.829552,172.620316 42.834164,169.980118 42.834164,167.339920 
	C42.240013,167.294983 41.645863,167.250046 41.051712,167.205124 
	C40.265358,173.667999 38.717602,180.149994 38.879120,186.589096 
	C39.096943,195.272873 44.369579,199.639999 53.106529,199.867966 
	C55.090809,199.919739 57.206089,200.018173 59.052994,199.435532 
	C70.049736,195.966415 80.985428,192.303711 92.541428,188.509048 
	C97.904060,195.153168 104.031204,202.744492 110.338890,210.559494 
	C121.836830,196.275589 133.177750,182.378647 144.307449,168.314545 
	C160.285004,148.124405 178.261520,129.460098 191.364182,107.068176 
	C197.849640,95.984779 203.307449,84.528778 204.777313,71.492233 
	C206.513031,56.097874 198.465973,47.435280 183.093719,48.787380 
	C170.884399,49.861282 160.041443,54.934517 149.434235,60.731903 
	C152.471512,61.094376 155.442062,60.941765 158.392593,61.120308 
	C172.561417,61.977676 178.700150,69.736961 176.111221,83.685707 
	C173.102448,99.896645 164.016571,112.973930 153.732422,126.200668 
M112.393059,53.981316 
	C95.755211,53.544323 81.113380,58.809734 69.465355,70.650726 
	C54.082520,86.288406 47.010567,104.851204 51.893517,127.029663 
	C56.323715,147.151688 70.781761,160.777588 83.068756,176.580032 
	C94.569794,169.226608 105.650795,162.141739 116.731789,155.056870 
	C86.906685,156.416199 71.265259,134.718933 71.090912,115.098640 
	C70.905167,94.196617 87.683121,76.836555 108.526276,75.916931 
	C119.599968,75.428352 129.219955,78.953697 137.192398,86.495270 
	C147.557343,96.300034 150.889542,108.687813 149.731125,123.009804 
	C155.816040,114.710663 161.157837,106.205849 166.326172,97.596916 
	C166.892838,96.653030 166.822128,94.989922 166.442520,93.864258 
	C158.915512,71.543564 137.202881,55.287769 112.393059,53.981316 
M82.900375,105.518265 
	C82.648476,110.633797 82.395859,115.749298 82.144928,120.864883 
	C81.963852,124.556061 83.877121,125.885620 87.380470,125.776642 
	C91.484413,125.648987 95.595367,125.746780 100.144363,125.746780 
	C100.144363,130.485504 100.219353,134.616806 100.121758,138.744034 
	C100.036346,142.355453 101.672516,143.898865 105.260223,143.774628 
	C108.921249,143.647858 112.595474,143.622833 116.254074,143.781052 
	C120.246422,143.953705 122.128662,142.430313 121.904541,138.238892 
	C121.686569,134.162476 121.857201,130.065277 121.857201,125.744255 
	C126.810699,125.744255 130.967468,125.712776 135.123489,125.754196 
	C138.457779,125.787430 139.986435,124.264450 139.884308,120.871986 
	C139.764038,116.876968 139.753967,112.872124 139.887390,108.877937 
	C140.002701,105.425957 138.357346,104.025826 135.079620,104.050552 
	C130.801392,104.082825 126.522736,104.058449 121.855934,104.058449 
	C121.855934,99.336548 121.764351,95.201538 121.883354,91.072601 
	C121.988762,87.415054 120.281174,85.940842 116.737389,86.034683 
	C112.908043,86.136086 109.072685,86.118385 105.242264,86.039902 
	C101.711205,85.967552 100.009094,87.470894 100.115196,91.120110 
	C100.238480,95.360321 100.143944,99.606865 100.143944,103.537148 
	C94.063087,104.049614 88.811806,104.492172 82.900375,105.518265 
M241.383865,97.066505 
	C245.985611,107.551666 250.511856,118.071266 255.262558,128.488510 
	C256.065613,130.249405 257.835480,131.569397 259.158661,133.093094 
	C260.702118,131.520203 262.828735,130.214050 263.690826,128.329468 
	C268.042999,118.815247 272.047394,109.142326 276.219666,99.545036 
	C277.079010,97.568336 278.133820,95.676620 279.649658,92.642708 
	C280.218384,95.141884 280.639526,96.110092 280.626984,97.072662 
	C280.486755,107.857407 280.193085,118.641098 280.170288,129.425552 
	C280.166168,131.373734 281.021881,134.926163 281.785187,135.011429 
	C286.468384,135.534561 291.239166,135.273453 294.749237,135.273453 
	C293.319366,129.081833 291.765076,123.844109 290.977234,118.493523 
	C290.277649,113.742546 290.191559,108.863091 290.257202,104.046112 
	C290.368103,95.909172 288.492371,87.353806 295.052795,80.528854 
	C287.687439,76.765587 280.563293,78.695137 277.234161,85.249290 
	C273.701721,92.203613 270.481506,99.316116 267.096954,106.346062 
	C265.157288,110.374878 263.161957,114.376900 260.761353,119.267677 
	C259.392548,116.350403 258.593689,114.714188 257.850555,113.053047 
	C253.787888,103.971809 249.950302,94.782166 245.619171,85.831161 
	C242.075790,78.508179 234.189926,76.396423 227.475800,80.344383 
	C229.015350,83.223114 231.934357,86.132828 231.856812,88.960358 
	C231.434692,104.351662 235.224564,120.380981 225.421112,136.011322 
	C230.221634,135.666245 234.451935,135.697647 238.421204,134.695312 
	C238.981339,134.553864 238.171600,129.368027 238.160507,126.516411 
	C238.118256,115.661522 238.143448,104.806366 238.143448,93.951309 
	C238.471161,93.885193 238.798874,93.819069 239.126572,93.752945 
	C239.757141,94.621269 240.387711,95.489601 241.383865,97.066505 
M384.952545,116.458061 
	C384.951172,104.646660 385.098389,92.831551 384.804169,81.027451 
	C384.754272,79.026352 382.947662,75.506706 381.708588,75.394966 
	C378.203827,75.078896 374.572327,76.168053 370.410767,76.790344 
	C375.679047,84.134071 375.904724,85.290718 375.965820,91.909180 
	C376.001556,95.780067 374.828796,97.209190 370.718689,96.758827 
	C356.724945,95.225487 347.314636,103.962143 347.478607,117.999557 
	C347.635437,131.427765 356.145508,139.552063 367.562775,136.952469 
	C370.246216,136.341476 372.738342,134.890411 375.267212,133.846985 
	C380.724365,137.884476 384.525726,138.022705 390.234406,133.959839 
	C383.233551,130.071014 385.377747,123.406319 384.952545,116.458061 
M600.716614,136.548004 
	C604.162598,136.178253 607.608582,135.808502 611.054565,135.438751 
	C611.303894,134.997025 611.553162,134.555313 611.802490,134.113586 
	C604.634399,131.443344 606.107239,125.703110 605.941711,120.520538 
	C605.798584,116.039032 605.886719,111.517601 605.300537,107.089531 
	C604.062073,97.733170 596.240906,93.412079 587.383484,97.014053 
	C584.805664,98.062340 582.381897,99.489410 579.925171,100.723923 
	C575.953918,95.448059 570.366516,95.105995 566.691956,98.887329 
	C571.391235,111.586479 573.175720,123.412209 565.174500,135.580338 
	C570.996033,135.580338 576.663757,135.580338 582.670593,135.580338 
	C578.078918,126.160553 579.127197,117.009300 580.378113,108.035843 
	C581.050171,103.214981 585.474060,101.800827 589.876953,101.691185 
	C594.299133,101.581062 595.893982,104.586105 596.254639,108.455017 
	C597.097168,117.492455 598.080566,126.547806 594.132019,135.828201 
	C596.380859,136.110138 598.124146,136.328674 600.716614,136.548004 
M527.131348,125.874275 
	C527.239502,120.558197 527.004028,115.206436 527.551025,109.935913 
	C528.115112,104.501106 532.227844,101.387970 537.487305,101.571106 
	C541.672668,101.716835 543.878052,104.396523 544.064636,110.463837 
	C544.321533,118.816147 545.555969,127.271233 541.440430,136.641479 
	C547.864929,136.287262 553.280334,135.988693 558.695801,135.690109 
	C558.932617,135.076904 559.169495,134.463715 559.406311,133.850525 
	C553.042664,131.877060 553.634033,126.968224 553.527771,122.304909 
	C553.417908,117.485336 553.339417,112.656723 552.972168,107.853096 
	C552.264465,98.595200 545.551758,93.867493 536.673706,96.518913 
	C533.432556,97.486870 530.437744,99.279701 527.340759,100.691566 
	C523.688171,95.507530 518.469360,95.120056 512.997070,99.860817 
	C519.754822,104.129585 517.689575,110.979721 517.823364,117.081680 
	C517.959900,123.310760 519.764404,130.226440 512.048523,134.323792 
	C512.331299,134.699905 512.614075,135.076004 512.896851,135.452118 
	C518.592224,135.452118 524.287537,135.452118 530.008423,135.452118 
	C528.904175,132.039581 528.048645,129.395630 527.131348,125.874275 
M497.610840,133.156891 
	C505.721527,126.168068 507.727448,113.133629 501.957336,104.204933 
	C497.388153,97.134529 490.636444,94.783562 482.560791,95.810432 
	C474.124084,96.883202 468.454651,101.547371 466.281647,109.762566 
	C463.977448,118.473770 464.907227,126.807228 472.077881,133.088318 
	C474.415894,135.136246 477.828339,136.300797 480.946045,137.040894 
	C486.713837,138.409988 492.145233,136.970459 497.610840,133.156891 
M314.239410,135.393753 
	C324.480499,139.634720 337.504395,136.343903 338.290710,128.561859 
	C336.053253,129.234573 334.070618,129.755508 332.139343,130.424805 
	C325.082764,132.870316 318.825317,131.238571 315.244659,125.962440 
	C311.995636,121.174957 313.671448,117.288078 319.371002,116.610100 
	C324.655029,115.981560 329.966064,115.578560 335.248291,114.936951 
	C338.676270,114.520569 340.310272,112.262550 339.783203,108.983673 
	C338.893982,103.451607 336.329285,98.994293 330.691803,96.915596 
	C320.843445,93.284210 310.703552,97.462418 305.954163,107.020706 
	C302.026733,114.924812 303.298096,130.269196 314.239410,135.393753 
M629.070679,117.167122 
	C635.342102,116.443214 641.616211,115.742088 647.883911,114.987511 
	C652.204163,114.467400 653.335693,111.785141 652.605896,107.866226 
	C650.799011,98.163857 639.657715,92.669334 629.860535,96.798859 
	C622.135315,100.055054 617.728027,106.012062 617.058838,114.343765 
	C616.401245,122.531296 618.040710,130.133148 625.768005,134.649353 
	C633.548279,139.196442 641.462830,137.948792 648.997437,133.746094 
	C650.301331,133.018799 651.001343,131.208771 651.980286,129.898849 
	C651.705078,129.506912 651.429810,129.114975 651.154602,128.723053 
	C649.180969,129.225479 647.233032,129.931625 645.227966,130.184662 
	C641.854675,130.610336 638.316406,131.452332 635.077698,130.860245 
	C628.371826,129.634277 625.146790,122.747047 629.070679,117.167122 
M679.496582,137.357834 
	C689.408142,136.486252 693.863342,133.873062 693.689819,128.602615 
	C692.199219,129.068832 690.770325,129.392075 689.440674,129.951111 
	C678.459717,134.567596 670.691223,129.955658 669.712219,118.114799 
	C669.535767,115.981209 669.683716,113.800819 669.881287,111.660431 
	C670.300110,107.122284 671.990234,103.021637 676.362854,101.216087 
	C680.853271,99.361938 684.295715,102.047821 687.292358,105.187416 
	C687.636475,105.547966 687.940979,106.053085 688.367065,106.208641 
	C689.663818,106.682045 691.332764,107.677353 692.252625,107.229240 
	C693.270996,106.733139 694.444580,104.552849 694.102905,103.660034 
	C693.234680,101.391220 692.036133,98.569397 690.117737,97.505806 
	C683.664795,93.928154 672.314392,95.732986 666.806824,100.991692 
	C659.991638,107.498940 658.519165,115.663933 661.227234,124.379379 
	C663.816406,132.712463 669.912048,136.993866 679.496582,137.357834 
M434.043518,110.195564 
	C437.068848,99.551689 443.200073,97.778610 451.303467,105.206520 
	C451.671631,105.544006 451.957550,106.074097 452.384277,106.225548 
	C453.683563,106.686676 455.376068,107.668419 456.271881,107.204559 
	C457.275879,106.684677 458.404968,104.432877 458.025055,103.591293 
	C456.969452,101.252998 455.595154,98.246429 453.544617,97.360519 
	C450.498718,96.044579 446.753357,95.919487 443.323364,96.003906 
	C434.377594,96.224060 427.659851,101.664276 425.025482,110.310684 
	C422.342194,119.117424 425.069000,128.659439 431.726257,133.759277 
	C437.815552,138.423981 448.307953,138.646545 455.193451,134.006409 
	C456.658142,133.019363 457.550446,131.182968 458.706451,129.737869 
	C458.309357,129.343903 457.912231,128.949921 457.515137,128.555939 
	C455.705200,129.254364 453.886322,129.930603 452.086823,130.654953 
	C443.038361,134.297195 435.055420,129.690460 433.965149,120.010597 
	C433.633362,117.064896 433.932648,114.048111 434.043518,110.195564 
M703.494629,96.783760 
	C703.173889,98.038803 702.337036,99.432091 702.629272,100.522903 
	C703.496643,103.760696 705.413025,106.804253 705.817749,110.060654 
	C706.594849,116.312508 706.343811,122.688240 707.032043,128.956284 
	C707.575439,133.904480 711.420959,136.936539 716.219055,137.088058 
	C722.222107,137.277649 725.791626,135.165405 726.883606,130.535370 
	C725.728577,130.535370 724.623352,130.411896 723.554077,130.555817 
	C717.562561,131.362350 715.958984,130.421310 715.335144,124.424164 
	C714.854858,119.807098 715.082886,115.111015 715.088623,110.450180 
	C715.094849,105.379219 716.277649,101.198120 722.504700,100.756218 
	C723.448792,100.689209 724.325073,99.666611 726.073486,98.548210 
	C723.966431,97.439636 722.658813,96.342102 721.194214,96.060173 
	C717.262329,95.303299 715.836121,92.726555 715.086243,89.170868 
	C714.785095,87.742432 713.617126,86.496780 712.843689,85.167938 
	C711.507507,86.237511 709.882507,87.093208 708.897583,88.422928 
	C707.063660,90.898575 705.602356,93.650223 703.494629,96.783760 
M411.945160,104.639442 
	C411.322083,101.864792 411.423065,97.253044 409.937225,96.667450 
	C405.836029,95.051048 401.326416,96.192261 398.330536,98.194260 
	C405.473419,111.334656 405.304077,123.511795 398.156281,135.992767 
	C404.478668,135.992767 410.803864,135.992767 417.129059,135.992767 
	C417.463989,135.545273 417.798889,135.097778 418.133820,134.650269 
	C411.559235,132.010529 412.026672,126.710136 412.012360,121.586319 
	C411.997467,116.258659 411.968140,110.931046 411.945160,104.639442 
M195.072266,26.853550 
	C192.632645,17.894876 184.295883,14.074312 177.225037,18.674534 
	C172.380997,21.826012 170.487259,27.783598 172.650284,33.066334 
	C174.835007,38.402031 180.103973,41.171928 185.997726,40.083096 
	C191.611130,39.046059 194.844406,34.661743 195.072266,26.853550 
M403.718079,86.955307 
	C406.761597,88.480797 409.820312,88.427170 411.639496,85.435684 
	C412.566193,83.911835 412.918610,80.700851 411.981720,79.694412 
	C410.567719,78.175537 407.700592,77.064812 405.625580,77.302658 
	C401.313263,77.796959 400.387054,81.845779 403.718079,86.955307 
M605.123535,171.866257 
	C602.665161,171.866257 600.206787,171.866257 597.532837,171.866257 
	C597.532837,169.385574 597.532837,167.430267 597.532837,165.292328 
	C600.985657,165.099838 604.434082,164.907593 607.882446,164.715363 
	C607.859497,164.314255 607.836548,163.913162 607.813538,163.512070 
	C603.747742,163.512070 599.682007,163.512070 595.817383,163.512070 
	C595.817383,169.758591 595.817383,175.885452 595.817383,182.012299 
	C596.217102,182.033386 596.616760,182.054474 597.016479,182.075562 
	C597.203796,179.413971 597.391174,176.752396 597.541443,174.617020 
	C600.654236,173.755920 603.285339,173.028061 605.123535,171.866257 
M425.709015,165.454407 
	C423.912262,169.627151 426.119110,173.770645 425.821014,177.981064 
	C425.497070,182.556458 427.305206,183.316208 430.510193,181.669205 
	C429.550568,179.636307 428.177521,177.888580 427.956299,176.005524 
	C427.555573,172.594421 427.900665,169.100021 427.749023,165.648560 
	C427.733826,165.302933 426.443298,165.013336 425.709015,165.454407 
M486.940765,165.705841 
	C485.242188,170.479340 487.374878,175.209671 487.193024,179.998947 
	C487.088562,182.750076 489.714661,183.046631 492.273499,181.048569 
	C491.248688,180.330353 489.122864,179.444916 489.191071,178.786942 
	C489.545319,175.369827 486.790070,170.986679 491.219666,169.164291 
	C490.458466,167.839111 489.830963,166.476913 488.931274,165.327805 
	C488.619385,164.929443 487.632416,165.059601 486.940765,165.705841 
M570.243591,173.659744 
	C570.243591,176.447281 570.243591,179.234802 570.243591,182.022339 
	C570.613953,182.005066 570.984375,181.987778 571.354736,181.970505 
	C572.565552,177.421280 573.776428,172.872070 574.700134,169.401657 
	C574.323303,169.340073 572.521545,169.045624 570.466919,168.709854 
	C570.402466,169.883194 570.323059,171.328201 570.243591,173.659744 
M700.927307,170.429245 
	C700.977661,173.228699 700.867920,176.042526 701.117493,178.824112 
	C701.457336,182.613052 703.287415,183.226547 705.758362,181.611496 
	C704.788208,179.570877 703.419434,177.900986 703.266724,176.126465 
	C702.915283,172.042511 703.155334,167.907654 703.155334,163.793472 
	C702.624268,163.744751 702.093262,163.696045 701.562195,163.647339 
	C701.141418,165.741791 700.720642,167.836243 700.927307,170.429245 
M515.951050,179.557404 
	C516.189026,180.429886 516.427063,181.302353 516.665100,182.174820 
	C517.859192,179.763306 517.514771,177.355423 518.211365,175.300415 
	C519.265076,172.191772 521.045349,169.329605 522.507385,166.358063 
	C522.548584,166.274307 522.483643,166.138321 522.615295,167.089905 
	C520.306641,168.902252 517.572632,171.048553 514.883606,173.159531 
	C515.118652,174.375656 515.534607,176.528214 515.951050,179.557404 
M627.556946,174.519043 
	C627.418823,172.385880 627.280701,170.252716 627.142517,168.119553 
	C626.714905,168.142883 626.287231,168.166214 625.859619,168.189545 
	C625.859619,172.863251 625.859619,177.536972 625.859619,182.210678 
	C626.307251,182.236420 626.754883,182.262146 627.202454,182.287888 
	C627.316772,179.997040 627.431030,177.706207 627.556946,174.519043 
M322.244904,171.040833 
	C322.244904,174.791565 322.244904,178.542297 322.244904,182.293030 
	C322.876648,182.264053 323.508392,182.235077 324.140137,182.206100 
	C324.140137,177.535080 324.140137,172.864075 324.140137,168.193069 
	C323.764160,168.158142 323.388184,168.123215 323.012207,168.088287 
	C322.760071,168.785645 322.507904,169.483002 322.244904,171.040833 
M631.848938,170.062729 
	C635.499878,169.878479 635.036865,172.698563 635.272095,174.884140 
	C635.528259,177.264267 635.578918,179.666504 635.719238,182.059082 
	C636.150757,182.032410 636.582214,182.005722 637.013733,181.979034 
	C637.013733,178.425995 637.344116,174.832474 636.915222,171.331985 
	C636.532227,168.206039 633.810364,167.634827 631.848938,170.062729 
M334.292328,177.464569 
	C334.207092,175.480286 334.460724,173.405716 333.961334,171.531784 
	C333.098999,168.295654 331.082642,167.272079 327.591980,169.532333 
	C336.008972,171.066483 329.944153,178.636200 333.903229,182.764893 
	C334.075104,180.796829 334.183655,179.553802 334.292328,177.464569 
M367.266815,180.031479 
	C367.181641,177.218826 367.436707,174.342575 366.925751,171.609528 
	C366.277130,168.139954 363.966339,167.819702 362.066101,168.595993 
	C363.273956,170.865692 364.598450,172.534866 365.043823,174.412567 
	C365.528809,176.457352 365.185211,178.696365 365.306946,180.844818 
	C365.309570,180.891479 366.567474,180.867035 367.266815,180.031479 
M551.515381,181.603806 
	C553.209839,181.828339 554.904297,182.052872 556.598755,182.277405 
	C555.601074,180.896576 553.723572,180.735687 553.559570,180.119110 
	C552.520447,176.211655 551.860413,172.203400 551.075317,168.228394 
	C550.572266,168.276855 550.069214,168.325317 549.566101,168.373795 
	C550.056946,172.573914 550.547729,176.774033 551.515381,181.603806 
M376.855255,181.192551 
	C376.828735,178.394547 377.074707,175.561050 376.715820,172.806335 
	C376.079773,167.923706 373.536530,166.974228 369.298615,169.764786 
	C374.570740,170.324890 374.672760,170.586792 374.905731,176.198502 
	C374.985870,178.128326 375.825073,180.026611 376.855255,181.192551 
M405.065735,171.157379 
	C405.065735,174.841019 405.065735,178.524673 405.065735,182.208313 
	C405.755737,182.159653 406.445740,182.110992 407.135742,182.062347 
	C407.135742,177.467941 407.135742,172.873550 407.135742,168.279144 
	C406.661591,168.252731 406.187439,168.226318 405.713257,168.199905 
	C405.498260,168.915009 405.283264,169.630112 405.065735,171.157379 
M686.811523,173.733002 
	C686.811523,176.492737 686.811523,179.252472 686.811523,182.012207 
	C687.227966,182.006226 687.644409,182.000244 688.060852,181.994263 
	C688.865234,177.908722 689.669678,173.823181 690.484558,169.684189 
	C689.802002,169.432938 688.557800,168.974976 687.029480,168.412415 
	C686.953918,169.942261 686.882751,171.383942 686.811523,173.733002 
M346.156525,180.710175 
	C345.765900,177.674133 345.471039,174.620880 344.929810,171.611923 
	C344.753601,170.632385 343.934204,169.768555 343.016541,168.166824 
	C343.016541,172.560791 342.888306,175.608551 343.048859,178.641022 
	C343.251251,182.462723 344.874847,183.148712 348.399628,181.087784 
	C347.914337,180.996887 347.429016,180.906006 346.156525,180.710175 
M617.072693,178.958527 
	C617.072693,175.411774 617.072693,171.865021 617.072693,168.318253 
	C616.646851,168.331573 616.221008,168.344894 615.795166,168.358200 
	C615.795166,172.953262 615.795166,177.548309 615.795166,182.143372 
	C616.122131,182.146790 616.449158,182.150208 616.776123,182.153641 
	C616.874878,181.371704 616.973633,180.589767 617.072693,178.958527 
M312.744904,168.404175 
	C312.505524,172.995316 312.266113,177.586456 312.026733,182.177582 
	C312.776428,182.161407 313.526093,182.145233 314.275787,182.129059 
	C314.060791,177.522247 313.845795,172.915436 312.744904,168.404175 
M714.030273,178.352875 
	C714.181885,179.617691 714.333557,180.882523 714.485168,182.147339 
	C714.808350,182.101257 715.131531,182.055176 715.454712,182.009094 
	C715.454712,177.446106 715.454712,172.883118 715.454712,168.320129 
	C714.979858,168.312469 714.505005,168.304794 714.030151,168.297134 
	C714.030151,171.336945 714.030151,174.376770 714.030273,178.352875 
M356.064148,169.485580 
	C356.064148,173.642273 356.064148,177.798965 356.064148,181.955658 
	C356.734467,181.956192 357.404785,181.956741 358.075134,181.957275 
	C356.344086,177.743332 360.514679,173.620590 356.064148,169.485580 
M736.193726,180.302872 
	C738.738342,176.214569 738.076782,171.719894 734.314697,170.150436 
	C734.764771,173.542221 735.187683,176.729385 736.193726,180.302872 
M469.042084,178.446884 
	C468.805450,177.372299 468.568817,176.297714 468.332153,175.223145 
	C467.761597,175.272156 467.191010,175.321182 466.620453,175.370193 
	C466.620453,177.247650 465.954529,179.549988 466.805817,180.884323 
	C467.674774,182.246368 470.033936,182.657700 472.591949,183.898026 
	C470.884888,181.615402 469.978455,180.403305 469.042084,178.446884 
M234.284225,164.112305 
	C232.402679,165.483612 229.934509,166.654190 232.240158,169.674805 
	C233.546463,168.664230 234.998962,167.997147 235.644531,166.868530 
	C236.026947,166.199966 235.135468,164.802704 234.284225,164.112305 
M645.700867,179.039963 
	C648.332397,183.462875 650.267334,183.925034 652.512512,180.624588 
	C650.395996,179.958160 648.287781,179.294327 645.700867,179.039963 
M729.615784,180.576797 
	C730.404053,181.393723 731.192383,182.210663 731.980652,183.027603 
	C732.323486,182.524628 732.666260,182.021637 733.009033,181.518661 
	C732.040649,181.059753 731.072266,180.600861 729.615784,180.576797 
M645.883118,171.243652 
	C645.883911,171.747986 645.884766,172.252335 645.885559,172.756668 
	C646.443970,172.609390 647.002441,172.462112 647.560852,172.314835 
	C647.207581,171.914597 646.854309,171.514374 645.883118,171.243652 
M473.337952,174.962524 
	C472.553101,175.092392 471.768280,175.222260 470.983429,175.352112 
	C471.021423,175.603165 471.059418,175.854218 471.097412,176.105255 
	C472.423065,175.923218 473.748688,175.741165 475.074341,175.559097 
	C474.878326,175.381561 474.698944,175.178162 474.479614,175.036743 
	C474.358795,174.958817 474.170837,174.985016 473.337952,174.962524 
M644.702576,174.421494 
	C644.658081,175.083313 644.613525,175.745148 644.569092,176.406982 
	C644.850220,176.410431 645.131287,176.413895 645.412415,176.417343 
	C645.382019,175.754120 645.351562,175.090912 644.702576,174.421494 
M391.348022,169.535263 
	C392.516357,169.834045 393.684692,170.132828 394.853027,170.431595 
	C394.908569,170.093552 394.964142,169.755508 395.019684,169.417480 
	C394.006287,169.285843 392.992859,169.154221 391.348022,169.535263 
M649.772949,169.809753 
	C649.591125,169.869873 649.409302,169.930008 649.227478,169.990128 
	C649.410522,170.048706 649.593628,170.107300 649.772949,169.809753 
M473.365479,180.479462 
	C473.365479,180.479462 473.544434,180.578781 473.544434,180.578781 
	C473.544434,180.578781 473.517029,180.379639 473.365479,180.479462 
M654.480103,181.608170 
	C654.480103,181.608170 654.393005,181.470245 654.480103,181.608170 
z"/>
<path fill="#081529" opacity="1.000000" stroke="none" 
	d="
M153.926788,125.900711 
	C164.016571,112.973930 173.102448,99.896645 176.111221,83.685707 
	C178.700150,69.736961 172.561417,61.977676 158.392593,61.120308 
	C155.442062,60.941765 152.471512,61.094376 149.434235,60.731903 
	C160.041443,54.934517 170.884399,49.861282 183.093719,48.787380 
	C198.465973,47.435280 206.513031,56.097874 204.777313,71.492233 
	C203.307449,84.528778 197.849640,95.984779 191.364182,107.068176 
	C178.261520,129.460098 160.285004,148.124405 144.307449,168.314545 
	C133.177750,182.378647 121.836830,196.275589 110.338890,210.559494 
	C104.031204,202.744492 97.904060,195.153168 92.541428,188.509048 
	C80.985428,192.303711 70.049736,195.966415 59.052994,199.435532 
	C57.206089,200.018173 55.090809,199.919739 53.106529,199.867966 
	C44.369579,199.639999 39.096943,195.272873 38.879120,186.589096 
	C38.717602,180.149994 40.265358,173.667999 41.051712,167.205124 
	C41.645863,167.250046 42.240013,167.294983 42.834164,167.339920 
	C42.834164,169.980118 42.829552,172.620316 42.834991,175.260498 
	C42.854431,184.694000 48.395737,190.097717 57.874691,189.748276 
	C66.889786,189.415939 74.999176,185.981125 82.786880,181.834366 
	C105.056297,169.976456 125.691238,155.815781 143.459564,137.761612 
	C147.070953,134.092117 150.317612,130.063644 153.926788,125.900711 
z"/>
<path fill="#1BC091" opacity="1.000000" stroke="none" 
	d="
M112.865250,53.990570 
	C137.202881,55.287769 158.915512,71.543564 166.442520,93.864258 
	C166.822128,94.989922 166.892838,96.653030 166.326172,97.596916 
	C161.157837,106.205849 155.816040,114.710663 149.731125,123.009804 
	C150.889542,108.687813 147.557343,96.300034 137.192398,86.495270 
	C129.219955,78.953697 119.599968,75.428352 108.526276,75.916931 
	C87.683121,76.836555 70.905167,94.196617 71.090912,115.098640 
	C71.265259,134.718933 86.906685,156.416199 116.731789,155.056870 
	C105.650795,162.141739 94.569794,169.226608 83.068756,176.580032 
	C70.781761,160.777588 56.323715,147.151688 51.893517,127.029663 
	C47.010567,104.851204 54.082520,86.288406 69.465355,70.650726 
	C81.113380,58.809734 95.755211,53.544323 112.865250,53.990570 
z"/>
<path fill="#1DC192" opacity="1.000000" stroke="none" 
	d="
M83.230453,105.226494 
	C88.811806,104.492172 94.063087,104.049614 100.143944,103.537148 
	C100.143944,99.606865 100.238480,95.360321 100.115196,91.120110 
	C100.009094,87.470894 101.711205,85.967552 105.242264,86.039902 
	C109.072685,86.118385 112.908043,86.136086 116.737389,86.034683 
	C120.281174,85.940842 121.988762,87.415054 121.883354,91.072601 
	C121.764351,95.201538 121.855934,99.336548 121.855934,104.058449 
	C126.522736,104.058449 130.801392,104.082825 135.079620,104.050552 
	C138.357346,104.025826 140.002701,105.425957 139.887390,108.877937 
	C139.753967,112.872124 139.764038,116.876968 139.884308,120.871986 
	C139.986435,124.264450 138.457779,125.787430 135.123489,125.754196 
	C130.967468,125.712776 126.810699,125.744255 121.857201,125.744255 
	C121.857201,130.065277 121.686569,134.162476 121.904541,138.238892 
	C122.128662,142.430313 120.246422,143.953705 116.254074,143.781052 
	C112.595474,143.622833 108.921249,143.647858 105.260223,143.774628 
	C101.672516,143.898865 100.036346,142.355453 100.121758,138.744034 
	C100.219353,134.616806 100.144363,130.485504 100.144363,125.746780 
	C95.595367,125.746780 91.484413,125.648987 87.380470,125.776642 
	C83.877121,125.885620 81.963852,124.556061 82.144928,120.864883 
	C82.395859,115.749298 82.648476,110.633797 83.230453,105.226494 
z"/>
<path fill="#0E1A2E" opacity="1.000000" stroke="none" 
	d="
M241.201080,96.712219 
	C240.387711,95.489601 239.757141,94.621269 239.126572,93.752945 
	C238.798874,93.819069 238.471161,93.885193 238.143448,93.951309 
	C238.143448,104.806366 238.118256,115.661522 238.160507,126.516411 
	C238.171600,129.368027 238.981339,134.553864 238.421204,134.695312 
	C234.451935,135.697647 230.221634,135.666245 225.421112,136.011322 
	C235.224564,120.380981 231.434692,104.351662 231.856812,88.960358 
	C231.934357,86.132828 229.015350,83.223114 227.475800,80.344383 
	C234.189926,76.396423 242.075790,78.508179 245.619171,85.831161 
	C249.950302,94.782166 253.787888,103.971809 257.850555,113.053047 
	C258.593689,114.714188 259.392548,116.350403 260.761353,119.267677 
	C263.161957,114.376900 265.157288,110.374878 267.096954,106.346062 
	C270.481506,99.316116 273.701721,92.203613 277.234161,85.249290 
	C280.563293,78.695137 287.687439,76.765587 295.052795,80.528854 
	C288.492371,87.353806 290.368103,95.909172 290.257202,104.046112 
	C290.191559,108.863091 290.277649,113.742546 290.977234,118.493523 
	C291.765076,123.844109 293.319366,129.081833 294.749237,135.273453 
	C291.239166,135.273453 286.468384,135.534561 281.785187,135.011429 
	C281.021881,134.926163 280.166168,131.373734 280.170288,129.425552 
	C280.193085,118.641098 280.486755,107.857407 280.626984,97.072662 
	C280.639526,96.110092 280.218384,95.141884 279.649658,92.642708 
	C278.133820,95.676620 277.079010,97.568336 276.219666,99.545036 
	C272.047394,109.142326 268.042999,118.815247 263.690826,128.329468 
	C262.828735,130.214050 260.702118,131.520203 259.158661,133.093094 
	C257.835480,131.569397 256.065613,130.249405 255.262558,128.488510 
	C250.511856,118.071266 245.985611,107.551666 241.201080,96.712219 
z"/>
<path fill="#0F1B2E" opacity="1.000000" stroke="none" 
	d="
M384.954956,116.948532 
	C385.377747,123.406319 383.233551,130.071014 390.234406,133.959839 
	C384.525726,138.022705 380.724365,137.884476 375.267212,133.846985 
	C372.738342,134.890411 370.246216,136.341476 367.562775,136.952469 
	C356.145508,139.552063 347.635437,131.427765 347.478607,117.999557 
	C347.314636,103.962143 356.724945,95.225487 370.718689,96.758827 
	C374.828796,97.209190 376.001556,95.780067 375.965820,91.909180 
	C375.904724,85.290718 375.679047,84.134071 370.410767,76.790344 
	C374.572327,76.168053 378.203827,75.078896 381.708588,75.394966 
	C382.947662,75.506706 384.754272,79.026352 384.804169,81.027451 
	C385.098389,92.831551 384.951172,104.646660 384.954956,116.948532 
M375.460754,112.605957 
	C375.392029,111.279915 375.272858,109.954201 375.264099,108.627762 
	C375.238281,104.727661 373.802002,101.877670 369.714905,100.899338 
	C365.419891,99.871262 361.799255,100.885475 359.235382,104.591591 
	C355.103882,110.563759 355.254578,122.910156 359.463989,128.769989 
	C361.896271,132.155838 365.249908,132.975342 369.145996,132.033829 
	C372.813782,131.147461 374.751221,128.701996 374.996704,125.012703 
	C375.249939,121.206345 375.314148,117.387405 375.460754,112.605957 
z"/>
<path fill="#0F1B2F" opacity="1.000000" stroke="none" 
	d="
M600.291992,136.547607 
	C598.124146,136.328674 596.380859,136.110138 594.132019,135.828201 
	C598.080566,126.547806 597.097168,117.492455 596.254639,108.455017 
	C595.893982,104.586105 594.299133,101.581062 589.876953,101.691185 
	C585.474060,101.800827 581.050171,103.214981 580.378113,108.035843 
	C579.127197,117.009300 578.078918,126.160553 582.670593,135.580338 
	C576.663757,135.580338 570.996033,135.580338 565.174500,135.580338 
	C573.175720,123.412209 571.391235,111.586479 566.691956,98.887329 
	C570.366516,95.105995 575.953918,95.448059 579.925171,100.723923 
	C582.381897,99.489410 584.805664,98.062340 587.383484,97.014053 
	C596.240906,93.412079 604.062073,97.733170 605.300537,107.089531 
	C605.886719,111.517601 605.798584,116.039032 605.941711,120.520538 
	C606.107239,125.703110 604.634399,131.443344 611.802490,134.113586 
	C611.553162,134.555313 611.303894,134.997025 611.054565,135.438751 
	C607.608582,135.808502 604.162598,136.178253 600.291992,136.547607 
z"/>
<path fill="#0E1A2D" opacity="1.000000" stroke="none" 
	d="
M527.162231,126.312988 
	C528.048645,129.395630 528.904175,132.039581 530.008423,135.452118 
	C524.287537,135.452118 518.592224,135.452118 512.896851,135.452118 
	C512.614075,135.076004 512.331299,134.699905 512.048523,134.323792 
	C519.764404,130.226440 517.959900,123.310760 517.823364,117.081680 
	C517.689575,110.979721 519.754822,104.129585 512.997070,99.860817 
	C518.469360,95.120056 523.688171,95.507530 527.340759,100.691566 
	C530.437744,99.279701 533.432556,97.486870 536.673706,96.518913 
	C545.551758,93.867493 552.264465,98.595200 552.972168,107.853096 
	C553.339417,112.656723 553.417908,117.485336 553.527771,122.304909 
	C553.634033,126.968224 553.042664,131.877060 559.406311,133.850525 
	C559.169495,134.463715 558.932617,135.076904 558.695801,135.690109 
	C553.280334,135.988693 547.864929,136.287262 541.440430,136.641479 
	C545.555969,127.271233 544.321533,118.816147 544.064636,110.463837 
	C543.878052,104.396523 541.672668,101.716835 537.487305,101.571106 
	C532.227844,101.387970 528.115112,104.501106 527.551025,109.935913 
	C527.004028,115.206436 527.239502,120.558197 527.162231,126.312988 
z"/>
<path fill="#0E1B2E" opacity="1.000000" stroke="none" 
	d="
M497.325378,133.384232 
	C492.145233,136.970459 486.713837,138.409988 480.946045,137.040894 
	C477.828339,136.300797 474.415894,135.136246 472.077881,133.088318 
	C464.907227,126.807228 463.977448,118.473770 466.281647,109.762566 
	C468.454651,101.547371 474.124084,96.883202 482.560791,95.810432 
	C490.636444,94.783562 497.388153,97.134529 501.957336,104.204933 
	C507.727448,113.133629 505.721527,126.168068 497.325378,133.384232 
M494.111542,125.199760 
	C495.782166,118.208328 495.720428,111.179535 492.069122,104.963249 
	C490.672943,102.586258 487.218872,100.747070 484.367401,100.065804 
	C480.809601,99.215790 478.281189,101.696999 476.814545,105.103302 
	C473.918793,111.828651 474.088867,118.624901 476.238434,125.438950 
	C477.558563,129.623688 479.895752,132.995941 484.841522,133.108490 
	C489.724487,133.219635 492.311951,130.165115 494.111542,125.199760 
z"/>
<path fill="#0E1B2E" opacity="1.000000" stroke="none" 
	d="
M313.889557,135.248688 
	C303.298096,130.269196 302.026733,114.924812 305.954163,107.020706 
	C310.703552,97.462418 320.843445,93.284210 330.691803,96.915596 
	C336.329285,98.994293 338.893982,103.451607 339.783203,108.983673 
	C340.310272,112.262550 338.676270,114.520569 335.248291,114.936951 
	C329.966064,115.578560 324.655029,115.981560 319.371002,116.610100 
	C313.671448,117.288078 311.995636,121.174957 315.244659,125.962440 
	C318.825317,131.238571 325.082764,132.870316 332.139343,130.424805 
	C334.070618,129.755508 336.053253,129.234573 338.290710,128.561859 
	C337.504395,136.343903 324.480499,139.634720 313.889557,135.248688 
M328.373779,102.045601 
	C321.598236,97.854622 314.780487,101.171242 313.821625,108.972694 
	C313.485657,111.706192 314.511597,112.715111 317.024994,112.589409 
	C320.681763,112.406517 324.390717,112.441490 327.958130,111.759636 
	C329.150940,111.531654 330.749146,109.414154 330.787262,108.119896 
	C330.840973,106.296539 329.614899,104.435486 328.373779,102.045601 
z"/>
<path fill="#0E1B2E" opacity="1.000000" stroke="none" 
	d="
M628.704468,117.402435 
	C625.146790,122.747047 628.371826,129.634277 635.077698,130.860245 
	C638.316406,131.452332 641.854675,130.610336 645.227966,130.184662 
	C647.233032,129.931625 649.180969,129.225479 651.154602,128.723053 
	C651.429810,129.114975 651.705078,129.506912 651.980286,129.898849 
	C651.001343,131.208771 650.301331,133.018799 648.997437,133.746094 
	C641.462830,137.948792 633.548279,139.196442 625.768005,134.649353 
	C618.040710,130.133148 616.401245,122.531296 617.058838,114.343765 
	C617.728027,106.012062 622.135315,100.055054 629.860535,96.798859 
	C639.657715,92.669334 650.799011,98.163857 652.605896,107.866226 
	C653.335693,111.785141 652.204163,114.467400 647.883911,114.987511 
	C641.616211,115.742088 635.342102,116.443214 628.704468,117.402435 
M634.004700,100.173836 
	C631.778137,102.228188 628.869629,103.904549 627.475342,106.420189 
	C625.016968,110.855888 626.594849,112.769646 631.686218,112.500313 
	C633.828064,112.387001 636.005676,112.394302 638.093506,111.978012 
	C640.050537,111.587807 643.548828,110.658745 643.529724,110.056824 
	C643.446655,107.436508 642.964722,104.321579 641.385864,102.414352 
	C640.093323,100.852936 637.045227,100.744789 634.004700,100.173836 
z"/>
<path fill="#101C2F" opacity="1.000000" stroke="none" 
	d="
M679.090698,137.345856 
	C669.912048,136.993866 663.816406,132.712463 661.227234,124.379379 
	C658.519165,115.663933 659.991638,107.498940 666.806824,100.991692 
	C672.314392,95.732986 683.664795,93.928154 690.117737,97.505806 
	C692.036133,98.569397 693.234680,101.391220 694.102905,103.660034 
	C694.444580,104.552849 693.270996,106.733139 692.252625,107.229240 
	C691.332764,107.677353 689.663818,106.682045 688.367065,106.208641 
	C687.940979,106.053085 687.636475,105.547966 687.292358,105.187416 
	C684.295715,102.047821 680.853271,99.361938 676.362854,101.216087 
	C671.990234,103.021637 670.300110,107.122284 669.881287,111.660431 
	C669.683716,113.800819 669.535767,115.981209 669.712219,118.114799 
	C670.691223,129.955658 678.459717,134.567596 689.440674,129.951111 
	C690.770325,129.392075 692.199219,129.068832 693.689819,128.602615 
	C693.863342,133.873062 689.408142,136.486252 679.090698,137.345856 
z"/>
<path fill="#101D30" opacity="1.000000" stroke="none" 
	d="
M433.993225,110.629723 
	C433.932648,114.048111 433.633362,117.064896 433.965149,120.010597 
	C435.055420,129.690460 443.038361,134.297195 452.086823,130.654953 
	C453.886322,129.930603 455.705200,129.254364 457.515137,128.555939 
	C457.912231,128.949921 458.309357,129.343903 458.706451,129.737869 
	C457.550446,131.182968 456.658142,133.019363 455.193451,134.006409 
	C448.307953,138.646545 437.815552,138.423981 431.726257,133.759277 
	C425.069000,128.659439 422.342194,119.117424 425.025482,110.310684 
	C427.659851,101.664276 434.377594,96.224060 443.323364,96.003906 
	C446.753357,95.919487 450.498718,96.044579 453.544617,97.360519 
	C455.595154,98.246429 456.969452,101.252998 458.025055,103.591293 
	C458.404968,104.432877 457.275879,106.684677 456.271881,107.204559 
	C455.376068,107.668419 453.683563,106.686676 452.384277,106.225548 
	C451.957550,106.074097 451.671631,105.544006 451.303467,105.206520 
	C443.200073,97.778610 437.068848,99.551689 433.993225,110.629723 
z"/>
<path fill="#0D192D" opacity="1.000000" stroke="none" 
	d="
M703.740295,96.535378 
	C705.602356,93.650223 707.063660,90.898575 708.897583,88.422928 
	C709.882507,87.093208 711.507507,86.237511 712.843689,85.167938 
	C713.617126,86.496780 714.785095,87.742432 715.086243,89.170868 
	C715.836121,92.726555 717.262329,95.303299 721.194214,96.060173 
	C722.658813,96.342102 723.966431,97.439636 726.073486,98.548210 
	C724.325073,99.666611 723.448792,100.689209 722.504700,100.756218 
	C716.277649,101.198120 715.094849,105.379219 715.088623,110.450180 
	C715.082886,115.111015 714.854858,119.807098 715.335144,124.424164 
	C715.958984,130.421310 717.562561,131.362350 723.554077,130.555817 
	C724.623352,130.411896 725.728577,130.535370 726.883606,130.535370 
	C725.791626,135.165405 722.222107,137.277649 716.219055,137.088058 
	C711.420959,136.936539 707.575439,133.904480 707.032043,128.956284 
	C706.343811,122.688240 706.594849,116.312508 705.817749,110.060654 
	C705.413025,106.804253 703.496643,103.760696 702.629272,100.522903 
	C702.337036,99.432091 703.173889,98.038803 703.740295,96.535378 
z"/>
<path fill="#0C182C" opacity="1.000000" stroke="none" 
	d="
M411.945129,105.121429 
	C411.968140,110.931046 411.997467,116.258659 412.012360,121.586319 
	C412.026672,126.710136 411.559235,132.010529 418.133820,134.650269 
	C417.798889,135.097778 417.463989,135.545273 417.129059,135.992767 
	C410.803864,135.992767 404.478668,135.992767 398.156281,135.992767 
	C405.304077,123.511795 405.473419,111.334656 398.330536,98.194260 
	C401.326416,96.192261 405.836029,95.051048 409.937225,96.667450 
	C411.423065,97.253044 411.322083,101.864792 411.945129,105.121429 
z"/>
<path fill="#081529" opacity="1.000000" stroke="none" 
	d="
M195.107452,27.268089 
	C194.844406,34.661743 191.611130,39.046059 185.997726,40.083096 
	C180.103973,41.171928 174.835007,38.402031 172.650284,33.066334 
	C170.487259,27.783598 172.380997,21.826012 177.225037,18.674534 
	C184.295883,14.074312 192.632645,17.894876 195.107452,27.268089 
z"/>
<path fill="#E6E9ED" opacity="1.000000" stroke="none" 
	d="
M302.682129,171.883682 
	C307.082764,172.516479 304.756836,176.097549 304.486511,177.641739 
	C303.668671,182.313889 297.021088,183.924744 293.122833,179.990814 
	C292.779938,170.963715 293.875702,169.697784 301.067902,170.032745 
	C301.067902,170.032745 300.972198,170.021561 300.984436,170.262512 
	C301.558472,170.963547 302.120300,171.423615 302.682129,171.883682 
z"/>
<path fill="#162335" opacity="1.000000" stroke="none" 
	d="
M403.404175,86.740433 
	C400.387054,81.845779 401.313263,77.796959 405.625580,77.302658 
	C407.700592,77.064812 410.567719,78.175537 411.981720,79.694412 
	C412.918610,80.700851 412.566193,83.911835 411.639496,85.435684 
	C409.820312,88.427170 406.761597,88.480797 403.404175,86.740433 
z"/>
<path fill="#374252" opacity="1.000000" stroke="none" 
	d="
M605.520020,172.083221 
	C603.285339,173.028061 600.654236,173.755920 597.541443,174.617020 
	C597.391174,176.752396 597.203796,179.413971 597.016479,182.075562 
	C596.616760,182.054474 596.217102,182.033386 595.817383,182.012299 
	C595.817383,175.885452 595.817383,169.758591 595.817383,163.512070 
	C599.682007,163.512070 603.747742,163.512070 607.813538,163.512070 
	C607.836548,163.913162 607.859497,164.314255 607.882446,164.715363 
	C604.434082,164.907593 600.985657,165.099838 597.532837,165.292328 
	C597.532837,167.430267 597.532837,169.385574 597.532837,171.866257 
	C600.206787,171.866257 602.665161,171.866257 605.520020,172.083221 
z"/>
<path fill="#F2F4F8" opacity="1.000000" stroke="none" 
	d="
M274.451538,180.965790 
	C274.451538,180.965790 274.003937,181.013260 274.003937,181.013260 
	C274.003937,181.013260 273.553955,181.002792 273.412140,180.642761 
	C273.567047,176.827164 271.225311,172.920471 275.425964,170.056824 
	C277.834930,171.082397 280.719452,171.649643 281.576355,173.281555 
	C282.361298,174.776459 281.587952,177.986786 280.329498,179.391205 
	C279.196014,180.656082 276.473297,180.496887 274.451538,180.965790 
z"/>
<path fill="#F2F4F8" opacity="1.000000" stroke="none" 
	d="
M253.451538,180.965790 
	C253.451538,180.965790 253.003952,181.013260 253.003952,181.013260 
	C253.003952,181.013260 252.553970,181.002792 252.412140,180.642761 
	C252.567062,176.827148 250.225311,172.920410 254.426056,170.056808 
	C256.834961,171.082428 259.719452,171.649673 260.576385,173.281601 
	C261.361359,174.776459 260.587982,177.986816 259.329498,179.391235 
	C258.196014,180.656113 255.473312,180.496887 253.451538,180.965790 
z"/>
<path fill="#303C4D" opacity="1.000000" stroke="none" 
	d="
M425.726807,165.076080 
	C426.443298,165.013336 427.733826,165.302933 427.749023,165.648560 
	C427.900665,169.100021 427.555573,172.594421 427.956299,176.005524 
	C428.177521,177.888580 429.550568,179.636307 430.510193,181.669205 
	C427.305206,183.316208 425.497070,182.556458 425.821014,177.981064 
	C426.119110,173.770645 423.912262,169.627151 425.726807,165.076080 
z"/>
<path fill="#222E40" opacity="1.000000" stroke="none" 
	d="
M232.021317,174.745697 
	C233.391098,174.777878 234.760880,174.810059 236.808334,174.793091 
	C237.344925,174.124573 237.203842,173.505219 237.062759,172.885849 
	C237.062759,172.885849 237.092010,172.452011 237.344269,172.172028 
	C237.729828,171.588531 237.863144,171.285049 237.996460,170.981552 
	C239.657898,174.562439 241.319321,178.143326 243.553146,182.957870 
	C239.083405,180.968857 239.668396,175.664261 234.234421,176.046921 
	C229.358673,176.390259 229.023651,180.031662 227.051788,182.707901 
	C226.645386,182.417786 226.238968,182.127670 225.832550,181.837555 
	C227.021805,178.957855 228.211060,176.078171 229.970856,173.041214 
	C230.727737,172.912674 230.914078,172.941422 231.100418,172.970154 
	C231.051712,173.139221 231.003006,173.308289 230.995392,174.006348 
	C231.364746,174.605453 231.693039,174.675583 232.021317,174.745697 
z"/>
<path fill="#222E40" opacity="1.000000" stroke="none" 
	d="
M486.947266,165.327087 
	C487.632416,165.059601 488.619385,164.929443 488.931274,165.327805 
	C489.830963,166.476913 490.458466,167.839111 491.219666,169.164291 
	C486.790070,170.986679 489.545319,175.369827 489.191071,178.786942 
	C489.122864,179.444916 491.248688,180.330353 492.273499,181.048569 
	C489.714661,183.046631 487.088562,182.750076 487.193024,179.998947 
	C487.374878,175.209671 485.242188,170.479340 486.947266,165.327087 
z"/>
<path fill="#424C5C" opacity="1.000000" stroke="none" 
	d="
M570.243652,173.216476 
	C570.323059,171.328201 570.402466,169.883194 570.466919,168.709854 
	C572.521545,169.045624 574.323303,169.340073 574.700134,169.401657 
	C573.776428,172.872070 572.565552,177.421280 571.354736,181.970505 
	C570.984375,181.987778 570.613953,182.005066 570.243591,182.022339 
	C570.243591,179.234802 570.243591,176.447281 570.243652,173.216476 
z"/>
<path fill="#283445" opacity="1.000000" stroke="none" 
	d="
M700.613586,170.179962 
	C700.720642,167.836243 701.141418,165.741791 701.562195,163.647339 
	C702.093262,163.696045 702.624268,163.744751 703.155334,163.793472 
	C703.155334,167.907654 702.915283,172.042511 703.266724,176.126465 
	C703.419434,177.900986 704.788208,179.570877 705.758362,181.611496 
	C703.287415,183.226547 701.457336,182.613052 701.117493,178.824112 
	C700.867920,176.042526 700.977661,173.228699 700.613586,170.179962 
z"/>
<path fill="#2C3849" opacity="1.000000" stroke="none" 
	d="
M253.620316,181.307709 
	C255.473312,180.496887 258.196014,180.656113 259.329498,179.391235 
	C260.587982,177.986816 261.361359,174.776459 260.576385,173.281601 
	C259.719452,171.649673 256.834961,171.082428 254.424042,169.799164 
	C254.012772,169.375488 254.011765,169.203735 254.010757,169.031967 
	C257.199707,166.893677 260.324799,168.065842 261.578064,170.838104 
	C262.708282,173.338150 262.853210,177.003738 261.875916,179.560196 
	C260.555328,183.014725 257.065491,183.088516 253.620316,181.307709 
z"/>
<path fill="#2C3849" opacity="1.000000" stroke="none" 
	d="
M274.620300,181.307709 
	C276.473297,180.496887 279.196014,180.656082 280.329498,179.391205 
	C281.587952,177.986786 282.361298,174.776459 281.576355,173.281555 
	C280.719452,171.649643 277.834930,171.082397 275.423981,169.799164 
	C275.012726,169.375519 275.011749,169.203751 275.010742,169.031967 
	C278.199677,166.893753 281.324829,168.065811 282.578125,170.838058 
	C283.708344,173.338104 283.853210,177.003738 282.875946,179.560196 
	C281.555328,183.014725 278.065491,183.088547 274.620300,181.307709 
z"/>
<path fill="#1D293B" opacity="1.000000" stroke="none" 
	d="
M515.950806,179.119095 
	C515.534607,176.528214 515.118652,174.375656 514.883606,173.159531 
	C517.572632,171.048553 520.306641,168.902252 522.615295,167.089905 
	C522.483643,166.138321 522.548584,166.274307 522.507385,166.358063 
	C521.045349,169.329605 519.265076,172.191772 518.211365,175.300415 
	C517.514771,177.355423 517.859192,179.763306 516.665100,182.174820 
	C516.427063,181.302353 516.189026,180.429886 515.950806,179.119095 
z"/>
<path fill="#1D293B" opacity="1.000000" stroke="none" 
	d="
M655.045959,170.020096 
	C655.783569,169.422333 656.521179,168.824570 657.963013,167.656097 
	C657.963013,173.460693 658.286133,178.660736 657.836304,183.793045 
	C657.585022,186.659348 655.357056,187.941650 652.360413,186.462463 
	C652.276978,186.421295 652.048950,186.547592 651.972534,186.655426 
	C651.906067,186.749329 651.958679,186.927643 651.958679,187.077469 
	C656.309692,184.827728 657.675293,178.158234 654.996704,171.156647 
	C654.941956,170.353165 654.993958,170.186630 655.045959,170.020096 
z"/>
<path fill="#162335" opacity="1.000000" stroke="none" 
	d="
M675.900940,169.642029 
	C677.334595,171.313522 678.768188,172.985046 681.201904,175.822540 
	C675.477905,175.822540 671.511719,175.822540 667.385376,175.822540 
	C667.767822,177.484497 668.026306,178.607895 668.284851,179.731308 
	C667.814331,179.831177 667.343811,179.931061 666.873291,180.030945 
	C666.560303,177.921204 666.247253,175.811462 666.216431,173.309525 
	C666.498596,172.917328 666.980591,173.004379 666.980591,173.004379 
	C670.222412,173.367096 673.464172,173.729797 676.706055,174.092514 
	C676.659790,173.230713 676.613525,172.368927 676.139893,170.927155 
	C675.775269,170.112137 675.838135,169.877090 675.900940,169.642029 
z"/>
<path fill="#424C5C" opacity="1.000000" stroke="none" 
	d="
M727.051636,169.756363 
	C726.842712,172.877472 726.633850,175.998581 726.372314,179.769608 
	C726.370850,180.958313 726.422058,181.497086 726.473267,182.035873 
	C726.297607,184.013596 726.121948,185.991302 725.946289,187.969025 
	C725.454773,187.932068 724.963318,187.895096 724.471863,187.858139 
	C724.965027,181.364777 722.343018,174.789810 726.060181,168.961365 
	C726.518311,169.616684 726.784973,169.686523 727.051636,169.756363 
z"/>
<path fill="#303C4D" opacity="1.000000" stroke="none" 
	d="
M253.607880,169.069763 
	C254.011765,169.203735 254.012772,169.375488 254.015793,169.804886 
	C250.225311,172.920410 252.567062,176.827148 252.187134,180.643951 
	C251.880692,183.312988 251.657425,185.620819 251.434158,187.928665 
	C251.060379,187.906021 250.686584,187.883377 250.312805,187.860733 
	C250.312805,181.467255 250.312805,175.073761 250.312805,168.467255 
	C251.177933,168.658783 252.191467,168.883163 253.607880,169.069763 
z"/>
<path fill="#303C4D" opacity="1.000000" stroke="none" 
	d="
M274.607880,169.069763 
	C275.011749,169.203751 275.012726,169.375519 275.015747,169.804932 
	C271.225311,172.920471 273.567047,176.827164 273.187134,180.643936 
	C272.880737,183.312302 272.657532,185.619461 272.434357,187.926620 
	C272.060486,187.904648 271.686646,187.882675 271.312805,187.860703 
	C271.312805,181.467209 271.312805,175.073715 271.312805,168.467178 
	C272.177948,168.658722 273.191467,168.883133 274.607880,169.069763 
z"/>
<path fill="#424C5C" opacity="1.000000" stroke="none" 
	d="
M627.551147,174.967194 
	C627.431030,177.706207 627.316772,179.997040 627.202454,182.287888 
	C626.754883,182.262146 626.307251,182.236420 625.859619,182.210678 
	C625.859619,177.536972 625.859619,172.863251 625.859619,168.189545 
	C626.287231,168.166214 626.714905,168.142883 627.142517,168.119553 
	C627.280701,170.252716 627.418823,172.385880 627.551147,174.967194 
z"/>
<path fill="#424C5C" opacity="1.000000" stroke="none" 
	d="
M322.250336,170.610596 
	C322.507904,169.483002 322.760071,168.785645 323.012207,168.088287 
	C323.388184,168.123215 323.764160,168.158142 324.140137,168.193069 
	C324.140137,172.864075 324.140137,177.535080 324.140137,182.206100 
	C323.508392,182.235077 322.876648,182.264053 322.244904,182.293030 
	C322.244904,178.542297 322.244904,174.791565 322.250336,170.610596 
z"/>
<path fill="#0E1A2D" opacity="1.000000" stroke="none" 
	d="
M386.080170,171.978745 
	C386.089539,172.427811 386.098907,172.876862 386.115967,173.906677 
	C386.430725,174.330994 386.737762,174.174561 387.044800,174.018127 
	C389.209381,174.005234 391.409821,174.217850 393.523102,173.882019 
	C394.542358,173.720032 395.397522,172.525528 396.748383,171.469025 
	C397.074310,172.310638 397.653137,173.805267 398.453827,175.872711 
	C394.059265,175.872711 390.294739,175.872711 386.341003,175.872711 
	C386.535400,177.482864 386.678284,178.666183 386.821167,179.849503 
	C386.234192,179.900284 385.647247,179.951080 385.060272,180.001862 
	C384.904816,177.534271 384.749359,175.066696 385.066040,172.276276 
	C385.718872,171.961884 385.899536,171.970306 386.080170,171.978745 
z"/>
<path fill="#303C4D" opacity="1.000000" stroke="none" 
	d="
M631.471436,169.915405 
	C633.810364,167.634827 636.532227,168.206039 636.915222,171.331985 
	C637.344116,174.832474 637.013733,178.425995 637.013733,181.979034 
	C636.582214,182.005722 636.150757,182.032410 635.719238,182.059082 
	C635.578918,179.666504 635.528259,177.264267 635.272095,174.884140 
	C635.036865,172.698563 635.499878,169.878479 631.471436,169.915405 
z"/>
<path fill="#303C4D" opacity="1.000000" stroke="none" 
	d="
M334.292267,177.887680 
	C334.183655,179.553802 334.075104,180.796829 333.903229,182.764893 
	C329.944153,178.636200 336.008972,171.066483 327.591980,169.532333 
	C331.082642,167.272079 333.098999,168.295654 333.961334,171.531784 
	C334.460724,173.405716 334.207092,175.480286 334.292267,177.887680 
z"/>
<path fill="#283445" opacity="1.000000" stroke="none" 
	d="
M367.253296,180.453613 
	C366.567474,180.867035 365.309570,180.891479 365.306946,180.844818 
	C365.185211,178.696365 365.528809,176.457352 365.043823,174.412567 
	C364.598450,172.534866 363.273956,170.865692 362.066101,168.595993 
	C363.966339,167.819702 366.277130,168.139954 366.925751,171.609528 
	C367.436707,174.342575 367.181641,177.218826 367.253296,180.453613 
z"/>
<path fill="#2B3647" opacity="1.000000" stroke="none" 
	d="
M551.276978,181.288986 
	C550.547729,176.774033 550.056946,172.573914 549.566101,168.373795 
	C550.069214,168.325317 550.572266,168.276855 551.075317,168.228394 
	C551.860413,172.203400 552.520447,176.211655 553.559570,180.119110 
	C553.723572,180.735687 555.601074,180.896576 556.598755,182.277405 
	C554.904297,182.052872 553.209839,181.828339 551.276978,181.288986 
z"/>
<path fill="#303C4D" opacity="1.000000" stroke="none" 
	d="
M535.067871,181.990768 
	C530.048035,180.914902 528.106445,178.355377 528.887634,173.843475 
	C529.525208,170.161041 531.990845,168.373734 535.938782,168.732056 
	C529.677063,173.527695 529.223633,175.849380 534.063232,180.525818 
	C534.635315,181.260162 534.851624,181.625473 535.067871,181.990768 
z"/>
<path fill="#2B3647" opacity="1.000000" stroke="none" 
	d="
M376.586365,181.565918 
	C375.825073,180.026611 374.985870,178.128326 374.905731,176.198502 
	C374.672760,170.586792 374.570740,170.324890 369.298615,169.764786 
	C373.536530,166.974228 376.079773,167.923706 376.715820,172.806335 
	C377.074707,175.561050 376.828735,178.394547 376.586365,181.565918 
z"/>
<path fill="#2B3647" opacity="1.000000" stroke="none" 
	d="
M405.067017,170.751297 
	C405.283264,169.630112 405.498260,168.915009 405.713257,168.199905 
	C406.187439,168.226318 406.661591,168.252731 407.135742,168.279144 
	C407.135742,172.873550 407.135742,177.467941 407.135742,182.062347 
	C406.445740,182.110992 405.755737,182.159653 405.065735,182.208313 
	C405.065735,178.524673 405.065735,174.841019 405.067017,170.751297 
z"/>
<path fill="#2B3647" opacity="1.000000" stroke="none" 
	d="
M300.866028,169.720001 
	C293.875702,169.697784 292.779938,170.963715 293.074371,179.633102 
	C289.759888,177.013062 290.113403,173.655548 292.715637,170.601395 
	C294.829193,168.120819 297.523804,166.489716 300.866028,169.720001 
z"/>
<path fill="#EDEFF3" opacity="1.000000" stroke="none" 
	d="
M535.037781,181.960800 
	C534.851624,181.625473 534.635315,181.260162 534.417725,180.560242 
	C540.680237,178.941986 542.025940,176.469254 539.022217,171.359207 
	C538.995544,171.004837 539.061951,170.940399 539.061951,170.940399 
	C542.529846,170.809647 543.132874,173.243713 542.977295,175.800079 
	C542.773560,179.150024 541.185425,181.612839 536.821777,182.174713 
	C535.786072,182.271271 535.355835,182.112106 534.925659,181.952942 
	C534.925659,181.952942 535.007690,181.930832 535.037781,181.960800 
z"/>
<path fill="#374252" opacity="1.000000" stroke="none" 
	d="
M686.811523,173.279312 
	C686.882751,171.383942 686.953918,169.942261 687.029480,168.412415 
	C688.557800,168.974976 689.802002,169.432938 690.484558,169.684189 
	C689.669678,173.823181 688.865234,177.908722 688.060852,181.994263 
	C687.644409,182.000244 687.227966,182.006226 686.811523,182.012207 
	C686.811523,179.252472 686.811523,176.492737 686.811523,173.279312 
z"/>
<path fill="#1D293B" opacity="1.000000" stroke="none" 
	d="
M346.550110,180.762634 
	C347.429016,180.906006 347.914337,180.996887 348.399597,181.087982 
	C344.874847,183.148712 343.251251,182.462723 343.048859,178.641022 
	C342.888306,175.608551 343.016541,172.560791 343.016541,168.166824 
	C343.934204,169.768555 344.753601,170.632385 344.929810,171.611923 
	C345.471039,174.620880 345.765900,177.674133 346.550110,180.762634 
z"/>
<path fill="#283445" opacity="1.000000" stroke="none" 
	d="
M617.072510,179.383179 
	C616.973633,180.589767 616.874878,181.371704 616.776123,182.153641 
	C616.449158,182.150208 616.122131,182.146790 615.795166,182.143372 
	C615.795166,177.548309 615.795166,172.953262 615.795166,168.358200 
	C616.221008,168.344894 616.646851,168.331573 617.072693,168.318253 
	C617.072693,171.865021 617.072693,175.411774 617.072510,179.383179 
z"/>
<path fill="#283445" opacity="1.000000" stroke="none" 
	d="
M313.187836,168.356400 
	C313.845795,172.915436 314.060791,177.522247 314.275787,182.129059 
	C313.526093,182.145233 312.776428,182.161407 312.026733,182.177582 
	C312.266113,177.586456 312.505524,172.995316 313.187836,168.356400 
z"/>
<path fill="#162335" opacity="1.000000" stroke="none" 
	d="
M714.030212,177.884735 
	C714.030151,174.376770 714.030151,171.336945 714.030151,168.297134 
	C714.505005,168.304794 714.979858,168.312469 715.454712,168.320129 
	C715.454712,172.883118 715.454712,177.446106 715.454712,182.009094 
	C715.131531,182.055176 714.808350,182.101257 714.485168,182.147339 
	C714.333557,180.882523 714.181885,179.617691 714.030212,177.884735 
z"/>
<path fill="#1D293B" opacity="1.000000" stroke="none" 
	d="
M356.474213,169.431427 
	C360.514679,173.620590 356.344086,177.743332 358.075134,181.957275 
	C357.404785,181.956741 356.734467,181.956192 356.064148,181.955658 
	C356.064148,177.798965 356.064148,173.642273 356.474213,169.431427 
z"/>
<path fill="#EBEDF2" opacity="1.000000" stroke="none" 
	d="
M735.902161,180.109711 
	C735.187683,176.729385 734.764771,173.542221 734.314697,170.150436 
	C738.076782,171.719894 738.738342,176.214569 735.902161,180.109711 
z"/>
<path fill="#EBEDF2" opacity="1.000000" stroke="none" 
	d="
M469.057037,178.819046 
	C469.978455,180.403305 470.884888,181.615402 472.591949,183.898026 
	C470.033936,182.657700 467.674774,182.246368 466.805817,180.884323 
	C465.954529,179.549988 466.620453,177.247650 466.620453,175.370193 
	C467.191010,175.321182 467.761597,175.272156 468.332153,175.223145 
	C468.568817,176.297714 468.805450,177.372299 469.057037,178.819046 
z"/>
<path fill="#D7DBE0" opacity="1.000000" stroke="none" 
	d="
M234.550507,163.922699 
	C235.135468,164.802704 236.026947,166.199966 235.644531,166.868530 
	C234.998962,167.997147 233.546463,168.664230 232.240158,169.674805 
	C229.934509,166.654190 232.402679,165.483612 234.550507,163.922699 
z"/>
<path fill="#F0F2F6" opacity="1.000000" stroke="none" 
	d="
M645.940186,178.835236 
	C648.287781,179.294327 650.395996,179.958160 652.512512,180.624588 
	C650.267334,183.925034 648.332397,183.462875 645.940186,178.835236 
z"/>
<path fill="#D7DBE0" opacity="1.000000" stroke="none" 
	d="
M238.038620,170.611664 
	C237.863144,171.285049 237.729828,171.588531 237.331207,171.954987 
	C236.342773,170.926743 235.619659,169.835541 234.896545,168.744354 
	C235.291946,168.448532 235.687347,168.152725 236.082748,167.856918 
	C236.748764,168.651871 237.414780,169.446823 238.038620,170.611664 
z"/>
<path fill="#EDEFF3" opacity="1.000000" stroke="none" 
	d="
M386.421783,171.965195 
	C385.899536,171.970306 385.718872,171.961884 385.266998,171.948944 
	C385.880829,170.875000 386.765869,169.805557 387.650940,168.736130 
	C388.077911,169.164429 388.504913,169.592728 388.931885,170.021027 
	C388.209045,170.664566 387.486237,171.308105 386.421783,171.965195 
z"/>
<path fill="#EBEDF2" opacity="1.000000" stroke="none" 
	d="
M729.859863,180.359375 
	C731.072266,180.600861 732.040649,181.059753 733.009033,181.518661 
	C732.666260,182.021637 732.323486,182.524628 731.980652,183.027603 
	C731.192383,182.210663 730.404053,181.393723 729.859863,180.359375 
z"/>
<path fill="#D7DBE0" opacity="1.000000" stroke="none" 
	d="
M667.320740,172.948502 
	C666.980591,173.004379 666.498596,172.917328 666.264648,172.989700 
	C666.782166,171.858688 667.533630,170.655304 668.285095,169.451920 
	C668.638855,169.670135 668.992676,169.888336 669.346436,170.106552 
	C668.784607,171.035248 668.222717,171.963928 667.320740,172.948502 
z"/>
<path fill="#F0F2F6" opacity="1.000000" stroke="none" 
	d="
M646.192078,171.178894 
	C646.854309,171.514374 647.207581,171.914597 647.560852,172.314850 
	C647.002441,172.462112 646.443970,172.609390 645.885559,172.756668 
	C645.884766,172.252335 645.883911,171.747986 646.192078,171.178894 
z"/>
<path fill="#EBEDF2" opacity="1.000000" stroke="none" 
	d="
M473.675537,174.963409 
	C474.170837,174.985016 474.358795,174.958817 474.479614,175.036743 
	C474.698944,175.178162 474.878326,175.381561 475.074341,175.559113 
	C473.748688,175.741165 472.423065,175.923218 471.097412,176.105255 
	C471.059418,175.854218 471.021423,175.603165 470.983429,175.352112 
	C471.768280,175.222260 472.553101,175.092392 473.675537,174.963409 
z"/>
<path fill="#F0F2F6" opacity="1.000000" stroke="none" 
	d="
M645.011841,174.424591 
	C645.351562,175.090912 645.382019,175.754120 645.412415,176.417343 
	C645.131287,176.413895 644.850220,176.410431 644.569092,176.406982 
	C644.613525,175.745148 644.658081,175.083313 645.011841,174.424591 
z"/>
<path fill="#EDEFF3" opacity="1.000000" stroke="none" 
	d="
M538.962646,171.037354 
	C538.396423,170.586014 537.863098,170.102142 537.329712,169.618286 
	C537.672791,169.304810 538.015808,168.991333 538.358887,168.677856 
	C538.583374,169.226578 538.807800,169.775284 539.047119,170.632202 
	C539.061951,170.940399 538.995544,171.004837 538.962646,171.037354 
z"/>
<path fill="#D7DBE0" opacity="1.000000" stroke="none" 
	d="
M675.743835,169.420074 
	C675.838135,169.877090 675.775269,170.112137 675.769653,170.707642 
	C675.338135,170.759155 674.849426,170.450211 674.360779,170.141266 
	C674.769409,169.826889 675.178101,169.512512 675.743835,169.420074 
z"/>
<path fill="#EBEDF2" opacity="1.000000" stroke="none" 
	d="
M726.760071,181.959457 
	C726.422058,181.497086 726.370850,180.958313 726.397583,180.158035 
	C726.665955,180.558716 726.856445,181.220871 726.760071,181.959457 
z"/>
<path fill="#0E1A2D" opacity="1.000000" stroke="none" 
	d="
M391.663757,169.278931 
	C392.992859,169.154221 394.006287,169.285843 395.019684,169.417480 
	C394.964142,169.755508 394.908569,170.093552 394.853027,170.431595 
	C393.684692,170.132828 392.516357,169.834045 391.663757,169.278931 
z"/>
<path fill="#2B3647" opacity="1.000000" stroke="none" 
	d="
M302.577362,171.641693 
	C302.120300,171.423615 301.558472,170.963547 300.984741,170.214340 
	C301.472778,170.416702 301.972687,170.908203 302.577362,171.641693 
z"/>
<path fill="#F0F2F6" opacity="1.000000" stroke="none" 
	d="
M654.805908,169.929230 
	C654.993958,170.186630 654.941956,170.353165 654.802368,170.766296 
	C654.274414,170.607071 653.833923,170.201233 653.393433,169.795410 
	C653.784241,169.809723 654.175110,169.824020 654.805908,169.929230 
z"/>
<path fill="#D7DBE0" opacity="1.000000" stroke="none" 
	d="
M231.352524,172.862030 
	C230.914078,172.941422 230.727737,172.912674 230.263550,172.831177 
	C230.542679,172.347137 231.099625,171.915863 231.656570,171.484589 
	C231.639252,171.907700 231.621933,172.330795 231.352524,172.862030 
z"/>
<path fill="#D7DBE0" opacity="1.000000" stroke="none" 
	d="
M237.006409,173.184021 
	C237.203842,173.505219 237.344925,174.124573 237.213211,174.719299 
	C236.943634,174.290497 236.946838,173.886353 237.006409,173.184021 
z"/>
<path fill="#F0F2F6" opacity="1.000000" stroke="none" 
	d="
M649.774780,169.987823 
	C649.593628,170.107300 649.410522,170.048706 649.227478,169.990143 
	C649.409302,169.930008 649.591125,169.869873 649.774780,169.987823 
z"/>
<path fill="#303C4D" opacity="1.000000" stroke="none" 
	d="
M535.133423,181.979370 
	C535.355835,182.112106 535.786072,182.271271 536.524414,182.240768 
	C536.335449,182.036011 535.838257,182.020905 535.133423,181.979370 
z"/>
<path fill="#EDEFF3" opacity="1.000000" stroke="none" 
	d="
M386.847839,174.001160 
	C386.737762,174.174561 386.430725,174.330994 386.189575,174.235413 
	C386.255463,173.983383 386.650879,173.984177 386.847839,174.001160 
z"/>
<path fill="#D7DBE0" opacity="1.000000" stroke="none" 
	d="
M231.911896,174.570526 
	C231.693039,174.675583 231.364746,174.605453 231.064850,174.260956 
	C231.367203,174.057648 231.603607,174.193909 231.911896,174.570526 
z"/>
<path fill="#EBEDF2" opacity="1.000000" stroke="none" 
	d="
M473.441254,180.429550 
	C473.517029,180.379639 473.544434,180.578781 473.544434,180.578781 
	C473.544434,180.578781 473.365479,180.479462 473.441254,180.429550 
z"/>
<path fill="#F0F2F6" opacity="1.000000" stroke="none" 
	d="
M654.436523,181.539215 
	C654.393005,181.470245 654.480103,181.608170 654.436523,181.539215 
z"/>
<path fill="#EBEDF2" opacity="1.000000" stroke="none" 
	d="
M726.974243,169.590240 
	C726.784973,169.686523 726.518311,169.616684 726.278687,169.277954 
	C726.552795,169.076172 726.749817,169.214523 726.974243,169.590240 
z"/>
<path fill="#F7F9FC" opacity="1.000000" stroke="none" 
	d="
M375.460907,113.089966 
	C375.314148,117.387405 375.249939,121.206345 374.996704,125.012703 
	C374.751221,128.701996 372.813782,131.147461 369.145996,132.033829 
	C365.249908,132.975342 361.896271,132.155838 359.463989,128.769989 
	C355.254578,122.910156 355.103882,110.563759 359.235382,104.591591 
	C361.799255,100.885475 365.419891,99.871262 369.714905,100.899338 
	C373.802002,101.877670 375.238281,104.727661 375.264099,108.627762 
	C375.272858,109.954201 375.392029,111.279915 375.460907,113.089966 
z"/>
<path fill="#F7F9FC" opacity="1.000000" stroke="none" 
	d="
M494.023560,125.595459 
	C492.311951,130.165115 489.724487,133.219635 484.841522,133.108490 
	C479.895752,132.995941 477.558563,129.623688 476.238434,125.438950 
	C474.088867,118.624901 473.918793,111.828651 476.814545,105.103302 
	C478.281189,101.696999 480.809601,99.215790 484.367401,100.065804 
	C487.218872,100.747070 490.672943,102.586258 492.069122,104.963249 
	C495.720428,111.179535 495.782166,118.208328 494.023560,125.595459 
z"/>
<path fill="#EDF0F4" opacity="1.000000" stroke="none" 
	d="
M328.654907,102.318077 
	C329.614899,104.435486 330.840973,106.296539 330.787262,108.119896 
	C330.749146,109.414154 329.150940,111.531654 327.958130,111.759636 
	C324.390717,112.441490 320.681763,112.406517 317.024994,112.589409 
	C314.511597,112.715111 313.485657,111.706192 313.821625,108.972694 
	C314.780487,101.171242 321.598236,97.854622 328.654907,102.318077 
z"/>
<path fill="#EDF0F4" opacity="1.000000" stroke="none" 
	d="
M634.390015,100.083107 
	C637.045227,100.744789 640.093323,100.852936 641.385864,102.414352 
	C642.964722,104.321579 643.446655,107.436508 643.529724,110.056824 
	C643.548828,110.658745 640.050537,111.587807 638.093506,111.978012 
	C636.005676,112.394302 633.828064,112.387001 631.686218,112.500313 
	C626.594849,112.769646 625.016968,110.855888 627.475342,106.420189 
	C628.869629,103.904549 631.778137,102.228188 634.390015,100.083107 
z"/>
</svg>