<svg version="1.1" id="Layer_1" xmlns="http://www.w3.org/2000/svg" xmlns:xlink="http://www.w3.org/1999/xlink" x="0px" y="0px"
	 width="100%" viewBox="0 0 275 303" enable-background="new 0 0 275 303" xml:space="preserve">
<path fill="#F9FCFF" opacity="1.000000" stroke="none" 
	d="
M181.000000,304.000000 
	C120.692551,304.000000 60.885101,304.000000 1.038827,304.000000 
	C1.038827,203.069595 1.038827,102.139160 1.038827,1.104367 
	C92.557327,1.104367 184.114822,1.104367 275.836151,1.104367 
	C275.836151,101.999779 275.836151,202.999878 275.836151,304.000000 
	C244.472672,304.000000 212.986343,304.000000 181.000000,304.000000 
M53.485607,249.195892 
	C55.358784,249.822693 57.280029,251.097122 59.096668,250.962296 
	C66.315224,250.426483 73.788696,250.424286 80.629898,248.403549 
	C90.245361,245.563354 99.382393,241.103424 108.876617,237.274673 
	C115.944458,246.083023 123.154488,255.068588 130.489410,264.209778 
	C147.119827,243.569901 163.514908,223.462601 179.638260,203.139725 
	C193.993759,185.045166 208.628265,167.126434 222.050583,148.351562 
	C232.602173,133.592239 240.633011,117.358215 242.443405,98.696724 
	C244.009216,82.556648 235.815109,71.912048 220.981903,72.231644 
	C204.754272,72.581284 190.461761,79.212334 175.193832,87.106850 
	C180.594604,87.106850 184.602859,86.906586 188.585190,87.142845 
	C202.903839,87.992325 209.937744,96.002586 209.006927,110.277458 
	C208.878082,112.253273 208.567932,114.241699 208.105469,116.167557 
	C203.357117,135.941284 192.116211,152.133133 179.309326,167.323593 
	C156.765839,194.062866 128.697311,213.810349 97.997032,229.950241 
	C90.879204,233.692245 83.112602,236.572632 75.317421,238.577728 
	C58.037071,243.022598 48.393578,234.009201 50.800137,216.443100 
	C51.034672,214.731171 51.091000,212.994812 51.230042,211.269791 
	C50.671528,211.173157 50.113014,211.076508 49.554501,210.979858 
	C48.249969,217.147217 46.568233,223.264297 45.737980,229.494858 
	C44.737419,237.003479 45.597179,244.187561 53.485607,249.195892 
M171.638550,128.991226 
	C176.900497,139.064606 178.209122,149.762039 176.871307,161.266174 
	C184.118256,151.112686 190.617966,140.728439 196.900818,130.214600 
	C197.579407,129.079056 197.463943,127.007782 196.935852,125.681503 
	C188.849228,105.372040 175.189804,90.342262 154.354065,82.897301 
	C124.326920,72.168083 92.928970,81.789268 74.021339,107.522339 
	C63.255329,122.174751 57.627499,138.579834 59.664108,157.116867 
	C62.708767,184.829056 81.728203,203.140366 98.277924,223.897919 
	C111.824646,215.243530 124.998299,206.827484 138.171951,198.411438 
	C138.010437,197.896210 137.848907,197.380997 137.687393,196.865768 
	C124.529358,198.482849 112.493027,195.940430 102.058258,187.694611 
	C91.633133,179.456390 85.666939,168.666534 84.171951,155.483185 
	C81.783943,134.424866 95.248917,113.645195 115.531570,106.913338 
	C137.236481,99.709412 159.542572,108.298981 171.638550,128.991226 
M136.342148,185.006653 
	C144.071640,184.985764 144.072357,184.985764 144.075073,177.218719 
	C144.076614,172.801926 144.075363,168.385132 144.075363,163.734421 
	C150.022095,163.734421 155.175934,163.725967 160.329758,163.737366 
	C163.787445,163.745010 165.476868,162.287231 165.326477,158.586121 
	C165.123840,153.599228 165.102905,148.589951 165.331436,143.605270 
	C165.518143,139.533112 164.004807,137.829773 159.852310,138.008377 
	C154.751144,138.227814 149.633347,138.060730 144.074997,138.060730 
	C144.074997,132.567398 143.909622,127.603882 144.126007,122.657066 
	C144.307159,118.515892 143.091034,116.445686 138.496964,116.761810 
	C133.691071,117.092499 128.834961,117.027130 124.019150,116.778778 
	C119.835815,116.563042 118.310684,118.427597 118.383636,122.361206 
	C118.478096,127.454224 118.406685,132.550323 118.406685,138.060501 
	C112.955269,138.060501 108.142067,138.295654 103.362518,137.995270 
	C98.448555,137.686447 96.811768,139.793854 97.090088,144.471283 
	C97.356651,148.951050 97.328300,153.468414 97.096680,157.952072 
	C96.867851,162.381714 98.907066,163.903885 103.064255,163.776749 
	C108.001617,163.625732 112.947136,163.741226 118.404137,163.741226 
	C118.404137,169.307968 118.503296,174.262436 118.374001,179.210922 
	C118.262650,183.472809 120.116539,185.284134 124.392723,185.048019 
	C128.044678,184.846375 131.716614,185.006531 136.342148,185.006653 
M203.244675,49.309578 
	C203.445816,50.287102 203.585556,51.282108 203.858109,52.239296 
	C205.570358,58.252449 210.423492,62.189819 216.503769,62.537701 
	C222.467285,62.878902 227.977539,59.311672 230.226761,53.653744 
	C232.466034,48.020813 230.858566,41.892944 226.094360,37.864124 
	C222.018738,34.417622 217.303543,33.829586 212.494049,35.516468 
	C206.519928,37.611839 203.721481,42.326305 203.244675,49.309578 
z"/>
<path fill="#081528" opacity="1.000000" stroke="none" 
	d="
M53.149361,249.028839 
	C45.597179,244.187561 44.737419,237.003479 45.737980,229.494858 
	C46.568233,223.264297 48.249969,217.147217 49.554501,210.979858 
	C50.113014,211.076508 50.671528,211.173157 51.230042,211.269791 
	C51.091000,212.994812 51.034672,214.731171 50.800137,216.443100 
	C48.393578,234.009201 58.037071,243.022598 75.317421,238.577728 
	C83.112602,236.572632 90.879204,233.692245 97.997032,229.950241 
	C128.697311,213.810349 156.765839,194.062866 179.309326,167.323593 
	C192.116211,152.133133 203.357117,135.941284 208.105469,116.167557 
	C208.567932,114.241699 208.878082,112.253273 209.006927,110.277458 
	C209.937744,96.002586 202.903839,87.992325 188.585190,87.142845 
	C184.602859,86.906586 180.594604,87.106850 175.193832,87.106850 
	C190.461761,79.212334 204.754272,72.581284 220.981903,72.231644 
	C235.815109,71.912048 244.009216,82.556648 242.443405,98.696724 
	C240.633011,117.358215 232.602173,133.592239 222.050583,148.351562 
	C208.628265,167.126434 193.993759,185.045166 179.638260,203.139725 
	C163.514908,223.462601 147.119827,243.569901 130.489410,264.209778 
	C123.154488,255.068588 115.944458,246.083023 108.876617,237.274673 
	C99.382393,241.103424 90.245361,245.563354 80.629898,248.403549 
	C73.788696,250.424286 66.315224,250.426483 59.096668,250.962296 
	C57.280029,251.097122 55.358784,249.822693 53.149361,249.028839 
z"/>
<path fill="#1AC091" opacity="1.000000" stroke="none" 
	d="
M171.437744,128.677734 
	C159.542572,108.298981 137.236481,99.709412 115.531570,106.913338 
	C95.248917,113.645195 81.783943,134.424866 84.171951,155.483185 
	C85.666939,168.666534 91.633133,179.456390 102.058258,187.694611 
	C112.493027,195.940430 124.529358,198.482849 137.687393,196.865768 
	C137.848907,197.380997 138.010437,197.896210 138.171951,198.411438 
	C124.998299,206.827484 111.824646,215.243530 98.277924,223.897919 
	C81.728203,203.140366 62.708767,184.829056 59.664108,157.116867 
	C57.627499,138.579834 63.255329,122.174751 74.021339,107.522339 
	C92.928970,81.789268 124.326920,72.168083 154.354065,82.897301 
	C175.189804,90.342262 188.849228,105.372040 196.935852,125.681503 
	C197.463943,127.007782 197.579407,129.079056 196.900818,130.214600 
	C190.617966,140.728439 184.118256,151.112686 176.871307,161.266174 
	C178.209122,149.762039 176.900497,139.064606 171.437744,128.677734 
z"/>
<path fill="#1BC091" opacity="1.000000" stroke="none" 
	d="
M135.860931,185.006653 
	C131.716614,185.006531 128.044678,184.846375 124.392723,185.048019 
	C120.116539,185.284134 118.262650,183.472809 118.374001,179.210922 
	C118.503296,174.262436 118.404137,169.307968 118.404137,163.741226 
	C112.947136,163.741226 108.001617,163.625732 103.064255,163.776749 
	C98.907066,163.903885 96.867851,162.381714 97.096680,157.952072 
	C97.328300,153.468414 97.356651,148.951050 97.090088,144.471283 
	C96.811768,139.793854 98.448555,137.686447 103.362518,137.995270 
	C108.142067,138.295654 112.955269,138.060501 118.406685,138.060501 
	C118.406685,132.550323 118.478096,127.454224 118.383636,122.361206 
	C118.310684,118.427597 119.835815,116.563042 124.019150,116.778778 
	C128.834961,117.027130 133.691071,117.092499 138.496964,116.761810 
	C143.091034,116.445686 144.307159,118.515892 144.126007,122.657066 
	C143.909622,127.603882 144.074997,132.567398 144.074997,138.060730 
	C149.633347,138.060730 154.751144,138.227814 159.852310,138.008377 
	C164.004807,137.829773 165.518143,139.533112 165.331436,143.605270 
	C165.102905,148.589951 165.123840,153.599228 165.326477,158.586121 
	C165.476868,162.287231 163.787445,163.745010 160.329758,163.737366 
	C155.175934,163.725967 150.022095,163.734421 144.075363,163.734421 
	C144.075363,168.385132 144.076614,172.801926 144.075073,177.218719 
	C144.072357,184.985764 144.071640,184.985764 135.860931,185.006653 
z"/>
<path fill="#081529" opacity="1.000000" stroke="none" 
	d="
M203.227249,48.907192 
	C203.721481,42.326305 206.519928,37.611839 212.494049,35.516468 
	C217.303543,33.829586 222.018738,34.417622 226.094360,37.864124 
	C230.858566,41.892944 232.466034,48.020813 230.226761,53.653744 
	C227.977539,59.311672 222.467285,62.878902 216.503769,62.537701 
	C210.423492,62.189819 205.570358,58.252449 203.858109,52.239296 
	C203.585556,51.282108 203.445816,50.287102 203.227249,48.907192 
z"/>
</svg>